<svg version="1.2" xmlns="http://www.w3.org/2000/svg" viewBox="0 0 2601 2001" width="500" height="385">
	<title>15402884_Colorful glazed doughnuts running away in panic</title>
	<defs>
		<linearGradient id="g1" x2="1" gradientUnits="userSpaceOnUse" gradientTransform="matrix(0,-1292.719,1680.761,0,531.181,1222.241)">
			<stop offset="0" stop-color="#ffffff"/>
			<stop offset="1" stop-color="#ffc0da"/>
		</linearGradient>
	</defs>
	<style>
		.s0 { fill: url(#g1) } 
		.s1 { fill: #edbce6 } 
		.s2 { opacity: .51;fill: #ffffff } 
		.s3 { fill: #bea2ea } 
		.s4 { fill: #6c6cc1 } 
		.s5 { fill: #2a1735 } 
		.s6 { fill: #3cc43d } 
		.s7 { fill: #2eaa2e } 
		.s8 { fill: #92da29 } 
		.s9 { fill: #ade729 } 
		.s10 { fill: #233efb } 
		.s11 { fill: #e7314f } 
		.s12 { fill: #ffff29 } 
		.s13 { fill: #c2fffb } 
		.s14 { fill: #ffffff } 
		.s15 { fill: #661800 } 
		.s16 { opacity: .54;fill: #ffffff } 
		.s17 { fill: #ffae75 } 
		.s18 { fill: #ff9075 } 
		.s19 { fill: #ffd080 } 
		.s20 { fill: #ff4ab2 } 
		.s21 { fill: #ff6ec8 } 
		.s22 { fill: #ff92db } 
		.s23 { fill: #ffaee8 } 
		.s24 { fill: #c44133 } 
		.s25 { fill: #8282d8 } 
	</style>
	<g id="_Artboards_">
	</g>
	<g id="321353356351 1">
		<g id="&lt;Group&gt;">
			<path id="&lt;Path&gt;" class="s0" d="m2601 2001.4h-2601v-2000.5h2601z"/>
			<path id="&lt;Path&gt;" class="s1" d="m2601 265.7q-0.4-1.6-0.9-3.2c-55 0.8-109.8 12.2-160.6 33.4-7.1 73.1-9.6 146.7-7.3 220.1-49.4 4.1-98.4 12.8-146.3 25.9q7.7-52.6 15.3-105.3c-82.2-27.1-167-46.3-252.8-57.1-42 98-74 200.2-95.5 304.6-9.1 44.4-16.5 90-37.1 130.4-20.6 40.4-57.4 75.7-102.4 81.1q-65.2-101.7-130.4-203.4c-10.4-16.3-22.4-33.7-40.9-39.2-14.7-4.4-30.5-0.2-45.2 4.1q-68.4 19.5-136.8 39.1 43.9 156.7 87.9 313.5-49.9 11.4-99.9 22.9c-3.9 50.4 0.4 101.4 12.7 150.4q-68.9 18.6-137.8 37.1-18.5-57.6-36.9-115.3c-75.3-39.9-182.2 8.6-201.7 91.5q-53-4.1-106-8.3 45.3-200.4 90.7-400.8-140.5-52.3-281-104.7c-9.7-3.6-20.1-7.3-30.3-5.3-22.3 4.3-30.6 30.9-37.5 52.6-44.8 141.2-216.3 227.3-356.3 178.8 17.6-127.7 37.9-255.1 60.9-381.9-103.9-22-209.7-35.2-315.8-39.5q-43.2 139.1-86.3 278.3-11.4-12-22.8-24.1v651.5c23.7 17.5 52.5 28.8 80.6 38.6 158.8 55.7 325.1 86.8 491.7 110.8 354.7 51.1 713.2 70.7 1071.1 90.2 151.3 8.3 303.4 16.5 453.9-1 173-20.1 339.6-73.7 503.7-133.4z"/>
			<path id="&lt;Path&gt;" class="s2" d="m1377.6 31.5c-9.5 35.9 1.4 73.8 14.1 108.6 7.1 19.4 15.2 39.2 30.3 53.4 15 14.1 38.8 21.1 56.8 10.9-3 54.7 26.2 109.9 73.1 138.2 46.9 28.3 109.5 28.3 156.4 0.1-17.1 34.4-13 76.3 2 111.7 15 35.3 39.7 65.5 64.1 95.2-42.3-14.6-89.1 18.3-106 59.6-16.9 41.4-12 88.1-6.8 132.5-68.6-4-129.8 69.7-113.2 136.4-25.6-9.9-55.9 3.2-72.3 25.1-16.3 22-20.9 50.7-20.3 78.1-29.1 11.6-41.1 48.4-34.9 79.1 6.3 30.6 26.1 56.5 45.4 81.1-12.1-15.5-59.1 48.8-62.3 58.1-9.1 26.1-7.8 66.1-3.7 93.7 11.1 73.8 81.6 47.7 129.8 18.3 9.3-5.7 18.5-12.4 23.2-22.2 10.5-22.3-6.8-48.1-4.1-72.5 1.6-14.2 9.9-26.8 13.4-40.7 8.6-33.7-17.1-72.1-51.6-76.9 20.3-17.3 32.8-43.2 33.6-69.8 33.9 28.8 80.4 37.1 124.8 40.9 54.1 4.6 111.9 3.1 158.2-25.3 46.3-28.5 74.7-91.9 48.4-139.5 28.4-22 40.4-60.3 39.4-96.2-1-36-13.1-70.6-25.1-104.6 45.5 9.3 93.1 18.5 137.8 5.9 44.7-12.7 84.8-54.7 78.5-100.7 17.8 5.6 35.4-13.9 35.5-32.5 0.1-18.7-11.1-35.3-21.9-50.5 61-16.8 85.6-93.6 74.5-155.9-12.1-67.3-55-128.4-114.2-162.6 27.3-39 50-82.6 55.8-129.8 3.2-26 0.6-53.2-8.3-77.8h-736.6c-6.2 9.4-10.9 19.6-13.8 30.6z"/>
			<path id="&lt;Path&gt;" class="s3" d="m2601 1160.1c-20.3 6.4-39.5 16.5-56.2 29.7-35.1-37.1-110.2-12.1-116.1 38.6-102.6 30.7-212.5-0.4-319.7-0.2-57.5 0.1-114.5 9.2-171.3 17.7-59.6 8.8-119.3 16.9-179 24.9-89.1 12-180.1 24.1-268.6 7.9-10.5-27.8-46.1-35.7-75.9-34.5-29.7 1.2-61.9 6.7-87.2-8.9-11.8-7.3-21.3-18.8-34.7-22.2-20.3-5.1-39.8 10.3-60.4 13.9-35.5 6.3-46.1-13.7-77.2-11.9-19 1-45.4 9.9-76.1 45.6q-328.8 0-657.6 0c-43.1-1.5-86-4.9-129.1-6.5-17.1-0.6-38.9 1.9-43.9 18.3-24.4-17.1-56.1-23.7-85.3-17.6-0.8-25.7-26.4-47.9-52-45.1-12-17.9-9.6-45.6-28.1-56.7-6.4-3.8-14.1-4.7-21.5-5-20.6-0.9-41.3 1.7-61.1 7.4v845.9h2601z"/>
			<path id="&lt;Path&gt;" class="s4" d="m2190.1 1541.6c-37.2 5.2-74 12.8-111.5 15.2-45.5 2.9-91.1-1.9-136.6-5.6-155-12.5-311-11.9-465.9 2-26.8 2.4-54.5 5.5-77.3 19.5-8.9 5.4-17.6 15.3-13.9 25 3.2 8.4 13.7 10.9 22.6 12.2 54.5 7.7 109.4 13 164.3 15.8 53.8 2.7 107.6 3.1 161.4 3.4q206.2 1.4 412.3 2.8c99.1 0.7 198.5 1.4 296.9-10.6 23.2-2.8 62.1-10.7 62.8-40.9 0.7-33.9-41.2-33.8-65.5-37.4-82.5-12.4-166.9-12.9-249.6-1.4z"/>
			<path id="&lt;Path&gt;" class="s4" d="m1026.1 1525.8c-33.9-3.6-68.2-7.2-102-3-22.8 2.8-44.8 9.2-67.5 12-30.9 3.9-62.2 1.2-93.3-0.7-82.7-4.8-165.7-3.2-248.5-1.6q-96.7 1.8-193.3 3.7c-59 1.1-118 2.3-176.6 8.6-14.8 1.6-30.1 3.7-42.4 11.5-12.3 7.8-20.4 22.8-14.9 35.6 7.5 17.1 32.2 19.6 52.2 19.3q65.4-0.8 130.9-1.6c41.5-0.5 83.2-1 124.2 4.9 82.1 11.9 163.7 49.2 244.7 31.8 16.2-3.5 32-9.2 48.5-11.3 24.5-3 49.3 2.1 73.6 6.3 99.4 16.8 202.1 17.4 301.7 1.8 36.5-5.8 76-15.7 96.9-43.9 3.1-4.2 5.7-9.3 4.2-14.1-1.4-4.2-5.6-7.1-9.6-9.4-24.2-13.6-52.7-7.4-75-17.6-21.7-9.9-23.2-29-53.8-32.3z"/>
			<g id="&lt;Group&gt;">
				<path id="&lt;Path&gt;" class="s5" d="m1876.7 1381.8c-24.4 19.3-38.3 52.9-47 82-6.9 23.5-10.7 47.8-11.2 72.2-35.7-5-73.4 4.7-101.6 27.4-12.3 9.9-1.4 28.6 12.1 29.2 38 1.5 76.5-1.6 113.5-10.7 10-2.5 13-11.5 11-19.3 0.4-1.4 0.5-2.9 0.4-4.4-1.6-28.7 1.1-57.5 8.6-85.3 3.7-13.7 8.3-27.3 13.8-40.4 5.7-13.7 12.5-26.8 17.1-41 3.3-10.4-9.6-15.4-16.7-9.7z"/>
				<path id="&lt;Path&gt;" class="s5" d="m2286.7 1565.2c-4.5-8.5-12.1-13.7-20.3-18.1-8.8-4.7-17.6-9.6-26.4-14.2-17.4-9.2-35-17.9-52.8-26.2q-3.9-5.4-7.6-10.9c-26.8-39.7-52.1-80.3-76.6-121.5q-10.1-17-19.8-34.2c-3.4-6-7-11.7-10.6-17.6-4.5-7.3-8.7-13.7-18.2-13.7-5.4 0.1-12.5 4.2-13.3 10.2-1.4 10 3.8 17.9 7.9 26.8 3.9 8.3 8.2 16.3 12.4 24.4 8.1 15.3 16.4 30.5 25 45.5 17.7 30.7 36.2 60.9 55.5 90.6 18.2 28 38.7 55.5 67 73.9 13.3 8.7 28.6 15.1 44.3 17.4 9.6 1.5 22.3 3.8 30-3.9 7.5-7.5 8.4-19.5 3.5-28.5z"/>
				<path id="&lt;Path&gt;" class="s5" d="m1690.4 1192.5c-11-1.1-22 0-33.1-0.2-11-0.1-22.1-0.7-33.1-2-21.1-2.5-42.1-7.7-62-14.8-20.1-7.2-39.2-17-56.8-28.9q-13.3-8.8-25.2-19.4-5.8-5.1-11.3-10.6c-2.4-2.4-5.8-5.1-7.9-8.3q0.9-2.3 1.6-4.7c14.1-6.8 25.4-22.2 30.7-35.4 7.4-18 7-47.9-17-52.8-8-1.6-16.2 2.3-18.5 10.5-1.9 7 2.4 17.2 10.5 18.4q0.3 0 0.6 0.1 0.1 0.2 0.1 0.4c0 0.3 0.4 2.5 0.4 4.4-0.2 5.1-1.8 10.4-4.1 14.9-1.7 3.3-3.8 6.1-6 8.6-2.5-9.6-9.3-17.6-18.3-21.7-3-10.8-8.5-21.2-13.9-28.3-14.4-19-36.4-30.6-59.5-34.9-8.4-1.5-17 2.3-19.3 11-2 7.3 2.5 18.1 10.9 19.3 16.4 2.3 32.1 8.1 43.7 20.3 3.4 3.6 6.3 7.7 8.5 12.2-3.6 1.4-7 3.3-10 5.6-6.1-4.9-13.4-8.6-19.3-10.9-14.2-5.7-38.6-9.5-50.1 3.5-13.6 15.5 5.2 34.9 21.1 25.1q0.3-0.1 0.7-0.2 0.5 0 1.8-0.1c2.8-0.3 5.8-0.3 8.6 0 4.3 0.3 8.5 1.5 12.6 2.9 2.8 0.9 5.4 2.3 8 3.9q-0.9 3.2-1.3 6.5-0.2 1.5-0.3 2.9c-18.5-1.9-38 6.3-42.1 26.9-1.6 8 2.3 16.3 10.6 18.6 7.4 2 17-2.5 18.6-10.6 1.6-8.2 12.4-8.3 21-8.2 8.2 11.2 21.6 18.4 36.4 17.2 4.9-0.4 9.5-1.8 13.7-4 2.7 3.2 5.7 6.1 8.6 9 12.4 12.3 26.2 23.3 40.7 32.9 27.4 18.3 58.4 31.8 90.3 39.7 18.4 4.6 37.5 6.9 56.4 7.5 19.3 0.5 40.2-0.4 58-8 10-4.3 3.5-17.5-5-18.3z"/>
				<g id="&lt;Group&gt;">
					<g id="&lt;Group&gt;">
						<path id="&lt;Compound Path&gt;" fill-rule="evenodd" class="s6" d="m2189.9 1338.7c-12.1 11.9-20.5 27-25.1 43.4-12.1 4-23.3 10.8-32.1 19-7.9 7.6-13.3 17.4-15.8 27.9-34.5 10.4-71.1 15.9-109 15.9-209.7 0-379.7-169.9-379.7-379.6 0-209.6 170-379.6 379.7-379.6q3.2 0 6.3 0.1c-1.5 25.5 8.9 50.8 32.6 65.6 11.2 7 24.6 10.2 37.8 9.7 1.5 9.3 4.1 18.5 8.6 27.2 13.6 27.1 43.7 40.8 73.1 39.3 6.9 14 17.8 25.9 32.1 33.2 26.3 13.4 58.5 10.3 80.7-8.7 13.4 4.7 28.1 5.8 42.7 2.7q0.9-0.1 1.8-0.4c40.4 60.3 63.9 132.9 63.9 210.9 0 76.4-22.6 147.5-61.4 207-15.5-2-31.4 2.1-45.2 9.4-12.5 6.7-24 18.1-31.2 30.4q-1.2 2.1-2.3 4.1-1.3-0.1-2.6-0.1c-20.6-0.7-40.4 8.2-54.9 22.6zm-44.1-290.1c0-76.2-61.7-138-137.9-138-76.2 0-138 61.8-138 138 0 76.2 61.8 137.9 138 137.9 76.2 0 137.9-61.7 137.9-137.9z"/>
						<path id="&lt;Path&gt;" class="s6" d="m2244.8 1316.1q1.3 0 2.6 0.1 1.1-2 2.3-4.1c7.2-12.3 18.7-23.7 31.2-30.4 13.8-7.3 29.7-11.4 45.2-9.4 38.8-59.5 61.4-130.6 61.4-207 0-53.9-11.2-105.1-31.5-151.5 0.9 31.3 1.4 169.1-103.1 286.2-21.4 24-95.2 100.8-216.3 125.8-208.3 42.8-367.1-106.9-382.1-121.5 55.4 140.9 192.8 240.6 353.4 240.6 37.9 0 74.5-5.5 109-15.9 2.5-10.5 7.9-20.3 15.8-27.9 8.8-8.2 20-15 32.1-19 4.6-16.4 13-31.5 25.1-43.4 14.5-14.4 34.3-23.3 54.9-22.6z"/>
						<path id="&lt;Path&gt;" class="s6" d="m1897.5 737.4c-27 7.2-119.7 41.2-164.9 119.6-45.1 78.5-2.9 96.2-15.6 149.1-12.8 53-66.8 87.3-56 129.5 10.8 42.2 103.1-6.2 102.1-104.4-0.9-98.1 79.9-185 79.9-185 0 0 147.1-46 148.6-67.6 1.5-21.7-3.3-65.7-94.1-41.2z"/>
					</g>
				</g>
				<path id="&lt;Compound Path&gt;" fill-rule="evenodd" class="s6" d="m2308.2 1061.7c-5.6 7.4-14.8 21.8-18.9 42.2-4.6 22.9-0.3 41.6 2.5 50.7 1.9 5.5 9.5 29.9-2.5 56.1-15.5 33.8-50.6 41.7-54.4 42.5-8.1 1.2-26.9 5.2-44.9 20.3-17.7 15-24.9 32.6-27.5 40.3-2.6 5.9-13.2 28.3-39.1 40.1-32.9 15.1-63.5 0.9-67.8-1.1-10.9-3.6-27.4-7.7-47.8-7.7-19.8 0.1-35.9 4.1-46.6 7.7-4.4 2.3-29.8 15.1-60.3 4.9-32.6-10.9-44.9-39.6-46.6-43.9-2.4-7.6-8.8-24.4-25-39-18.8-16.9-39.6-20.6-47.4-21.6-1.6-0.1-39-1.9-56.9-35-16.8-31-1.2-61.3 0-63.6 3-8.1 8.9-27.8 3.7-52-4.3-20.5-14.5-34.3-20.1-40.9-1.4-1.2-28.8-24.1-23.8-59.6 3.3-24.2 20.2-44.5 43.6-52.5 7.2-3.8 25-14.6 36.8-36.8 10.1-19 10.7-36.7 10.4-44.9 0.1-5 1.4-33.1 24.8-54.3 25.9-23.6 58-19.5 62.4-18.9 7.9 1.6 27.2 4.5 49.4-3.8 21.7-8 34.3-22.1 39.3-28.5 3-3.6 21.8-25.4 53.8-26.8 10.4-0.4 19.7 1.5 27.6 4.4 4 4.2 8.6 8.1 13.9 11.4 4.5 2.7 9.3 4.9 14.3 6.5 2.2 2.2 3.7 3.9 4.2 4.5 5.2 4.8 13.2 11.3 24.1 17.3q1.6 4.4 3.8 8.6c13.6 27.1 43.7 40.8 73.1 39.3 6.9 14 17.8 25.9 32.1 33.2 13.5 6.9 28.5 9.4 42.9 7.7 1 9.9 4 26.5 14.1 44.3 10.9 19.4 24.9 31 33 36.8 2.9 1.1 32.7 13 41.1 44.9 6.4 24.1-2 50.2-21.3 67.2zm-162.4-13.1c0-76.2-61.7-138-137.9-138-76.2 0-138 61.8-138 138 0 76.2 61.8 137.9 138 137.9 76.2 0 137.9-61.7 137.9-137.9z"/>
				<path id="&lt;Compound Path&gt;" fill-rule="evenodd" class="s7" d="m2229.3 1136.1c-14.7 41.2-76.5 70.5-126.2 72.5-53.3 2.1-75.3-28.1-143.6-22-37.5 3.4-38 13.2-73.7 16.4-49.4 4.4-125.6-7.4-144.8-43.5-34-63.9 79.4-264 237.8-268.8 149.2-4.5 278.8 166.2 250.5 245.4zm-206.7-10.8c8.6 5.9 8.4 13 14 17.1 21 15.5 106.8-25.9 114.7-80 8.4-58.1-73.3-128.5-153.3-128.4-86.5 0.1-165.3 82.5-153.3 128.4 9.8 37.6 87.3 75.9 132.8 62.9 8-2.3 29.7-10.4 45.1 0z"/>
				<g id="&lt;Group&gt;">
					<path id="&lt;Path&gt;" class="s8" d="m2093.2 788.3c-4.3-8.4-6.9-17.1-8.4-26q-1.2-0.6-2.5-1.2c-12.4 0.1-24.9-3.1-35.5-9.7q-2.9-1.9-5.6-3.9c-13.1-3.3-26.4-5.9-38.1-7.3-20.2-2.6-86.6-10.9-142.1 28-28.6 20-20.2 28.7-65.5 78.5-53 58.4-73.5 56.5-93.5 97.3-3.7 7.6-32.5 66.3-5.6 101 9.3 12 26 21.9 43 20.5 15-1.2 30.8-11.2 50.5-44.1 37.1-62.2 24-99.5 41.2-135.4 41.5-87.1 217.7-75 265-92.4q-1.6-2.5-2.9-5.3z"/>
					<path id="&lt;Path&gt;" class="s8" d="m1812.3 1174.7c-20.4 3.4-30.8 77.2 10.2 130.8 41 53.6 74.6 94.7 146.9 67.3 72.4-27.4 109.9-32.4 147.8-23.7 38 8.8 154.1-59.8 0-119.6-154-59.9-181.5 107.2-220.7 62.3-39.3-44.9-16.8-128.1-84.2-117.1z"/>
					<path id="&lt;Path&gt;" class="s8" d="m2235 889.1c-18 3.6-63.9 42.4-40.1 104.8 23.9 62.3 107.4 101.2 60.1 180.8-47.4 79.7 46.3 52.8 72.3 0 25.9-52.7-49.9-83.2-48.7-117.7 1.3-34.5 69.1-190.2-43.6-167.9z"/>
					<path id="&lt;Path&gt;" class="s9" d="m1814.8 844.3c-20.3 8.5-30.1 48.6-68.7 78.5-38.5 29.9-58.4 76.2-41 98.6 17.5 22.3 59.9 7.4 67.3-56.2 7.5-63.6 96.1-143.4 42.4-120.9z"/>
					<path id="&lt;Path&gt;" class="s9" d="m2227.5 910.3c-22.1 18.9-46.1 56.1 12.5 133.4 58.6 77.3 9.5-22.3 20.5-76 11.8-58 4.4-89.3-33-57.4z"/>
					<path id="&lt;Path&gt;" class="s9" d="m1994.7 1248.2c-26.1 17.6-62.2 48.1-76.4 78.5-16.2 34.9 50.6 39.9 79.5-8.7 29-48.6 81.5-36.2 119.4-13.7 38 22.4 77.8-21.5 11.8-54.6-66.1-33.1-115.1-14.6-134.3-1.5z"/>
				</g>
				<g id="&lt;Group&gt;">
					<path id="&lt;Path&gt;" class="s10" d="m2007.9 867.2q-1.1 0.1-2.1-0.4c-2.5-1.2-3.6-4.2-2.4-6.6l12.1-25.5c1.1-2.5 4.1-3.6 6.6-2.4 2.5 1.2 3.5 4.2 2.3 6.6l-12 25.5c-0.9 1.8-2.7 2.8-4.5 2.8z"/>
					<path id="&lt;Path&gt;" class="s11" d="m2072.2 898.7q-0.8 0.8-1.8 1.2c-2.6 0.9-5.5-0.5-6.4-3l-9.5-26.6c-0.9-2.6 0.5-5.4 3-6.3 2.6-1 5.5 0.4 6.4 3l9.5 26.5c0.6 1.9 0.1 3.9-1.2 5.2z"/>
					<path id="&lt;Path&gt;" class="s12" d="m2047.2 837.2q-0.8-0.8-1.2-1.8c-0.9-2.6 0.4-5.5 3-6.4l26.6-9.5c2.5-0.9 5.4 0.4 6.3 3 0.9 2.6-0.4 5.5-3 6.4l-26.5 9.5c-1.9 0.6-3.9 0.1-5.2-1.2z"/>
					<path id="&lt;Path&gt;" class="s12" d="m1981.6 895.2q0 1.1-0.5 2.1c-1.2 2.5-4.1 3.5-6.6 2.4l-25.5-12.1c-2.5-1.2-3.5-4.1-2.3-6.6 1.1-2.5 4.1-3.5 6.6-2.4l25.5 12.1c1.7 0.8 2.8 2.6 2.8 4.5z"/>
					<path id="&lt;Path&gt;" class="s11" d="m1932.4 853.1q-0.9-0.5-1.5-1.5c-1.5-2.3-0.8-5.4 1.5-6.9l23.9-15c2.3-1.5 5.4-0.8 6.8 1.6 1.5 2.3 0.8 5.3-1.5 6.8l-23.9 15c-1.7 1.1-3.7 1-5.3 0z"/>
					<path id="&lt;Path&gt;" class="s10" d="m1936.3 829.8q-0.7 0.9-1.7 1.4c-2.4 1.3-5.4 0.4-6.7-2l-13.3-24.8c-1.3-2.5-0.4-5.5 2-6.8 2.5-1.3 5.5-0.3 6.8 2.1l13.3 24.8c0.9 1.8 0.7 3.8-0.4 5.3z"/>
					<path id="&lt;Path&gt;" class="s13" d="m1977.4 789.5q0.1-1.1 0.7-2.1c1.4-2.4 4.4-3.2 6.8-1.8l24.3 14.3c2.4 1.4 3.1 4.4 1.8 6.8-1.4 2.4-4.5 3.1-6.8 1.8l-24.4-14.3c-1.7-1-2.6-2.9-2.4-4.7z"/>
					<path id="&lt;Path&gt;" class="s13" d="m2102.5 886.2q0.5-0.9 1.5-1.6c2.2-1.6 5.3-1.1 6.9 1.2l16.2 23c1.6 2.2 1.1 5.3-1.1 6.9-2.3 1.6-5.4 1.1-7-1.2l-16.2-23c-1.2-1.6-1.2-3.7-0.3-5.3z"/>
					<path id="&lt;Path&gt;" class="s10" d="m2141.1 937.7q-0.7-0.7-1.1-1.8c-0.8-2.6 0.6-5.4 3.2-6.3l26.8-8.7c2.6-0.8 5.4 0.6 6.3 3.2 0.8 2.6-0.6 5.4-3.2 6.2l-26.8 8.8c-1.9 0.6-3.9 0-5.2-1.4z"/>
					<path id="&lt;Path&gt;" class="s12" d="m2189 877.8q0.2 1.1-0.1 2.2c-0.8 2.6-3.6 4.2-6.2 3.4l-27.1-7.9c-2.6-0.8-4.1-3.5-3.3-6.2 0.7-2.6 3.5-4.1 6.1-3.3l27.1 7.9c1.9 0.5 3.2 2.1 3.5 3.9z"/>
					<path id="&lt;Path&gt;" class="s11" d="m2127.6 820.5q-0.5 0.5-0.9 1.1l-14.9 24c-1.4 2.3-0.7 5.3 1.6 6.8q1 0.6 2.1 0.7c1.8 0.2 3.7-0.6 4.8-2.3l14.8-24c0.6-1 0.8-2.1 0.7-3.1q-4.2-1.4-8.2-3.2z"/>
					<path id="&lt;Path&gt;" class="s10" d="m2167 976q-1-0.2-1.9-0.9c-2.2-1.6-2.7-4.7-1-6.9l16.9-22.6c1.6-2.2 4.8-2.6 6.9-1 2.2 1.7 2.7 4.8 1 7l-16.9 22.5c-1.2 1.6-3.1 2.3-5 1.9z"/>
					<path id="&lt;Path&gt;" class="s11" d="m2223.9 946.8q-0.8 0.7-1.9 1.1c-2.5 1-5.4-0.4-6.3-3l-9.5-26.5c-0.9-2.6 0.4-5.4 3-6.4 2.6-0.9 5.4 0.5 6.4 3l9.5 26.6c0.6 1.9 0.1 3.9-1.2 5.2z"/>
					<path id="&lt;Path&gt;" class="s12" d="m2188 1031.5q-1.1 0-2.1-0.5c-2.5-1.2-3.6-4.2-2.5-6.7l12.1-25.9c1.2-2.5 4.2-3.6 6.7-2.4 2.5 1.2 3.6 4.2 2.4 6.7l-12 25.9c-0.9 1.8-2.7 2.8-4.6 2.9z"/>
					<path id="&lt;Path&gt;" class="s12" d="m2309.8 1019.6q0 1.1-0.5 2.2c-1.2 2.5-4.2 3.5-6.7 2.3l-25.8-12.2c-2.5-1.2-3.6-4.2-2.4-6.7 1.2-2.5 4.2-3.5 6.7-2.4l25.8 12.3c1.8 0.8 2.9 2.6 2.9 4.5z"/>
					<path id="&lt;Path&gt;" class="s13" d="m2257.5 965.4q1 0.4 1.8 1.1c2 1.9 2.1 5.1 0.2 7.1l-19.4 20.4c-1.9 2-5.1 2.1-7 0.2-2-1.9-2.1-5.1-0.2-7.1l19.4-20.4c1.4-1.4 3.4-1.9 5.2-1.3z"/>
					<path id="&lt;Path&gt;" class="s10" d="m2254.8 1117q-1 0-2.1-0.5c-2.5-1.1-3.5-4.1-2.4-6.6l12.1-25.4c1.2-2.5 4.1-3.6 6.6-2.4 2.5 1.2 3.6 4.1 2.4 6.6l-12.1 25.5c-0.8 1.8-2.6 2.8-4.5 2.8z"/>
					<path id="&lt;Path&gt;" class="s12" d="m2232.2 1154.2q0 1.1-0.5 2.1c-1.2 2.6-4.2 3.6-6.7 2.4l-25.8-12.2c-2.5-1.2-3.6-4.2-2.4-6.7 1.2-2.5 4.2-3.6 6.7-2.4l25.8 12.3c1.8 0.8 2.9 2.6 2.9 4.5z"/>
					<path id="&lt;Path&gt;" class="s11" d="m2187.4 1098.5q-1-0.5-1.6-1.5c-1.4-2.3-0.8-5.4 1.6-6.8l23.8-15.1c2.3-1.4 5.4-0.7 6.9 1.6 1.4 2.3 0.7 5.4-1.6 6.8l-23.8 15.1c-1.7 1-3.8 0.9-5.3-0.1z"/>
					<path id="&lt;Path&gt;" class="s10" d="m2181.2 1084.8q-0.6 0.9-1.6 1.5c-2.5 1.2-5.5 0.3-6.8-2.1l-13.3-24.8c-1.3-2.5-0.3-5.5 2.1-6.8 2.4-1.3 5.4-0.3 6.7 2.1l13.3 24.8c0.9 1.8 0.7 3.8-0.4 5.3z"/>
					<path id="&lt;Path&gt;" class="s13" d="m2232.6 1035.5q0.1-1 0.7-2c1.3-2.4 4.4-3.2 6.7-1.8l24.4 14.3c2.3 1.3 3.1 4.4 1.7 6.8-1.3 2.3-4.4 3.1-6.8 1.7l-24.3-14.2c-1.7-1-2.6-2.9-2.4-4.8z"/>
					<path id="&lt;Path&gt;" class="s11" d="m2111 1167.4q-0.7-0.7-1.1-1.8c-0.9-2.6 0.4-5.5 3-6.4l26.5-9.4c2.6-1 5.5 0.4 6.4 3 0.9 2.6-0.4 5.4-3 6.3l-26.6 9.5c-1.8 0.6-3.8 0.1-5.2-1.2z"/>
					<path id="&lt;Path&gt;" class="s12" d="m2172.6 1142.4q0.7-0.7 1.8-1.1c2.6-1 5.4 0.4 6.4 3l9.4 26.5c0.9 2.6-0.4 5.5-3 6.4-2.6 0.9-5.4-0.4-6.3-3l-9.5-26.6c-0.7-1.9-0.1-3.9 1.2-5.2z"/>
					<path id="&lt;Path&gt;" class="s13" d="m2123.5 1197.7q1 0.5 1.6 1.5c1.6 2.2 1.1 5.3-1.2 6.9l-23 16.2c-2.3 1.6-5.4 1.1-6.9-1.2-1.6-2.2-1.1-5.3 1.2-6.9l23-16.2c1.6-1.2 3.7-1.2 5.3-0.3z"/>
					<path id="&lt;Path&gt;" class="s10" d="m2071.9 1236.3q0.8-0.8 1.9-1.1c2.6-0.9 5.4 0.5 6.3 3.2l8.6 26.8c0.9 2.6-0.5 5.4-3.1 6.2-2.7 0.9-5.5-0.6-6.3-3.2l-8.7-26.8c-0.6-1.9 0-3.9 1.3-5.1z"/>
					<path id="&lt;Path&gt;" class="s12" d="m2131.8 1284.2q-1.1 0.2-2.2-0.1c-2.6-0.8-4.1-3.6-3.3-6.2l7.9-27c0.7-2.7 3.5-4.2 6.1-3.4 2.7 0.8 4.2 3.5 3.4 6.2l-7.9 27c-0.6 1.9-2.2 3.2-4 3.5z"/>
					<path id="&lt;Path&gt;" class="s11" d="m2156.6 1210.7q0.1-1.1 0.7-2c1.5-2.4 4.5-3.1 6.9-1.6l23.9 14.8c2.3 1.5 3.1 4.5 1.6 6.9-1.4 2.3-4.5 3-6.8 1.6l-24-14.9c-1.7-1-2.5-2.9-2.3-4.8z"/>
					<path id="&lt;Path&gt;" class="s11" d="m1943.7 1313.5q-0.2 1.1-0.9 2c-1.7 2.2-4.8 2.6-7 1l-22.4-17c-2.2-1.7-2.7-4.8-1-7 1.6-2.2 4.8-2.6 6.9-0.9l22.5 16.9c1.6 1.2 2.3 3.2 1.9 5z"/>
					<path id="&lt;Path&gt;" class="s12" d="m1889 1275.8q-1-0.2-2-0.9c-2.1-1.6-2.6-4.7-0.9-6.9l17-22.5c1.6-2.2 4.7-2.6 6.9-1 2.2 1.7 2.7 4.8 1 7l-17 22.5c-1.2 1.5-3.2 2.2-5 1.8z"/>
					<path id="&lt;Path&gt;" class="s13" d="m1962.2 1286.5q-0.1-1.1 0.3-2.2c1-2.5 3.9-3.8 6.4-2.8l26.3 10.3c2.5 1 3.8 3.9 2.8 6.5-1 2.5-3.9 3.8-6.5 2.8l-26.2-10.3c-1.8-0.8-3-2.5-3.1-4.3z"/>
					<path id="&lt;Path&gt;" class="s10" d="m2022.7 1308.4q-1-0.3-1.9-1c-2.2-1.7-2.5-4.8-0.8-6.9l17.6-22c1.8-2.2 4.9-2.5 7-0.8 2.2 1.7 2.5 4.8 0.8 7l-17.6 22c-1.3 1.5-3.3 2.1-5.1 1.7z"/>
					<path id="&lt;Path&gt;" class="s12" d="m2029.9 1232q0.8 0.8 1.1 1.9c0.8 2.6-0.7 5.4-3.3 6.2l-27 8.3c-2.6 0.8-5.4-0.7-6.2-3.3-0.8-2.7 0.7-5.4 3.3-6.2l27-8.3c1.9-0.6 3.9 0.1 5.1 1.4z"/>
					<path id="&lt;Path&gt;" class="s11" d="m1954.9 1251.7q-1 0.5-2.1 0.5c-2.8 0.1-5.1-2.1-5.1-4.8l-0.8-28.2c0-2.8 2.1-5 4.9-5.1 2.7-0.1 5 2.1 5.1 4.8l0.7 28.2c0 2-1.1 3.7-2.7 4.6z"/>
					<path id="&lt;Path&gt;" class="s12" d="m1828.6 1248.1q-1.1 0.1-2.2-0.4c-2.4-1.2-3.5-4.1-2.4-6.6l12-25.6c1.1-2.5 4.1-3.5 6.5-2.4 2.5 1.2 3.6 4.1 2.5 6.6l-12 25.6c-0.8 1.8-2.6 2.8-4.4 2.8z"/>
					<path id="&lt;Path&gt;" class="s11" d="m1890.1 1175.7q0-1.1 0.6-2.1c1.2-2.5 4.2-3.5 6.6-2.2l25.2 12.6c2.5 1.2 3.5 4.2 2.2 6.7-1.2 2.4-4.2 3.4-6.6 2.2l-25.2-12.6c-1.8-0.9-2.8-2.7-2.8-4.6z"/>
					<path id="&lt;Path&gt;" class="s12" d="m1777.9 1182.6q-0.7-0.8-1.1-1.9c-0.9-2.6 0.5-5.4 3.1-6.3l26.8-8.8c2.6-0.9 5.4 0.5 6.3 3.1 0.8 2.6-0.6 5.4-3.2 6.3l-26.7 8.9c-1.9 0.6-3.9 0-5.2-1.3z"/>
					<path id="&lt;Path&gt;" class="s13" d="m1853 1185.4q-1 0.5-2.2 0.5c-2.7 0-4.9-2.2-4.9-5l-0.1-28.2c0-2.7 2.2-4.9 4.9-4.9 2.8 0 5 2.2 5 4.9l0.1 28.2c0 2-1.2 3.7-2.8 4.5z"/>
					<path id="&lt;Path&gt;" class="s10" d="m1750.1 1074q0.8-0.8 1.9-1.1c2.6-0.9 5.4 0.5 6.2 3.1l8.9 26.8c0.9 2.6-0.5 5.4-3.1 6.3-2.6 0.8-5.4-0.6-6.3-3.2l-8.9-26.7c-0.6-1.9 0-3.9 1.3-5.2z"/>
					<path id="&lt;Path&gt;" class="s11" d="m1811.6 1040.7q1.1-0.2 2.2 0.1c2.7 0.7 4.3 3.4 3.6 6l-6.8 27.4c-0.7 2.6-3.4 4.2-6 3.6-2.7-0.7-4.3-3.4-3.7-6.1l6.9-27.3c0.5-1.9 2-3.3 3.8-3.7z"/>
					<path id="&lt;Path&gt;" class="s13" d="m1822.5 1117.5q0.7 0.9 0.9 2c0.7 2.7-1 5.3-3.7 6l-27.4 6.5c-2.7 0.6-5.3-1.1-6-3.7-0.6-2.7 1.1-5.4 3.7-6l27.5-6.5c1.9-0.5 3.8 0.3 5 1.7z"/>
					<path id="&lt;Path&gt;" class="s10" d="m1839.6 848.1q0.2-1.1 0.9-2c1.6-2.2 4.7-2.7 6.9-1.1l22.9 16.4c2.2 1.6 2.7 4.7 1.1 6.9-1.6 2.3-4.7 2.8-6.9 1.2l-22.9-16.5c-1.6-1.1-2.3-3.1-2-4.9z"/>
					<path id="&lt;Path&gt;" class="s11" d="m1797.1 905.7q-0.6-0.9-0.8-2c-0.5-2.8 1.4-5.3 4.1-5.7l27.8-4.6c2.7-0.4 5.2 1.4 5.7 4.1 0.4 2.7-1.4 5.3-4.1 5.7l-27.8 4.6c-2 0.3-3.9-0.6-4.9-2.1z"/>
					<path id="&lt;Path&gt;" class="s12" d="m1862.1 892.1q0.9-0.6 2-0.8c2.7-0.4 5.3 1.4 5.7 4.1l4.6 27.8c0.4 2.8-1.4 5.3-4.1 5.8-2.8 0.4-5.3-1.4-5.8-4.2l-4.5-27.8c-0.3-1.9 0.6-3.8 2.1-4.9z"/>
					<path id="&lt;Path&gt;" class="s13" d="m1803.9 937.7q0.8 0.7 1.3 1.7c1.2 2.5 0.1 5.5-2.4 6.6l-25.6 11.9c-2.5 1.1-5.4 0-6.6-2.4-1.1-2.5 0-5.5 2.5-6.6l25.5-11.9c1.8-0.8 3.9-0.5 5.3 0.7z"/>
					<path id="&lt;Path&gt;" class="s10" d="m1746.2 966.4q0.9-0.6 2.1-0.8c2.7-0.3 5.2 1.6 5.6 4.3l3.7 27.9c0.4 2.8-1.6 5.3-4.3 5.6-2.7 0.4-5.2-1.5-5.6-4.2l-3.7-28c-0.3-2 0.7-3.8 2.2-4.8z"/>
					<path id="&lt;Path&gt;" class="s12" d="m1785.2 1030.8q-1.1 0-2.1-0.5c-2.4-1.2-3.4-4.2-2.2-6.7l12.7-25.1c1.2-2.5 4.2-3.5 6.6-2.3 2.5 1.3 3.5 4.3 2.2 6.7l-12.6 25.2c-0.9 1.8-2.7 2.8-4.6 2.7z"/>
					<path id="&lt;Path&gt;" class="s11" d="m1834.1 956.5q0.3-1.1 1.1-1.9c1.8-2.1 5-2.2 7-0.4l20.9 18.9c2 1.9 2.2 5 0.4 7.1-1.9 2-5 2.1-7.1 0.3l-20.9-18.9c-1.4-1.4-1.9-3.4-1.4-5.1z"/>
					<path id="&lt;Path&gt;" class="s11" d="m2187.9 1262.6q1-0.5 2.2-0.5c2.7 0 4.9 2.3 4.9 5l-0.2 28.2c0 2.7-2.3 4.9-5 4.9-2.8 0-5-2.2-4.9-5l0.2-28.2c0-1.9 1.2-3.7 2.8-4.4z"/>
					<path id="&lt;Path&gt;" class="s10" d="m2317.8 1195.6q0.8-0.7 1.9-1.1c2.6-0.8 5.4 0.6 6.3 3.2l8.7 26.8c0.8 2.6-0.6 5.4-3.2 6.3-2.6 0.8-5.4-0.6-6.3-3.2l-8.7-26.8c-0.6-1.9 0-3.9 1.3-5.2z"/>
					<path id="&lt;Path&gt;" class="s10" d="m2244.2 1259.3q-1-0.2-1.9-0.9c-2.1-1.7-2.5-4.9-0.8-7l17.7-22c1.7-2.1 4.8-2.5 6.9-0.8 2.2 1.8 2.5 4.9 0.8 7l-17.6 22c-1.3 1.6-3.2 2.2-5.1 1.7z"/>
					<path id="&lt;Path&gt;" class="s12" d="m2285.2 1176.7q0.7 0.7 1 1.8c0.8 2.7-0.6 5.4-3.3 6.2l-26.9 8.3c-2.7 0.8-5.4-0.7-6.2-3.3-0.8-2.6 0.6-5.4 3.3-6.2l26.9-8.3c1.9-0.5 3.9 0.1 5.2 1.5z"/>
					<path id="&lt;Path&gt;" class="s12" d="m2309.8 1092.9q-1 0-2.1-0.4c-2.5-1.1-3.7-4-2.6-6.5l11-26c1.1-2.5 4-3.6 6.5-2.6 2.6 1.1 3.7 4 2.7 6.5l-11.1 26c-0.8 1.8-2.5 2.9-4.4 3z"/>
					<path id="&lt;Path&gt;" class="s11" d="m2309.9 1160.4q-0.9-0.5-1.6-1.4c-1.5-2.3-0.9-5.4 1.4-6.9l23.3-15.9c2.3-1.5 5.4-0.9 6.9 1.4 1.5 2.2 0.9 5.3-1.3 6.9l-23.4 15.8c-1.6 1.1-3.7 1.1-5.3 0.1z"/>
					<path id="&lt;Path&gt;" class="s10" d="m2303.3 1146.9q-0.6 0.9-1.6 1.5c-2.4 1.4-5.4 0.6-6.8-1.8l-14.1-24.4c-1.4-2.4-0.5-5.4 1.8-6.8 2.4-1.3 5.4-0.5 6.8 1.8l14.1 24.4c1 1.8 0.9 3.8-0.2 5.3z"/>
					<path id="&lt;Path&gt;" class="s11" d="m2277.1 981.1q-1-0.5-1.6-1.5c-1.4-2.3-0.8-5.4 1.6-6.8l23.8-15.1c2.3-1.4 5.4-0.7 6.9 1.6 1.4 2.3 0.7 5.4-1.6 6.8l-23.8 15.1c-1.7 1-3.8 0.9-5.3-0.1z"/>
					<path id="&lt;Path&gt;" class="s10" d="m2280.9 957.8q-0.6 0.9-1.6 1.5c-2.5 1.3-5.5 0.4-6.8-2.1l-13.3-24.8c-1.2-2.4-0.3-5.5 2.1-6.7 2.4-1.3 5.4-0.4 6.7 2l13.3 24.8c0.9 1.8 0.7 3.9-0.4 5.3z"/>
					<path id="&lt;Path&gt;" class="s13" d="m2314.5 921.4q0.1-1 0.7-2c1.4-2.4 4.4-3.2 6.8-1.8l24.3 14.3c2.4 1.3 3.2 4.4 1.8 6.8-1.4 2.3-4.5 3.1-6.8 1.7l-24.4-14.2c-1.7-1-2.6-2.9-2.4-4.8z"/>
					<path id="&lt;Path&gt;" class="s12" d="m2243.7 868.1l-9.2 20.9c-1.1 2.5 0 5.5 2.5 6.6q1.1 0.4 2.1 0.4c1.9 0 3.6-1.1 4.4-3l11.5-25.7q0.4-1 0.4-1.9-5.7 1.8-11.7 2.7z"/>
					<path id="&lt;Path&gt;" class="s11" d="m2304.3 856.5q-3.2 0-6.3-0.3-0.7 0.6-1.3 1.4l-14.8 24c-1.4 2.3-0.7 5.4 1.6 6.8q1 0.6 2.1 0.7c1.8 0.2 3.7-0.6 4.7-2.3l14.9-24c1.3-2 0.8-4.7-0.9-6.3z"/>
					<path id="&lt;Path&gt;" class="s10" d="m2057.1 756.5l-9.6 9.8c-1.9 1.9-1.8 5.1 0.1 7 2 1.9 5.1 1.9 7-0.1l13.3-13.5q-5.5-1.2-10.8-3.2z"/>
					<path id="&lt;Path&gt;" class="s11" d="m1863 811q-1-0.3-1.8-1.1c-2-1.9-2-5.1 0-7l19.8-20.1c1.9-1.9 5.1-1.9 7 0 2 1.9 2 5.1 0.1 7l-19.9 20.1c-1.4 1.4-3.4 1.8-5.2 1.1z"/>
					<path id="&lt;Path&gt;" class="s12" d="m1907.7 761.9q0.3-1 1.1-1.8c2-2 5.1-2 7.1-0.1l20 19.9c1.9 1.9 1.9 5 0 7-1.9 1.9-5.1 2-7 0l-20-19.8c-1.4-1.4-1.8-3.5-1.2-5.2z"/>
					<path id="&lt;Path&gt;" class="s10" d="m2000.9 753.1q-0.9 0.7-2 1c-2.6 0.6-5.3-1-6-3.6l-6.8-27.4c-0.7-2.7 0.9-5.3 3.6-6 2.7-0.7 5.4 0.9 6 3.6l6.8 27.4c0.5 1.9-0.2 3.8-1.6 5z"/>
					<path id="&lt;Path&gt;" class="s11" d="m1774.9 800.7q1.1-0.2 2.2 0c2.6 0.7 4.3 3.4 3.6 6.1l-6.9 27.3c-0.6 2.7-3.3 4.3-6 3.6-2.6-0.6-4.3-3.3-3.6-6l6.9-27.3c0.4-2 2-3.3 3.8-3.7z"/>
					<path id="&lt;Path&gt;" class="s13" d="m1794.1 872.6q0.7 0.8 1 1.9c0.6 2.7-1 5.4-3.7 6l-27.4 6.5c-2.7 0.7-5.4-1-6-3.7-0.6-2.6 1-5.3 3.7-5.9l27.4-6.5c1.9-0.5 3.9 0.2 5 1.7z"/>
					<path id="&lt;Path&gt;" class="s13" d="m1766.2 935.7q-0.3 1.1-1.1 1.9c-1.8 2.1-4.9 2.3-7 0.5l-21.2-18.6c-2-1.8-2.3-4.9-0.4-7 1.8-2.1 4.9-2.3 7-0.5l21.2 18.6c1.5 1.3 2 3.3 1.5 5.1z"/>
					<path id="&lt;Path&gt;" class="s10" d="m1707.8 971.9q-0.9 0.6-2 0.8c-2.7 0.4-5.2-1.5-5.6-4.2l-4.1-27.9c-0.3-2.7 1.5-5.2 4.3-5.6 2.7-0.4 5.2 1.4 5.6 4.2l4 27.9c0.3 1.9-0.6 3.8-2.2 4.8z"/>
					<path id="&lt;Path&gt;" class="s11" d="m1690.9 1013.6q1.1-0.2 2.2 0.1c2.7 0.7 4.3 3.4 3.6 6l-6.8 27.4c-0.7 2.6-3.4 4.2-6.1 3.6-2.6-0.7-4.3-3.4-3.6-6l6.9-27.4c0.5-1.9 2-3.3 3.8-3.7z"/>
					<path id="&lt;Path&gt;" class="s13" d="m1701.8 1090.4q0.6 0.9 0.9 2c0.6 2.7-1 5.3-3.7 6l-27.4 6.5c-2.7 0.6-5.4-1-6-3.7-0.6-2.7 1-5.4 3.7-6l27.4-6.5c2-0.4 3.9 0.3 5.1 1.7z"/>
					<path id="&lt;Path&gt;" class="s12" d="m1682.5 1195.5q-1-0.2-1.9-0.9c-2.2-1.6-2.7-4.7-1-6.9l17-22.5c1.7-2.2 4.8-2.6 7-1 2.1 1.7 2.6 4.8 0.9 7l-17 22.5c-1.2 1.6-3.1 2.2-5 1.8z"/>
					<path id="&lt;Path&gt;" class="s13" d="m1739.9 1213.9q-0.1-1.1 0.3-2.2c1-2.5 3.9-3.8 6.5-2.8l26.2 10.4c2.6 1 3.8 3.8 2.8 6.4-1 2.6-3.9 3.8-6.4 2.8l-26.3-10.3c-1.8-0.8-3-2.5-3.1-4.3z"/>
					<path id="&lt;Path&gt;" class="s11" d="m1748.4 1171.4q-1 0.5-2.1 0.5c-2.8 0.1-5-2.1-5.1-4.8l-0.7-28.2c-0.1-2.7 2.1-5 4.8-5.1 2.7-0.1 5 2.1 5.1 4.8l0.7 28.2c0.1 2-1 3.7-2.7 4.6z"/>
					<path id="&lt;Path&gt;" class="s10" d="m1864.2 1289.3q0.8-0.8 1.8-1.2c2.7-0.8 5.5 0.6 6.3 3.2l8.7 26.8c0.8 2.7-0.6 5.5-3.2 6.3-2.6 0.9-5.4-0.6-6.2-3.2l-8.7-26.8c-0.7-1.9-0.1-3.9 1.3-5.1z"/>
					<path id="&lt;Path&gt;" class="s12" d="m1822.2 1285q0.7 0.8 1 1.9c0.9 2.6-0.6 5.4-3.2 6.2l-27 8.2c-2.6 0.8-5.4-0.6-6.2-3.3-0.8-2.6 0.7-5.4 3.3-6.2l26.9-8.2c1.9-0.6 3.9 0 5.2 1.4z"/>
					<path id="&lt;Path&gt;" class="s12" d="m2117.1 1368.1q1.1 0.1 2 0.7c2.4 1.3 3.2 4.4 1.8 6.7l-14.2 24.4c-1.3 2.4-4.4 3.2-6.8 1.8-2.3-1.4-3.1-4.4-1.7-6.8l14.2-24.4c1-1.7 2.8-2.6 4.7-2.4z"/>
					<path id="&lt;Path&gt;" class="s11" d="m2020 1375.6q-0.9 0.5-2.1 0.5c-2.7 0.1-5-2.1-5.1-4.8l-0.7-28.2c-0.1-2.7 2.1-5 4.8-5.1 2.8-0.1 5.1 2.1 5.1 4.9l0.8 28.1c0 2-1.1 3.8-2.8 4.6z"/>
					<path id="&lt;Path&gt;" class="s10" d="m2087.3 1312.8q0.4-1 1.2-1.8c2-1.9 5.1-1.9 7.1 0.1l19.7 20.2c1.9 1.9 1.8 5.1-0.1 7-2 1.9-5.1 1.9-7.1-0.1l-19.6-20.2c-1.4-1.4-1.8-3.4-1.2-5.2z"/>
				</g>
				<g id="&lt;Group&gt;">
					<path id="&lt;Path&gt;" class="s5" d="m1807.8 916.5c8.9 30-8.3 61.6-38.4 70.5-30.1 8.9-61.7-8.2-70.6-38.3-8.9-30.1 8.3-61.7 38.4-70.6 30.1-8.9 61.7 8.3 70.6 38.4z"/>
					<path id="&lt;Path&gt;" class="s14" d="m1776.5 910c5.2 17.5-4.8 35.8-22.2 41-17.5 5.1-35.9-4.8-41-22.3-5.2-17.5 4.8-35.8 22.3-41 17.4-5.1 35.8 4.8 40.9 22.3z"/>
				</g>
				<g id="&lt;Group&gt;">
					<path id="&lt;Path&gt;" class="s5" d="m2249.2 897.7c8.9 30.1-8.2 61.7-38.3 70.6-30.1 8.9-61.7-8.3-70.6-38.4-8.9-30.1 8.2-61.7 38.3-70.6 30.1-8.9 61.7 8.3 70.6 38.4z"/>
					<path id="&lt;Path&gt;" class="s14" d="m2220.3 888.5c5.2 17.4-4.8 35.8-22.2 41-17.5 5.1-35.9-4.9-41-22.3-5.2-17.5 4.8-35.8 22.2-41 17.5-5.2 35.9 4.8 41 22.3z"/>
				</g>
				<path id="&lt;Path&gt;" class="s15" d="m1962.4 928.1c-78.3 2.5-191.3 76.5-184.5 186.4 6.8 109.8 130 31.8 194.1 31.8 78.2 0 212.2 75.9 208.5-48.7-3.6-124.7-114.1-172.7-218.1-169.5z"/>
				<path id="&lt;Path&gt;" class="s5" d="m1735.3 1021.3c-14 0-26.3-3.6-36.7-10.9-23.9-16.7-28.8-46.2-29-47.5-0.3-2.2 1.2-4.2 3.4-4.5 2.2-0.4 4.2 1.1 4.6 3.3 0 0.3 4.6 27.5 25.6 42.2 13 9 29.5 11.5 49.3 7.6 2.2-0.5 4.3 1 4.7 3.1 0.4 2.2-1 4.3-3.1 4.7q-9.8 2-18.8 2z"/>
				<path id="&lt;Path&gt;" class="s5" d="m2211.1 999q-8.9 0-18.7-1.9c-2.2-0.5-3.6-2.6-3.1-4.7 0.4-2.2 2.5-3.6 4.7-3.2 19.7 4 36.3 1.4 49.2-7.6 21.1-14.7 25.7-41.9 25.7-42.2 0.4-2.2 2.4-3.6 4.6-3.3 2.2 0.3 3.7 2.4 3.3 4.6-0.2 1.2-5 30.8-28.9 47.4-10.4 7.3-22.7 10.9-36.8 10.9z"/>
				<path id="&lt;Path&gt;" class="s16" d="m1962.4 928.1c-28.2 0.9-60.9 11.1-90.9 28.8 4 2.5 8.2 4.5 12.6 6 13 4.6 28.1 4.1 39.5-3.7 4.8-3.3 9.4-8 15.2-7.8 6.5 0.3 11 6.8 16.5 10.5 10.5 7 24.5 3.5 36.1-1.5 11.6-4.9 23.7-11.1 36-8.6 8.2 1.7 15.2 7 23.3 9.3 13 3.8 26.1-0.8 38.3-7.7-37.7-18.9-82.7-26.6-126.6-25.3z"/>
				<path id="&lt;Path&gt;" class="s5" d="m2478 1510.8c-1.7-0.8-3.5-1.3-5.2-1.3q0.6-2.8 0.8-5.6c1.3-14.8-7.6-33.8-24-34.7-7.6-0.4-12.7 6.4-13.3 13.3-0.4 4.4 1.5 8.2 2.4 12.4 0.2 0.9 0.3 1.3 0.4 1.5-0.1 0.2-0.2 0.6-0.2 1.7 0 0.3-1 5.2-0.4 2.9-0.3 1.2-0.3 1.6-0.2 1.6-0.1 0.1-0.4 0.5-0.9 1.2 0.8-1.2-2.2 2.2-2.5 2.4-0.8 0.7-3.9 2.1-6.6 3.1-6.5 2.3-15.7 4.4-21.1 4.9-1.4 0.2-2.9 0.1-4.4-0.1q-0.1 0-0.1-0.1c-4.4-6.4-9.8-11.4-15.9-14.9q0.1-0.1 0.3-0.2c5.2-4.1 9.8-6.8 16.5-6 7.9 1.1 14.8-7.5 14.8-14.8 0.1-8.7-6.8-14-14.8-14.8-20.6-2.1-39 14.1-50 30.6q-4 0.9-7.8 2.4c-4.6-5.8-7.9-13-10.1-20.5-3.9-13.5-5-27.5-6-41.5q-1.9-26-3.3-52.2c-2.7-47.4-4.5-94.9-5.9-142.4-2.2-4.3-4.6-8.5-7.2-12.6q-2.1-2.3-4.4-4.5-0.8-0.5-1.5-0.9-0.2-0.1-0.4-0.1-0.9 0-1.9 0-2.7 0.6-5.3 1.5-1.4 0.7-2.7 1.5-1.7 1.7-3.3 3.4-2.5 3.9-4.6 8.1-1 2.7-1.8 5.5 0.4 21.5 1.2 43.1c1.4 36.7 3.1 73.4 5.4 110.1 2.1 34.6 1.1 72.7 15.5 104.9 5.2 11.5 13 21.5 22.8 29.2q0.2 0.2 0.4 0.4c1.8 1.8 3.7 3 5.7 3.9q2.4 1.5 5 2.9c9.2 5 18.8 7.5 28.5 7.5q1.4 0.7 2.8 1.4c6.8 3.4 13.8 6.4 20.9 8.9 13.1 4.6 27.2 7.5 41.1 7.1 13.7-0.3 29.4-3.4 40.1-12.4 10.5-8.7 17.1-30.5 1.2-37.8z"/>
				<path id="&lt;Path&gt;" class="s5" d="m2451.6 1641.2c-0.1 0-0.1 0.1 0 0.1 0 0 0-0.1 0-0.1z"/>
			</g>
			<g id="&lt;Group&gt;">
				<path id="&lt;Path&gt;" class="s5" d="m395.8 1328.3c-17.2-6.9-35.2-4.4-52.8-0.4-17.8 4.1-34.5 11.9-50.1 21.3-21.3 12.8-39.9 29.9-54.5 49.9-10.2-14.4-21.3-27.9-33.4-40.8-15.1-16.1-31.9-33.1-54.4-37.9-13.2-2.8-27.1 1.3-34.3 13.2-6.9 11.3-5.5 24.9 0.8 36.1 5.6 9.8 14.2 18 22.3 25.7 7.6 7.3 15.7 14.1 24.3 20.3 20.2 14.7 42.3 26.4 66 34.5 8.8 3 18.3 0.7 22.7-8.3 12.9-26.8 33.3-49.5 58.6-65.7 12.5-8.1 26-13.7 40-18.7 14.6-5.3 30-7.2 44.2-13.3 6.5-2.7 7.8-13 0.6-15.9z"/>
				<path id="&lt;Path&gt;" class="s5" d="m595.4 366.4c-14.1-0.6-30.7 5.9-42 14.2q-1.4 1-2.8 2.2c-1.8-3.3-3.9-6.5-6.6-9.3q-1.3-1.4-2.6-2.6 0.5-0.5 0.9-1c7.7-8.4 16.2-16.2 25.4-22.8 7.8-5.6 11.4-15 5.2-23.6-5.9-8.2-16.4-8.4-24-2.3-10.7 8.5-20.1 18.3-28.7 29-2.4 3-4.6 6.1-6.6 9.3q-0.1 0-0.2 0c0.6-3.4 1.3-6.8 2.2-10.1 3.4-12.5 8.1-25.3 15.3-36.2 15.3-10.2 0.9-35.5-16.5-26.5-9.2 4.7-13.5 15.7-17.6 24.7-3.9 8.6-7 17.5-9 26.8-2 9.3-3.5 18.9-3.6 28.3q0 0.7 0 1.4c-3.2 2.3-6.2 5-8.7 8.2-4.3-10.4-7.6-20.9-9.8-32-3.8-19.7-35.6-12.2-30.5 7.5 3.8 14.8 9 29.6 16.7 42.9 4.7 8.2 10.2 16.7 17.3 23.4 1.5 4.1 3.6 7.9 6.3 11.3-6.6 12.5-10.5 26.7-12.4 40.5-4.5 34.1 5.8 69.3-6.9 102.3-4.9 12.7-13 24.3-23 33.5-11.4 10.6-25.4 17.3-39.1 24.3-14.8 7.6-29.4 15.6-41.9 26.8-11.2 10.1-20.6 22.4-28.1 35.4-8.5 15-15 31.1-19.9 47.6-5 16.7-10 34.4-10.8 51.8-0.2 6.6 4.8 12.5 11.2 13.5 7.1 1 12.2-2.9 14.9-9.1 5.9-13.3 8.8-27.8 13.4-41.6 4.3-13 9.1-26.1 15.6-38.2 6.3-12 13.7-23 23.5-32.2 10.9-10.3 23.9-17.1 37.2-23.7 28.5-14.3 54.4-30.7 70.7-59.1 8.3-14.6 13.4-30.3 15.7-46.9 2.5-17.9 1.1-35.9 0.6-53.8-0.4-17 0-31.3 5.5-46.6q1.7-4.7 3.9-8.8c7.3 2 15.3 1.6 22.4-0.9 14-4.9 23-16.3 26.2-29.3 5.1-3 9.9-6.4 15-8.7 9.9-4.5 19.2-5.5 29.6-7.5 18.4-3.5 14.7-31.4-3.4-32.1z"/>
				<path id="&lt;Compound Path&gt;" fill-rule="evenodd" class="s17" d="m893.7 960.7c19.8 208.7-133.3 394-342.1 413.8-208.7 19.8-394-133.3-413.8-342-19.9-208.7 133.2-394 342-413.8 208.7-19.8 394 133.3 413.9 342zm-242.2 6.2c-7.3-75.9-74.6-131.5-150.4-124.3-75.9 7.2-131.5 74.5-124.3 150.4 7.2 75.8 74.5 131.5 150.4 124.3 75.8-7.3 131.5-74.6 124.3-150.4z"/>
				<path id="&lt;Path&gt;" class="s18" d="m848 812.8c3.8 31.1 17.3 168.2-75.6 294.6-19.1 26-85.3 109.5-203.5 145.7-203.3 62.4-375.5-71.6-391.9-84.8 68.6 135.1 214.7 221.4 374.6 206.2 208.8-19.8 361.9-205.1 342.1-413.8-5.1-53.7-21.2-103.6-45.7-147.9z"/>
				<path id="&lt;Path&gt;" class="s19" d="m375.8 660.1c-26.1 9.8-115.2 52.3-152.7 134.7-37.5 82.4 6.1 96-1.6 149.9-7.6 54-58.1 93.3-43.4 134.2 14.8 41 102-15.9 91.8-113.5-10.2-97.6 62-191.8 62-191.8 0 0 142.1-59.7 141.6-81.4-0.6-21.7-9.5-65-97.7-32.1z"/>
				<path id="&lt;Path&gt;" class="s19" d="m560.4 679.6c4 3.3 15.8 12.5 47.5 16.6 37.5 4.8 42.5-5.4 67.8-0.8 39.5 7.1 60.5 38 65.4 33.5 3.5-3.4-5.7-22.6-20.4-37.5-22.8-23.2-59.6-36.8-94.8-33.4-22.1 2.1-29.4 9.6-47.3 4.9-23.3-6.3-34.4-25.2-38.1-22.4-3.7 2.8 3.2 24.7 19.9 39.1z"/>
				<path id="&lt;Compound Path&gt;" fill-rule="evenodd" class="s20" d="m814.3 964.5c-4.9 8-12.7 23.2-14.8 43.8-2.4 23.3 3.7 41.5 7.3 50.3 2.4 5.4 12.3 28.9 2.8 56.1-12.2 35.2-46.4 46.3-50.2 47.4-7.8 2-26.2 7.7-42.7 24.5-16.2 16.6-21.7 34.9-23.5 42.8-2 6.1-10.6 29.3-35.2 43.6-31.3 18.1-63.2 6.9-67.6 5.2-11.2-2.5-28-5-48.3-3-19.7 1.9-35.3 7.4-45.7 11.9-4.1 2.8-28.2 18-59.5 10.7-33.5-7.8-48.5-35.2-50.6-39.3-3.1-7.4-11-23.5-28.6-36.5-20.3-15.1-41.3-16.8-49.2-17-1.6 0.1-39 1.8-60-29.4-19.6-29.3-6.9-61-5.9-63.4 2.2-8.3 6.2-28.4-1.3-52.1-6.2-20-17.7-32.8-23.8-38.8-1.5-1-31-21.2-29.5-57.1 1.1-24.3 16-46.2 38.5-56.4 6.8-4.5 23.5-16.9 33.2-40 8.3-20 7.1-37.7 6.1-45.8-0.4-5-1.7-33.1 19.5-56.4 23.6-25.9 55.9-24.9 60.3-24.7 8.1 0.9 27.5 1.9 48.9-8.4 20.8-10.1 32-25.3 36.4-32.1 2.6-3.9 19.3-27.4 51-31.8 35.3-4.8 59.5 18.3 62.3 21 8.2 6.2 22.6 15.5 42.7 20.8 20.7 5.5 38.4 4.4 48.7 3 2.9-1.3 32.9-13.5 61.8 4.2 20.6 12.6 32.8 35.8 31.9 60.3 1.9 9.7 6.4 26.3 18.3 43.5 12.7 18.2 27.8 28.4 36.4 33.4 3 0.9 33.8 9.9 45.2 40.9 8.6 23.4 2.8 50.2-14.9 68.8zm-162.8 2.4c-7.3-75.9-74.6-131.5-150.4-124.3-75.9 7.2-131.5 74.5-124.3 150.4 7.2 75.8 74.5 131.5 150.4 124.3 75.8-7.3 131.5-74.6 124.3-150.4z"/>
				<path id="&lt;Compound Path&gt;" fill-rule="evenodd" class="s21" d="m711.3 961.2c10.3 108.9-69.6 205.5-178.4 215.9-108.9 10.3-205.6-69.6-215.9-178.4-10.4-108.9 69.5-205.5 178.4-215.9 108.9-10.3 205.5 69.5 215.9 178.4zm-59.8 5.7c-7.3-75.9-74.6-131.5-150.4-124.3-75.9 7.2-131.5 74.5-124.3 150.4 7.2 75.8 74.5 131.5 150.4 124.3 75.8-7.3 131.5-74.6 124.3-150.4z"/>
				<path id="&lt;Path&gt;" class="s22" d="m366.4 778.7c-42.4 20.7-43.4 72.2-43.1 122.4 0.4 50.2-36.6 80.7-37.7 100.5-1.1 19.9 18.4 22.9 41-3.8 22.6-26.8 19.1-125.5 79.9-154.9 60.8-29.4 115.1-33.1 148.4-24.4 33.4 8.6 53-18.4 8-40.7-45-22.3-91.1 5.7-118.2 0.9-27-4.8-55.7-11-78.3 0z"/>
				<path id="&lt;Path&gt;" class="s22" d="m322.9 1113.9c0.9 32.9 44.7 66.7 67.1 100.1 22.4 33.3 70.8 59.8 119.4 27.1 48.6-32.7 136.1-76 188.5-84.9 52.4-9 115.3-82.2 13.2-79.1-102.1 3-96.1 80-167.3 76.4-71.2-3.5-114.5-23.9-137.5-47.9-22.9-24-85.3-58-83.4 8.3z"/>
				<path id="&lt;Path&gt;" class="s22" d="m658.2 863.3c-11.9 31.3 25.6 48.9 29.4 106.6 1.8 27-6.1 40.9 5.3 55.7 9.6 12.4 28.1 19.5 42.8 15.1 26.2-7.9 37.4-51.7 27.7-80.5-6.6-19.5-18.4-20.1-26-44.7-6.2-20.3 0.7-25.4-6.3-43.5-1.1-2.9-14.1-35.6-36.5-36.5-14.6-0.6-30.4 12.3-36.4 27.8z"/>
				<path id="&lt;Path&gt;" class="s23" d="m402.6 786.6c-11.8 5-19.3 13.2-31.7 26.9-6 6.6-11.9 15.1-15.4 26.9-9.7 32.4 32.1-22.8 72.8-31.6 40.6-8.8 89.3-11 123.9-3.7 5.4 1.2 15 1.1 16-2 1.7-5-19.3-20.7-43.2-25.1-26.9-5-31.9 9.1-69.1 9.5-29.1 0.3-35.7-8.2-53.3-0.9z"/>
				<path id="&lt;Path&gt;" class="s23" d="m689.2 878.1c1.1 15.9 13 43.5 15.4 83.7 2.3 40.3 27.4 8.3 20-38.3-7.4-46.6-37-69.9-35.4-45.4z"/>
				<path id="&lt;Path&gt;" class="s23" d="m373.1 1175.9c8.1 24 12.2 36 18.9 42.6 15.5 15.4 38.4 15.4 54.7 15.5 18.1 0 31.4-4.1 53.6-11 17.5-5.5 30-11.1 39.9-15.6 25.3-11.6 41.6-19 40.7-23.1-1.8-7.8-60.7 17.2-125.9-2.3-49.9-14.9-81.2-49.2-89.6-40.8-3 3 0.6 13.6 7.7 34.7z"/>
				<path id="&lt;Path&gt;" class="s24" d="m653.3 934.1c-7.9-36.6-25.8-72.4-56.1-94.4-46.1-33.4-113.8-27-159.4 7.1-45.5 34.2-70.2 91.1-74.9 147.9-3.9 46.8 5.1 82.4 9.9 97.9 9.1 29.9 19 41.6 23 46 19.6 21.3 44.6 27.2 60.4 30.7 12.1 2.7 74.5 13.7 130.9-21.5 73-45.6 82.8-136.1 66.2-213.7z"/>
				<path id="&lt;Path&gt;" class="s14" d="m597.2 839.7c-46.1-33.4-113.8-27-159.4 7.1-5.2 3.9-10.1 8.1-14.7 12.5 2.4 1.5 5.1 2.6 7.8 3 16.3 2.8 29.9-11.7 39.9-24.8 6.2 7.9 12.5 15.9 20.7 21.6 8.3 5.6 18.9 8.7 28.4 5.6 12.7-4.1 19.7-17.3 25.5-29.3 7.8 10.6 17.8 22.3 31 21.9 10-0.3 17.4-7.2 23-15.9-0.8-0.5-1.5-1.1-2.2-1.7z"/>
				<path id="&lt;Path&gt;" class="s14" d="m579.1 1152.4c-3-4-6.4-7.7-10.4-10.7-11.7-8.7-30.4-10-39.7 1.3-2.4 2.9-5.3 6.9-8.8 5.7-1.9-0.7-3-2.7-4.2-4.3-6.1-9-19-11.5-29.2-7.7-10.2 3.7-17.9 12.5-23 22-9-10.3-23.4-15.6-36.9-13.5-5.8 0.9-11.3 3.1-16.1 6.4 16.1 11 33.4 15 45.4 17.7 11.6 2.5 68.8 12.6 122.9-16.9z"/>
				<g id="&lt;Group&gt;">
					<path id="&lt;Path&gt;" class="s5" d="m721.8 701c11.7 29.1-2.4 62.2-31.5 73.9-29.2 11.7-62.2-2.4-73.9-31.5-11.8-29.1 2.4-62.2 31.5-73.9 29.1-11.7 62.2 2.4 73.9 31.5z"/>
					<path id="&lt;Path&gt;" class="s14" d="m690.1 697.6c6.8 16.9-1.4 36.1-18.3 42.9-16.9 6.8-36.1-1.4-42.9-18.3-6.8-16.9 1.4-36.1 18.3-42.9 16.9-6.8 36.1 1.4 42.9 18.3z"/>
				</g>
				<g id="&lt;Group&gt;">
					<path id="&lt;Path&gt;" class="s5" d="m379.8 698c11.7 29.1-2.4 62.2-31.5 73.9-29.1 11.7-62.2-2.4-73.9-31.5-11.7-29.1 2.4-62.2 31.5-73.9 29.1-11.7 62.2 2.4 73.9 31.5z"/>
					<path id="&lt;Path&gt;" class="s14" d="m348.1 694.5c6.8 16.9-1.4 36.1-18.3 42.9-16.9 6.8-36.1-1.4-42.9-18.3-6.8-16.9 1.4-36.1 18.3-42.9 16.9-6.8 36.1 1.4 42.9 18.3z"/>
				</g>
				<path id="&lt;Path&gt;" class="s5" d="m1144.3 520.1c-14.2-0.6-30.8 5.9-42 14.2q-1.4 1.1-2.9 2.2c-1.7-3.3-3.9-6.4-6.5-9.3q-1.3-1.4-2.7-2.6 0.5-0.5 1-1c7.6-8.4 16.1-16.2 25.3-22.8 7.8-5.6 11.5-15 5.3-23.6-6-8.2-16.5-8.3-24.1-2.3-10.7 8.5-20.1 18.3-28.6 29-2.4 3-4.6 6.1-6.6 9.4q-0.1-0.1-0.2-0.1c0.6-3.4 1.3-6.7 2.2-10.1 3.3-12.5 8-25.3 15.2-36.2 15.4-10.2 0.9-35.4-16.4-26.5-9.2 4.7-13.6 15.7-17.6 24.7-3.9 8.6-7.1 17.5-9.1 26.8-1.9 9.3-3.5 18.9-3.6 28.4q0 0.6 0 1.4c-3.2 2.2-6.1 4.9-8.6 8.1-4.4-10.3-7.7-20.9-9.8-31.9-3.9-19.8-35.7-12.3-30.6 7.4 3.9 14.8 9.1 29.6 16.7 42.9 4.7 8.2 10.3 16.7 17.3 23.4 1.6 4.1 3.7 7.9 6.3 11.4-6.6 12.4-10.5 26.7-12.3 40.4-4.6 34.1 5.7 69.3-6.9 102.3-4.9 12.7-13.1 24.3-23.1 33.6-11.4 10.5-25.4 17.2-39.1 24.2-14.8 7.6-29.4 15.7-41.8 26.8-11.2 10.1-20.7 22.4-28.1 35.4-8.6 15-15.1 31.1-20 47.6-4.9 16.7-10 34.4-10.7 51.9-0.3 6.5 4.8 12.5 11.2 13.4 7 1.1 12.1-2.8 14.9-9.1 5.8-13.3 8.8-27.8 13.3-41.6 4.3-13 9.2-26.1 15.6-38.2 6.3-11.9 13.8-23 23.6-32.2 10.8-10.3 23.9-17.1 37.2-23.7 28.5-14.2 54.4-30.7 70.6-59.1 8.3-14.6 13.4-30.3 15.7-46.9 2.5-17.9 1.1-35.9 0.7-53.8-0.5-17-0.1-31.3 5.4-46.6q1.7-4.7 4-8.8c7.2 2 15.2 1.6 22.4-0.9 14-4.9 22.9-16.3 26.2-29.2 5-3 9.9-6.5 15-8.8 9.8-4.5 19.2-5.5 29.6-7.5 18.3-3.5 14.6-31.4-3.4-32.1z"/>
				<path id="&lt;Path&gt;" class="s5" d="m839.8 1482.3c-4.9-10.7-13.3-20.8-20.5-30-14.1-18.2-30.1-35-47.3-50.3-6.8-6.1-17-4-22.8 2.1-2.5 2.8-5.9 3.7-9.9 4.1-5 0.4-10-0.3-15.3-1.8-10.6-2.9-21.1-9.1-29.8-15.9-9.4-7.2-17.4-15.8-24.2-25.5-7.3-10.4-11.8-22.3-18-33.3-7.4-13-26.6-3.3-25.7 9.6 1 16.9 9.9 32.8 19.6 46.3 9.2 12.9 21.1 24.4 34.3 33.2 20.7 13.8 49.8 25.4 73.7 17.4 5.1 15.6 11.3 30.7 20 44.8 10.3 16.8 31.2 40.9 53.5 31.3 12.5-5.4 17.9-19.6 12.4-32z"/>
			</g>
			<g id="&lt;Group&gt;">
				<path id="&lt;Path&gt;" class="s25" d="m354.2 1985.1c-24.1-27.6-67.7-49.4-95.2-25.2 8.3-59.3-60-106.2-119.6-100.2-48.7 5-97.6 41.7-99.6 90.6q-19.9-0.5-39.8-1v52.1h367.8c-4.5-5.6-9-11.1-13.6-16.3z"/>
				<path id="&lt;Path&gt;" class="s25" d="m1487.8 2001.4c-37.1-59.5-127.6-86.5-186.8-44.8-20.5-78.8-126.3-120.8-195.3-77.4 13.6 30.7-20.2 62.5-52.7 70.9-32.5 8.5-69.4 7-95.7 27.9-13.4-30.3-59.7-25.6-85.9-5.4-11 8.5-20.9 18.8-30.9 28.8z"/>
				<path id="&lt;Path&gt;" class="s25" d="m2601 2001.4v-144.2c-27.8-20.8-64.2-30.5-98.4-24.1-51.3 9.5-93.9 54.4-100.8 106.1-36.2-25.6-91.6-18.2-120 15.9-8.4 10-15.3 22.6-27.6 27.2-17.7 6.6-36-6.3-54-11.6-38-11.1-74 11.3-110.3 30.7z"/>
			</g>
		</g>
	</g>
</svg>