<svg version="1.2" xmlns="http://www.w3.org/2000/svg" viewBox="0 0 1000 1000" width="500" height="500">
	<title>13561282_5268329</title>
	<style>
		.s0 { fill: #93c617 } 
		.s1 { fill: #030e35 } 
		.s2 { fill: #c40223 } 
		.s3 { opacity: .2;fill: #ffffff } 
		.s4 { fill: #ffffff } 
		.s5 { fill: #ff557a } 
		.s6 { fill: #ffcf06 } 
		.s7 { opacity: .3;fill: #ff740d } 
		.s8 { fill: #ff740d } 
		.s9 { opacity: .7;fill: #ffffff } 
		.s10 { opacity: .8;fill: #030e35 } 
		.s11 { opacity: .6;fill: #ff557a } 
		.s12 { opacity: .5;fill: #ffffff } 
		.s13 { opacity: .2;fill: #93c617 } 
		.s14 { opacity: .3;fill: #c40223 } 
		.s15 { opacity: .3;fill: #ffffff } 
		.s16 { opacity: .4;fill: #ffffff } 
		.s17 { opacity: .8;fill: #ffffff } 
		.s18 { opacity: .6;fill: #030e35 } 
		.s19 { opacity: .3;fill: #030e35 } 
		.s20 { opacity: .5;fill: #030e35 } 
	</style>
	<g id="OBJECTS">
		<g id="&lt;Group&gt;">
			<path id="&lt;Path&gt;" class="s0" d="m856.3 879.7c0 8.4-61.8 15.2-138 15.2-76.2 0-138-6.8-138-15.2 0-8.4 61.8-15.2 138-15.2 76.2 0 138 6.8 138 15.2z"/>
			<g id="&lt;Group&gt;">
				<path id="&lt;Path&gt;" class="s1" d="m640.1 789.7l-17.9 20.3 2.6-29.2-17.5 8c0 0 13.7-19.6 11.3-21.5-2.3-1.9-14.9 21.4-14.9 21.4 0 0 8.1-28 3.6-26.8-4.5 1.1-7.3 29.5-7.3 29.5 0 0 1.9-31.2-2.2-28.4-4 2.9-1.1 36.4-1.1 36.4l21.2-9.5 1.2 30.1z"/>
				<path id="&lt;Path&gt;" class="s1" d="m814.7 789.7l17.9 20.3-2.6-29.2 17.5 8c0 0-13.7-19.6-11.3-21.5 2.3-1.9 14.9 21.4 14.9 21.4 0 0-8.1-28-3.6-26.8 4.5 1.1 7.3 29.5 7.3 29.5 0 0-1.8-31.2 2.2-28.4 4 2.9 1.1 36.4 1.1 36.4l-21.2-9.5-1.2 30.1z"/>
				<path id="&lt;Path&gt;" class="s1" d="m690.7 842.2l-28.8 12 35.6 20.1c0 0-50.1-11.6-54.1 4.3 0 0 40 4.4 62.2-4.3l-35-18z"/>
				<path id="&lt;Path&gt;" class="s1" d="m748.6 845l-28.8 12 35.7 20.1c0 0-50.1-11.6-54.1 4.2 0 0 39.9 4.5 62.1-4.2l-35-18z"/>
				<g id="&lt;Group&gt;">
					<g id="&lt;Group&gt;">
						<path id="&lt;Path&gt;" class="s2" d="m887.5 687.9c0 0-61.9 59.1-105.4 155.4l-131.8-6.1c0 0-20.8-133.7-9.9-187.5l9.9 10.4 11.3 11.8c0 0 1.9-13.8 8.1-15.2 6.1-1.4 11.3 10 11.3 10 0 0 2.2-3.5 5.4-7.8 5.4-7.2 13.5-16.5 18.2-14.5 7.6 3.4-0.9 27.5-0.9 27.5 0 0 27.4-22.7 32.1-19.9 4.7 2.8-5.7 19.9-5.7 19.9 0 0 40.2-22.7 44.9-18.9 4.6 3.6-4 15.4-4.7 16.4 0.9-0.4 15.8-8.4 21.7-7 6.2 1.4-5.7 15.6-5.7 15.6 0 0 39.3-17 44.9-12.3 5.6 4.6-8.6 21.3-9.4 22.2 0.9-0.6 17.6-11.7 21.7-8 4.3 3.8-6.1 16.7-6.1 16.7 0 0 5.1-2.5 12.7-5 8-2.6 18.7-5.2 28.8-4.8 2.9 0.1 5.8 0.4 8.6 1.1z"/>
						<path id="&lt;Path&gt;" class="s3" d="m777.4 836.3l-123.2-4.1-6.9-65.9c0 0 28.5-17.1 78.1-15.2 111.5 4.5 52 85.2 52 85.2z"/>
					</g>
					<g id="&lt;Group&gt;">
						<path id="&lt;Path&gt;" class="s1" d="m747.3 820l-18.6-4.4-17.1-55.8c6.4-3.2 16.4-4.2 26.7 9.1 17.5 22.7 9 51.1 9 51.1z"/>
						<path id="&lt;Path&gt;" class="s1" d="m704.2 765c1.1-1.6 2.6-3 4.1-4.3 1.6-1.2 3.3-2.3 5.3-3.1 1.9-0.8 4-1.2 6.1-1.3 1.1-0.1 2.1 0 3.2 0.1l3.1 0.8c2 0.7 3.9 1.6 5.6 2.9 1.7 1.1 3 2.8 4.4 4.2 1.2 1.7 2.5 3.1 3.6 4.9 0.9 1.7 2.1 3.2 3 5.1 1.9 3.5 3.5 7 4.9 10.8 0.7 1.8 1.2 3.7 1.8 5.6 0.4 2 1 3.9 1.2 5.9 0.6 4 0.7 8 0.5 12q-0.1 3-0.5 6c-0.3 2-0.7 3.9-1.3 5.9l-0.5 1.9-1.9-0.5c-5-1.2-9.9-2.6-14.9-4-2.4-0.7-4.9-1.6-7.3-2.3q-3.7-1.2-7.4-2.5l0.1-0.4q3.9 0.4 7.7 1c2.5 0.5 5.1 0.8 7.6 1.3 5.1 1 10.1 1.9 15.1 3l-2.3 1.4c0.4-1.7 0.8-3.6 1.1-5.5 0.3-1.8 0.6-3.7 0.8-5.6 0.2-1.9 0.2-3.8 0.3-5.7 0-1.9 0-3.8-0.1-5.7-0.1-1.9-0.3-3.8-0.5-5.7-0.3-1.9-0.6-3.8-1.1-5.6-0.5-1.9-1-3.8-1.8-5.5-0.7-1.9-1.6-3.5-2.6-5.2-0.9-1.7-2.2-3.1-3.4-4.7-1.2-1.4-2.7-2.7-3.9-4.1l-2.3-1.7c-0.7-0.6-1.4-1.2-2.2-1.6-1.5-1-3.2-1.7-4.8-2.5l-2.5-0.7-2.7-0.3c-1.7 0.1-3.5 0.2-5.3 0.7-3.5 1-6.9 2.9-10 5.3z"/>
						<path id="&lt;Path&gt;" class="s4" d="m714.7 760l3.6 11.8h20.6c0 0-8.9-18.6-24.2-11.8z"/>
						<path id="&lt;Path&gt;" class="s5" d="m747.3 820l-13-4.4c0 0 13.5-9.7 13 4.4z"/>
					</g>
					<g id="&lt;Group&gt;">
						<path id="&lt;Path&gt;" class="s4" d="m674.5 714.8l52.7-29 51.9 35.4c0 0-18 29.1-38.4 23.2-20.4-5.9-17.1-44.2-17.1-44.2 0 0-17.2 43.2-29.3 42.5-12-0.7-19.8-27.9-19.8-27.9z"/>
						<path id="&lt;Path&gt;" class="s1" d="m718.4 704c-0.9 4.2-3.3 7.2-5.4 6.8-2-0.5-2.9-4.2-2-8.4 0.9-4.1 3.3-7.2 5.3-6.7 2.1 0.4 3 4.2 2.1 8.3z"/>
						<path id="&lt;Path&gt;" class="s1" d="m738.1 702.7c0.6 6.4-1.5 11.8-4.6 12.1-3.1 0.3-6.1-4.7-6.7-11.1-0.6-6.4 1.4-11.8 4.6-12.1 3.1-0.3 6.1 4.7 6.7 11.1z"/>
						<path id="&lt;Path&gt;" class="s1" d="m785.9 727l-58.7-41.2-60.4 34.6-7.8-11.9 69.6-25 63.3 33.7z"/>
					</g>
				</g>
				<g id="&lt;Group&gt;">
					<path id="&lt;Path&gt;" class="s6" d="m914.4 655.3l-35.5 31.5c-10.1-0.4-20.8 2.2-28.8 4.8l37-59.4c23.4 2.5 27.3 23.1 27.3 23.1z"/>
					<path id="&lt;Path&gt;" class="s7" d="m914.4 655.3l-35.5 31.5c-10.1-0.4-20.8 2.2-28.8 4.8l37-59.4c23.4 2.5 27.3 23.1 27.3 23.1z"/>
					<g id="&lt;Group&gt;">
						<path id="&lt;Path&gt;" class="s6" d="m686.4 658.9c-3.2 4.3-5.4 7.8-5.4 7.8 0 0-5.2-11.4-11.3-10-6.2 1.4-8.1 15.2-8.1 15.2l-11.3-11.8-15.6-83.9c0 0 16.6-15.2 40.1-4.6z"/>
						<path id="&lt;Path&gt;" class="s6" d="m894.1 620.9l-7 11.3-37 59.4c-7.6 2.5-12.7 5-12.7 5 0 0 10.4-12.9 6.1-16.7-4.1-3.7-20.8 7.4-21.7 8 0.8-0.9 15-17.6 9.4-22.2-5.6-4.7-44.9 12.3-44.9 12.3 0 0 11.9-14.2 5.7-15.6-5.9-1.4-20.8 6.6-21.7 7 0.7-1 9.3-12.8 4.7-16.4-4.7-3.8-44.9 18.9-44.9 18.9 0 0 10.4-17.1 5.7-19.9-4.7-2.8-32.1 19.9-32.1 19.9 0 0 8.5-24.1 0.9-27.5-4.7-2-12.8 7.3-18.2 14.5l-11.6-87.3-2.2-16.6c21.3-2.3 59.2-23 59.2-23 0 0-27.6 35.9-13.5 47.3 14.2 11.3 82.7-20.1 82.7-20.1 0 0-31.4 38.2-22.7 40.6 8.7 2.4 33.3-19.8 33.3-19.8 0 0-22.4 69.2-8 69.9 14.4 0.7 14.2-59.8 30.3-53.9 16 5.9-16.6 51.5-4.3 52.7 12.3 1.2 9.4-53.6 22.7-52.9 13.2 0.7 0 45.1 10.6 42.5 10.6-2.6 7.1-21 7.1-21 0 0 13.6 3 24.1 3.6z"/>
						<path id="&lt;Path&gt;" class="s7" d="m686.4 658.9c-3.2 4.3-5.4 7.8-5.4 7.8 0 0-5.2-11.4-11.3-10-6.2 1.4-8.1 15.2-8.1 15.2l-11.3-11.8-15.6-83.9c0 0 16.6-15.2 40.1-4.6z"/>
						<path id="&lt;Path&gt;" class="s7" d="m894.1 620.9l-7 11.3-37 59.4c-7.6 2.5-12.7 5-12.7 5 0 0 10.4-12.9 6.1-16.7-4.1-3.7-20.8 7.4-21.7 8 0.8-0.9 15-17.6 9.4-22.2-5.6-4.7-44.9 12.3-44.9 12.3 0 0 11.9-14.2 5.7-15.6-5.9-1.4-20.8 6.6-21.7 7 0.7-1 9.3-12.8 4.7-16.4-4.7-3.8-44.9 18.9-44.9 18.9 0 0 10.4-17.1 5.7-19.9-4.7-2.8-32.1 19.9-32.1 19.9 0 0 8.5-24.1 0.9-27.5-4.7-2-12.8 7.3-18.2 14.5l-11.6-87.3-2.2-16.6c21.3-2.3 59.2-23 59.2-23 0 0-27.6 35.9-13.5 47.3 14.2 11.3 82.7-20.1 82.7-20.1 0 0-31.4 38.2-22.7 40.6 8.7 2.4 33.3-19.8 33.3-19.8 0 0-22.4 69.2-8 69.9 14.4 0.7 14.2-59.8 30.3-53.9 16 5.9-16.6 51.5-4.3 52.7 12.3 1.2 9.4-53.6 22.7-52.9 13.2 0.7 0 45.1 10.6 42.5 10.6-2.6 7.1-21 7.1-21 0 0 13.6 3 24.1 3.6z"/>
					</g>
					<path id="&lt;Path&gt;" class="s8" d="m671.2 654.5l-14.8-61.1c0 0 3.2-17.4 36.3-16.5l-32.2 15z"/>
					<path id="&lt;Path&gt;" class="s8" d="m681.6 657.7l-4.7-58.3c0 0 22.2-18.9 57.4 1.6l-20.8 63.2 15.4-61.3-48.5-3.2z"/>
					<path id="&lt;Path&gt;" class="s8" d="m695.5 589l-7.6-31.5c0 0 11.8-12.6 32.4-11.3l-25.5 10.1z"/>
					<path id="&lt;Path&gt;" class="s8" d="m725.5 595v-10.4c0 0 31.4-4.9 47.2 6.9l-23.3 68.1 17.9-66.2-38.4-4.4z"/>
					<path id="&lt;Path&gt;" class="s8" d="m833.5 675.7l9.4-35.5c0 0 25.2-5.2 46 14.3l-26.6 33.9 21.5-33.9-36.2-10.3z"/>
					<path id="&lt;Path&gt;" class="s8" d="m767.7 649.9l11.4-46.1c0 0 19.3-9 36.8 1.2l-18.9 66.9 15.1-63.8-30.5-3.1z"/>
				</g>
				<g id="&lt;Group&gt;">
					<g id="&lt;Group&gt;">
						<path id="&lt;Path&gt;" class="s2" d="m905.7 619.4c-1.7 1.6-6.2 1.9-11.6 1.5-10.5-0.6-24.1-3.6-24.1-3.6 0 0 3.5 18.4-7.1 21-10.6 2.6 2.6-41.8-10.6-42.5-13.3-0.7-10.4 54.1-22.7 52.9-12.3-1.2 20.3-46.8 4.3-52.7-16.1-5.9-15.9 54.6-30.3 53.9-14.4-0.7 8-69.9 8-69.9 0 0-24.6 22.2-33.3 19.8-8.7-2.4 22.7-40.6 22.7-40.6 0 0-68.5 31.4-82.7 20.1-14.1-11.4 13.5-47.3 13.5-47.3 0 0-37.9 20.7-59.2 23-6.1 0.7-10.8-0.1-12.9-3.4-9.4-14.6 84.6-47.8 108.4-47.8 23.9 0 13.8 18.5 4.8 36-9 17.5 22.2 2.4 46.3-2.8 24.1-5.2 18.4 16.3 21.7 32.3 3.3 16.1 41.8 0.5 53.9 5.2 12 4.8-3.8 30.7-3.8 30.7 0 0 19.6 9.5 14.7 14.2z"/>
						<path id="&lt;Path&gt;" class="s7" d="m905.7 619.4c-1.7 1.6-6.2 1.9-11.6 1.5-10.5-0.6-24.1-3.6-24.1-3.6 0 0 3.5 18.4-7.1 21-10.6 2.6 2.6-41.8-10.6-42.5-13.3-0.7-10.4 54.1-22.7 52.9-12.3-1.2 20.3-46.8 4.3-52.7-16.1-5.9-15.9 54.6-30.3 53.9-14.4-0.7 8-69.9 8-69.9 0 0-24.6 22.2-33.3 19.8-8.7-2.4 22.7-40.6 22.7-40.6 0 0-68.5 31.4-82.7 20.1-14.1-11.4 13.5-47.3 13.5-47.3 0 0-37.9 20.7-59.2 23-6.1 0.7-10.8-0.1-12.9-3.4-9.4-14.6 84.6-47.8 108.4-47.8 23.9 0 13.8 18.5 4.8 36-9 17.5 22.2 2.4 46.3-2.8 24.1-5.2 18.4 16.3 21.7 32.3 3.3 16.1 41.8 0.5 53.9 5.2 12 4.8-3.8 30.7-3.8 30.7 0 0 19.6 9.5 14.7 14.2z"/>
					</g>
					<path id="&lt;Path&gt;" class="s3" d="m811.7 589c0 0-15 51.3-9.4 55.2 5.5 3.9 9.4-55.2 9.4-55.2z"/>
					<path id="&lt;Path&gt;" class="s3" d="m707.4 534.8c1.1 2.7-7.5 8.6-19 13.2-11.6 4.6-21.9 6-23 3.3-1.1-2.8 7.4-8.7 19-13.3 11.6-4.5 21.9-6 23-3.2z"/>
					<path id="&lt;Path&gt;" class="s3" d="m730.8 540.2c0 0-20.8 31.4-7.6 36.6 13.2 5.3 47.9-9 47.9-9 0 0-67.7 22.5-40.3-27.6z"/>
					<path id="&lt;Path&gt;" class="s3" d="m818.3 543c0 0 15.5 2.2 15.2 29.3 0 0 13.5-44.4-15.2-29.3z"/>
					<path id="&lt;Path&gt;" class="s3" d="m900.1 616.8c-0.1 1.3-4.6 1.8-9.9 1.2-5.4-0.6-9.6-2.2-9.5-3.4 0.2-1.3 4.6-1.9 10-1.2 5.4 0.6 9.6 2.1 9.4 3.4z"/>
				</g>
			</g>
		</g>
		<g id="&lt;Group&gt;">
			<path id="&lt;Path&gt;" class="s8" d="m456.3 403.7c0 8.4-83.8 15.2-187.2 15.2-103.3 0-187.1-6.8-187.1-15.2 0-8.4 83.8-15.2 187.1-15.2 103.4 0 187.2 6.8 187.2 15.2z"/>
			<g id="&lt;Group&gt;">
				<g id="&lt;Group&gt;">
					<g id="&lt;Group&gt;">
						<path id="&lt;Path&gt;" class="s6" d="m270.1 383.7c-60.3-2.8-96.4-31.6-106.7-78.8-10.1-46.4 25.4-99.3 48.5-127.8 28.3-3.5 93.1-9.4 125.5 4.3 67 28.3 88.9 184.2-67.3 202.3z"/>
						<path id="&lt;Path&gt;" class="s9" d="m270.1 383.7c-60.3-2.8-96.4-31.6-106.7-78.8-10.1-46.4 25.4-99.3 48.5-127.8 28.3-3.5 93.1-9.4 125.5 4.3 67 28.3 88.9 184.2-67.3 202.3z"/>
					</g>
					<g id="&lt;Group&gt;">
						<path id="&lt;Path&gt;" class="s0" d="m361.6 372.5c-34.9 9-65.5 12.6-91.5 11.2 156.2-18.1 134.3-174 67.3-202.3-32.4-13.7-97.2-7.8-125.5-4.3 1.4-1.8 2.7-3.4 4.1-4.9 34.6-5.2 94.6-9.9 174.9 0q0 0 0.1 0.1c99.5 67.6 74.3 173.4-29.4 200.2z"/>
						<path id="&lt;Path&gt;" class="s10" d="m361.6 372.5c-34.9 9-65.5 12.6-91.5 11.2 156.2-18.1 134.3-174 67.3-202.3-32.4-13.7-97.2-7.8-125.5-4.3 1.4-1.8 2.7-3.4 4.1-4.9 34.6-5.2 94.6-9.9 174.9 0q0 0 0.1 0.1c99.5 67.6 74.3 173.4-29.4 200.2z"/>
					</g>
					<g id="&lt;Group&gt;">
						<path id="&lt;Path&gt;" class="s4" d="m352.4 261.3c-4 1.8-7.9 1.9-8.7 0.1-0.8-1.8 1.8-4.7 5.7-6.5 4-1.8 7.8-1.8 8.6-0.1 0.9 1.8-1.7 4.7-5.6 6.5z"/>
						<path id="&lt;Path&gt;" class="s4" d="m358.4 325c2.9 2.9 4.4 6.1 3.3 7.1-1 1.1-4.2-0.4-7.1-3.3-2.8-2.9-4.3-6.1-3.3-7.1 1.1-1 4.2 0.4 7.1 3.3z"/>
						<path id="&lt;Path&gt;" class="s4" d="m345 286c-4 1.8-7.9 1.8-8.7 0.1-0.8-1.8 1.8-4.7 5.7-6.5 4-1.8 7.8-1.9 8.6-0.1 0.9 1.8-1.7 4.7-5.6 6.5z"/>
						<path id="&lt;Path&gt;" class="s4" d="m341.4 309.2c3.8-2.2 7.6-2.8 8.5-1.4 0.8 1.5-1.5 4.5-5.3 6.8-3.8 2.2-7.5 2.8-8.4 1.4-0.9-1.5 1.5-4.5 5.2-6.8z"/>
						<path id="&lt;Path&gt;" class="s4" d="m341.6 220.8c2.8 2.8 4.3 6 3.3 7-1.1 1.1-4.2-0.4-7.1-3.3-2.9-2.9-4.3-6.1-3.3-7.1 1-1 4.2 0.5 7.1 3.4z"/>
						<path id="&lt;Path&gt;" class="s4" d="m352.5 230.4c3.8-2.3 7.5-2.9 8.4-1.4 0.9 1.4-1.5 4.4-5.3 6.7-3.7 2.2-7.5 2.9-8.4 1.4-0.9-1.5 1.5-4.5 5.3-6.7z"/>
						<path id="&lt;Path&gt;" class="s4" d="m299 181c2.9 2.9 4.4 6 3.4 7.1-1.1 1-4.2-0.5-7.1-3.4-2.9-2.9-4.4-6-3.3-7.1 1-1 4.2 0.5 7 3.4z"/>
						<path id="&lt;Path&gt;" class="s4" d="m310 190.6c3.7-2.2 7.5-2.9 8.4-1.4 0.9 1.5-1.5 4.5-5.3 6.7-3.8 2.3-7.5 2.9-8.4 1.4-0.9-1.4 1.5-4.5 5.3-6.7z"/>
						<path id="&lt;Path&gt;" class="s4" d="m364.6 311.5c4 1.1 7 3.1 6.6 4.5-0.3 1.4-3.9 1.7-8 0.6-4-1-7-3-6.6-4.4 0.3-1.5 3.9-1.8 8-0.7z"/>
						<path id="&lt;Path&gt;" class="s4" d="m245.2 180.3c4.1 1 7.1 3 6.7 4.5-0.4 1.4-3.9 1.7-8 0.6-4.1-1-7-3-6.7-4.4 0.4-1.5 4-1.8 8-0.7z"/>
						<path id="&lt;Path&gt;" class="s4" d="m282 370.1c2.9 2.9 4.3 6.1 3.3 7.1-1 1-4.2-0.5-7.1-3.3-2.8-2.9-4.3-6.1-3.3-7.1 1.1-1.1 4.2 0.4 7.1 3.3z"/>
						<path id="&lt;Path&gt;" class="s4" d="m280.9 355.9c3.8-2.2 7.5-2.8 8.4-1.4 0.9 1.5-1.5 4.5-5.3 6.7-3.7 2.3-7.5 2.9-8.4 1.4-0.9-1.4 1.5-4.4 5.3-6.7z"/>
						<path id="&lt;Path&gt;" class="s4" d="m305.8 355c4 1.1 7 3.1 6.6 4.5-0.3 1.4-3.9 1.7-8 0.6-4-1-7-3-6.6-4.4 0.3-1.5 3.9-1.8 8-0.7z"/>
						<path id="&lt;Path&gt;" class="s4" d="m373.2 283.2c2.8 2.8 4.3 6 3.3 7-1.1 1.1-4.2-0.4-7.1-3.3-2.9-2.9-4.4-6.1-3.3-7.1 1-1 4.2 0.5 7.1 3.4z"/>
						<path id="&lt;Path&gt;" class="s4" d="m356.2 267.4c3.8-2.3 7.5-2.9 8.4-1.4 0.9 1.4-1.5 4.4-5.2 6.7-3.8 2.2-7.6 2.8-8.5 1.4-0.8-1.5 1.5-4.5 5.3-6.7z"/>
						<path id="&lt;Path&gt;" class="s4" d="m379.3 258.7c4.1 1.1 7.1 3.1 6.7 4.5-0.4 1.4-3.9 1.7-8 0.7-4.1-1.1-7.1-3.1-6.7-4.5 0.4-1.4 4-1.7 8-0.7z"/>
						<path id="&lt;Path&gt;" class="s4" d="m240.9 364.6c2.9 2.9 4.4 6 3.3 7.1-1 1-4.2-0.5-7-3.4-2.9-2.9-4.4-6.1-3.4-7.1 1.1-1 4.3 0.5 7.1 3.4z"/>
						<path id="&lt;Path&gt;" class="s4" d="m224 348.8c3.7-2.3 7.5-2.9 8.4-1.4 0.8 1.4-1.5 4.4-5.3 6.7-3.8 2.2-7.5 2.9-8.4 1.4-0.9-1.5 1.5-4.5 5.3-6.7z"/>
						<path id="&lt;Path&gt;" class="s4" d="m255.8 363.9c4 1 7 3 6.7 4.4-0.4 1.5-4 1.8-8 0.7-4.1-1-7.1-3-6.7-4.5 0.3-1.4 3.9-1.7 8-0.6z"/>
						<path id="&lt;Path&gt;" class="s4" d="m329.1 197.6c3.8-2.2 7.6-2.9 8.5-1.4 0.8 1.5-1.5 4.5-5.3 6.7-3.8 2.3-7.5 2.9-8.4 1.4-0.9-1.4 1.5-4.4 5.2-6.7z"/>
						<path id="&lt;Path&gt;" class="s4" d="m362.6 295.2c-4 1.8-7.9 1.8-8.7 0-0.8-1.7 1.8-4.6 5.7-6.5 4-1.8 7.8-1.8 8.6 0 0.9 1.8-1.7 4.7-5.6 6.5z"/>
						<path id="&lt;Path&gt;" class="s4" d="m190.3 339.9c-4 1.8-7.8 1.8-8.6 0.1-0.9-1.8 1.7-4.7 5.6-6.5 4-1.8 7.9-1.9 8.7-0.1 0.8 1.8-1.8 4.7-5.7 6.5z"/>
						<path id="&lt;Path&gt;" class="s4" d="m219.3 190.9c-4 1.8-7.9 1.9-8.7 0.1-0.8-1.8 1.8-4.7 5.7-6.5 4-1.8 7.8-1.8 8.7-0.1 0.8 1.8-1.8 4.7-5.7 6.5z"/>
						<path id="&lt;Path&gt;" class="s4" d="m197.2 220.3c-3.9 1.8-7.8 1.8-8.6 0.1-0.8-1.8 1.7-4.7 5.7-6.5 3.9-1.8 7.8-1.9 8.6-0.1 0.8 1.8-1.7 4.7-5.7 6.5z"/>
						<path id="&lt;Path&gt;" class="s4" d="m217.4 335.3c-4 1.8-7.9 1.8-8.7 0.1-0.8-1.8 1.8-4.7 5.7-6.5 4-1.8 7.8-1.9 8.6-0.1 0.8 1.8-1.7 4.7-5.6 6.5z"/>
						<path id="&lt;Path&gt;" class="s4" d="m203.8 346.4c4 1 7 3 6.7 4.4-0.4 1.5-4 1.8-8.1 0.7-4-1-7-3.1-6.6-4.5 0.3-1.4 3.9-1.7 8-0.6z"/>
						<path id="&lt;Path&gt;" class="s4" d="m190.1 319.4c3.8-2.2 7.6-2.9 8.4-1.4 0.9 1.5-1.4 4.5-5.2 6.7-3.8 2.3-7.6 2.9-8.4 1.4-0.9-1.5 1.4-4.5 5.2-6.7z"/>
						<path id="&lt;Path&gt;" class="s4" d="m343.4 248.8c-0.4 3.5-1.6 6.2-2.6 6.1-1.1-0.1-1.6-3-1.2-6.5 0.4-3.5 1.6-6.2 2.7-6.1 1 0.1 1.5 3.1 1.1 6.5z"/>
						<path id="&lt;Path&gt;" class="s4" d="m334.3 354.6c-3.9 1.8-7.8 1.9-8.6 0.1-0.8-1.8 1.7-4.7 5.7-6.5 3.9-1.8 7.8-1.8 8.6-0.1 0.8 1.8-1.7 4.7-5.7 6.5z"/>
						<path id="&lt;Path&gt;" class="s4" d="m321.5 338.6c-0.4 3.5-1.6 6.2-2.7 6.1-1-0.2-1.5-3.1-1.1-6.5 0.4-3.5 1.6-6.2 2.6-6.1 1.1 0.1 1.6 3 1.2 6.5z"/>
						<path id="&lt;Path&gt;" class="s4" d="m183 305c-4 1.8-7.8 1.9-8.7 0.1-0.8-1.8 1.8-4.7 5.7-6.5 4-1.8 7.9-1.8 8.7-0.1 0.8 1.8-1.8 4.7-5.7 6.5z"/>
						<path id="&lt;Path&gt;" class="s4" d="m177.7 273.3c2.9 2.9 4.4 6.1 3.3 7.1-1 1-4.2-0.4-7-3.3-2.9-2.9-4.4-6.1-3.4-7.1 1.1-1.1 4.2 0.4 7.1 3.3z"/>
						<path id="&lt;Path&gt;" class="s4" d="m194.2 227.5c3.7-2.3 7.5-2.9 8.4-1.4 0.9 1.5-1.5 4.5-5.3 6.7-3.8 2.2-7.5 2.9-8.4 1.4-0.9-1.5 1.5-4.5 5.3-6.7z"/>
						<path id="&lt;Path&gt;" class="s4" d="m174 292.5c-0.4 3.5-1.6 6.2-2.6 6.1-1.1-0.1-1.6-3-1.1-6.5 0.4-3.5 1.6-6.2 2.6-6.1 1.1 0.2 1.6 3.1 1.1 6.5z"/>
					</g>
				</g>
				<g id="&lt;Group&gt;">
					<path id="&lt;Path&gt;" class="s0" d="m213.2 377.7l-51.6 27.9c0 0-57.9-19.4-52.2 2.9h56.9z"/>
					<path id="&lt;Path&gt;" class="s10" d="m213.2 377.7l-51.6 27.9c0 0-57.9-19.4-52.2 2.9h56.9z"/>
				</g>
				<g id="&lt;Group&gt;">
					<path id="&lt;Path&gt;" class="s0" d="m377.7 372l27.5 9.2-38.4 27.3 71.6-3.3c0 0-5.7-19.9-54.5-2.4l31.7-25.1z"/>
					<path id="&lt;Path&gt;" class="s10" d="m377.7 372l27.5 9.2-38.4 27.3 71.6-3.3c0 0-5.7-19.9-54.5-2.4l31.7-25.1z"/>
				</g>
				<g id="&lt;Group&gt;">
					<g id="&lt;Group&gt;">
						<path id="&lt;Path&gt;" class="s11" d="m242.6 335.9c0 0-32.5-11.6-24.7-24 0 0-27.4-17.3-30.3-37.2-2.9-19.9 11.7-42.2 24.5-45.5 0 0-3.5-32.3 15.3-38 18.8-5.7 81.1-11.3 100.1 47.7 19 59-9.1 97.2-37.5 109.8-28.4 12.6-55.6-0.8-47.4-12.8z"/>
						<g id="&lt;Group&gt;" style="opacity: .2">
							<path id="&lt;Path&gt;" class="s2" d="m214.1 230.1c0 0 1.2 0.5 3.3 1.2 2 0.7 5.1 1.4 8.7 2.2 1.8 0.3 3.7 0.7 5.8 0.9 2.1 0.3 4.3 0.2 6.6 0.3 2.2-0.1 4.6-0.2 6.9-0.6q1.7-0.4 3.5-0.8c1.1-0.2 2.2-0.7 3.4-1.1 2.3-0.6 4.3-1.9 6.4-3 2-1.2 3.7-2.8 5.5-4.1 1.7-1.5 3.1-3.2 4.6-4.6 1.5-1.6 2.4-3.3 3.6-4.8 1.1-1.4 2.1-2.8 2.8-4.2q1.1-2 1.9-3.4c1.1-1.9 1.8-3 1.8-3 0 0-0.4 1.2-1.2 3.3q-0.5 1.6-1.3 3.7c-0.5 1.5-1.3 3.1-2.3 4.7-1 1.6-1.8 3.6-3.2 5.3-1.4 1.7-2.8 3.6-4.5 5.3q-1.4 1.2-2.9 2.4c-0.9 0.8-1.9 1.7-3 2.3-2.3 1.2-4.5 2.7-7 3.4-1.3 0.4-2.5 1-3.8 1.2q-1.9 0.4-3.8 0.7c-1.2 0.3-2.5 0.3-3.8 0.4-1.2 0-2.4 0.1-3.6 0-2.5-0.2-4.8-0.3-6.9-0.8-2.2-0.4-4.2-1-6-1.5-7.3-2.4-11.5-5.4-11.5-5.4z"/>
							<path id="&lt;Path&gt;" class="s2" d="m220.7 310.9c0 0 2.9 0.4 7.4 1 2.2 0.3 4.8 0.6 7.5 0.8 2.7 0.2 5.6 0.4 8.5 0.3 1.5 0.1 2.9-0.1 4.3-0.2q2.1-0.2 4.2-0.4c1.2-0.4 2.5-0.5 3.7-0.9q1.8-0.5 3.3-1 1.5-0.7 2.7-1.2c0.9-0.4 1.5-0.9 2.1-1.2 1.1-0.7 1.7-1.1 1.7-1.1 0 0-0.4 0.6-1.3 1.6-0.5 0.5-0.9 1.2-1.7 1.8q-1.1 0.8-2.5 1.9c-1 0.6-2.2 1.1-3.4 1.7-1.2 0.5-2.6 1-4 1.4-1.4 0.3-2.9 0.7-4.4 0.8-1.5 0.1-3.1 0.4-4.6 0.3-3.1 0.1-6.2-0.2-9-0.7-1.4-0.2-2.7-0.6-4-0.9q-1.9-0.5-3.6-1c-4.3-1.5-6.9-3-6.9-3z"/>
							<path id="&lt;Path&gt;" class="s2" d="m294.3 300.3c0 0 2.9 1.2 7.2 1.4 1.1-0.1 2.3 0 3.5-0.2 1.2-0.1 2.5-0.4 3.7-0.7 1.3-0.4 2.6-0.9 3.8-1.5 1.3-0.6 2.6-1.2 3.7-2l1.8-1.2 1.6-1.3q0.9-0.7 1.7-1.4 0.7-0.7 1.5-1.4c0.9-1 2-1.8 2.8-2.8q1.2-1.5 2.4-2.7c0.8-0.8 1.3-1.7 1.9-2.4q0.9-1 1.6-1.8c0.9-1 1.4-1.6 1.4-1.6 0 0-0.3 0.7-0.8 2q-0.4 0.9-1 2.2c-0.4 0.8-0.8 1.8-1.5 2.8q-0.9 1.5-2 3.1c-0.7 1.2-1.6 2.2-2.6 3.3-0.9 1.2-1.9 2.3-3.1 3.3l-1.8 1.5-2 1.3c-1.3 1-2.8 1.6-4.2 2.3-1.5 0.6-3 1-4.5 1.3-1.5 0.3-2.9 0.4-4.3 0.3-1.4 0.1-2.7-0.2-3.8-0.4-1.2-0.3-2.2-0.6-3.1-1-0.9-0.3-1.6-0.8-2.2-1.1-1.2-0.7-1.7-1.3-1.7-1.3z"/>
							<path id="&lt;Path&gt;" class="s2" d="m244.6 335.1c0 0 0.9 0.4 2.6 0.9 1.6 0.5 4 1.2 6.8 1.9 2.9 0.7 6.2 1.4 9.8 1.9 3.7 0.5 7.5 1 11.4 1 1.9 0.1 3.8 0 5.8 0 1.9 0 3.7-0.3 5.5-0.4 1.9-0.1 3.6-0.5 5.3-0.6 1.6-0.2 3.2-0.6 4.6-0.9 1.4-0.3 2.8-0.4 3.9-0.8q1.8-0.4 3.1-0.8c1.6-0.4 2.6-0.6 2.6-0.6 0 0-0.8 0.5-2.4 1.3q-1.2 0.6-2.8 1.4c-1.1 0.5-2.4 1-3.9 1.5-1.4 0.5-2.9 1.1-4.6 1.5-1.7 0.3-3.5 0.9-5.4 1.1-1.8 0.2-3.8 0.7-5.8 0.7-2 0.1-4 0.2-6 0.1q-3.1-0.1-6.1-0.5c-1.9-0.1-3.9-0.6-5.7-0.9-3.7-0.9-7.1-1.9-9.9-3.1-2.8-1.1-5-2.3-6.5-3.2-1.5-0.9-2.3-1.5-2.3-1.5z"/>
						</g>
					</g>
					<g id="&lt;Group&gt;">
						<path id="&lt;Path&gt;" class="s4" d="m297 278.7c-22.4 18.1-43.8-11.4-43.8-11.4 0 0-1.1 23.8-18.8 20.9-13.7-2.2-14.1-32-13.6-45.1 6.6 9.7 18.3 23 31.3 20.1 13.9-3 24.9-28.5 30.4-43.7 11.3 14.9 31.1 45.7 14.5 59.2z"/>
						<g id="&lt;Group&gt;">
							<path id="&lt;Path&gt;" class="s0" d="m215.2 233.8c0 0 1.1 1.5 3.1 4.1 1 1.2 2.2 2.7 3.6 4.4 1.4 1.7 3.1 3.5 5 5.5 1.8 1.9 3.9 3.8 6.2 5.8 2.3 1.8 4.9 3.6 7.7 4.8 2.7 1.4 5.7 1.9 8.5 1.7 0.6-0.1 1.6-0.2 1.9-0.2 0.9-0.3 1.9-0.5 2.3-0.8 1.1-0.5 2.6-1.4 3.7-2.4 2.5-2 4.8-4.5 6.8-7.3 2-2.7 4-5.5 5.7-8.4 3.4-5.7 6.2-11.4 8.6-16.3 4.8-9.7 7.8-16.5 7.8-16.5 0 0-0.7 7.4-4 18-1.6 5.4-3.8 11.5-7 17.8-1.6 3.1-3.3 6.4-5.5 9.5-2.3 3-4.8 6.1-7.9 8.7-1.8 1.3-3.3 2.4-5.6 3.4-1.3 0.5-2 0.6-2.9 0.9-1.5 0.3-2.3 0.3-3.5 0.4-4.3 0.2-8.5-1-11.7-2.9-3.4-1.8-6.1-4.2-8.4-6.5-2.3-2.4-4.3-4.8-5.9-7.2-3.2-4.6-5.3-8.8-6.6-11.7-1.3-3-1.9-4.8-1.9-4.8z"/>
							<path id="&lt;Path&gt;" class="s10" d="m215.2 233.8c0 0 1.1 1.5 3.1 4.1 1 1.2 2.2 2.7 3.6 4.4 1.4 1.7 3.1 3.5 5 5.5 1.8 1.9 3.9 3.8 6.2 5.8 2.3 1.8 4.9 3.6 7.7 4.8 2.7 1.4 5.7 1.9 8.5 1.7 0.6-0.1 1.6-0.2 1.9-0.2 0.9-0.3 1.9-0.5 2.3-0.8 1.1-0.5 2.6-1.4 3.7-2.4 2.5-2 4.8-4.5 6.8-7.3 2-2.7 4-5.5 5.7-8.4 3.4-5.7 6.2-11.4 8.6-16.3 4.8-9.7 7.8-16.5 7.8-16.5 0 0-0.7 7.4-4 18-1.6 5.4-3.8 11.5-7 17.8-1.6 3.1-3.3 6.4-5.5 9.5-2.3 3-4.8 6.1-7.9 8.7-1.8 1.3-3.3 2.4-5.6 3.4-1.3 0.5-2 0.6-2.9 0.9-1.5 0.3-2.3 0.3-3.5 0.4-4.3 0.2-8.5-1-11.7-2.9-3.4-1.8-6.1-4.2-8.4-6.5-2.3-2.4-4.3-4.8-5.9-7.2-3.2-4.6-5.3-8.8-6.6-11.7-1.3-3-1.9-4.8-1.9-4.8z"/>
						</g>
						<g id="&lt;Group&gt;">
							<path id="&lt;Path&gt;" class="s0" d="m249.9 271.9c-1.5 4.6-4.2 7.8-6.3 7.2-2-0.6-2.5-4.8-1-9.4 1.4-4.6 4.2-7.8 6.2-7.2 2 0.6 2.5 4.9 1.1 9.4z"/>
							<path id="&lt;Path&gt;" class="s10" d="m249.9 271.9c-1.5 4.6-4.2 7.8-6.3 7.2-2-0.6-2.5-4.8-1-9.4 1.4-4.6 4.2-7.8 6.2-7.2 2 0.6 2.5 4.9 1.1 9.4z"/>
						</g>
						<g id="&lt;Group&gt;">
							<path id="&lt;Path&gt;" class="s0" d="m271.2 264.3c3.3 6.4 3.7 12.7 0.9 14.2-2.8 1.4-7.7-2.6-11-8.9-3.3-6.4-3.7-12.8-0.9-14.2 2.8-1.5 7.7 2.5 11 8.9z"/>
							<path id="&lt;Path&gt;" class="s10" d="m271.2 264.3c3.3 6.4 3.7 12.7 0.9 14.2-2.8 1.4-7.7-2.6-11-8.9-3.3-6.4-3.7-12.8-0.9-14.2 2.8-1.5 7.7 2.5 11 8.9z"/>
						</g>
					</g>
					<g id="&lt;Group&gt;">
						<path id="&lt;Path&gt;" class="s4" d="m294.1 333.7l-12.6-1.5c-5.9-17.4-15.3-33.2-20.2-40.6 5.6-2.4 15.1-3.2 27.1 9 9.9 10.2 9 23 5.7 33.1z"/>
						<path id="&lt;Path&gt;" class="s2" d="m269.2 330.7c4.2-0.2 8.4-0.1 12.6 0.2 4.2 0.3 8.4 0.6 12.5 1.3l-1.5 1c0.5-1.4 1-2.7 1.5-4.1 0.3-1.4 0.9-2.9 1.1-4.3 0.1-1.5 0.5-2.9 0.4-4.4-0.1-1.5 0-3-0.5-4.4-0.3-1.4-0.5-2.9-1.2-4.2-0.6-1.3-1.1-2.7-2-3.9-0.9-1.1-1.4-2.5-2.5-3.4-1-1-1.9-2.2-2.8-3.1-1.2-1-2.3-2.1-3.4-3-1.2-0.8-2.3-1.7-3.5-2.4-1.2-0.7-2.3-1.6-3.6-2.1-1.3-0.7-2.6-1.1-3.9-1.5-1.3-0.4-2.7-0.8-4.1-0.8q-1-0.1-2 0-1.1 0-2.1 0.2c-1.4 0.2-2.8 0.7-4.1 1.2-1.4 0.6-2.7 1.3-3.9 2.2l-0.2-0.3c1.9-2.4 4.6-4.3 7.6-5.3 1.5-0.6 3.1-0.9 4.7-0.9 1.7-0.1 3.3 0.1 4.9 0.4 1.6 0.3 3.1 0.8 4.6 1.4 1.5 0.6 2.8 1.5 4.2 2.3 1.4 0.9 2.6 2 3.8 2.9 1.1 1.1 2.2 2.2 3.2 3.2 1.2 1.2 2.1 2.5 3 3.8 1.1 1.2 1.6 2.7 2.3 4.1 0.8 1.4 1 3 1.5 4.4 0.5 1.5 0.5 3.1 0.8 4.6 0.3 1.5 0.2 3 0.2 4.6 0.2 1.5-0.1 3-0.1 4.5-0.1 3.1-0.6 6.2-1.2 9.2l-0.2 1h-1.3c-4.2-0.2-8.4-0.8-12.5-1.5-4.2-0.6-8.3-1.5-12.4-2.6z"/>
						<path id="&lt;Path&gt;" class="s2" d="m293.4 307.5l-13.3 12.1 14.2-10.1z"/>
					</g>
					<path id="&lt;Path&gt;" class="s12" d="m205 296.5c0 0-28.8-34.3 5.5-61.5 0 0-19.8 23.9-5.5 61.5z"/>
					<path id="&lt;Path&gt;" class="s12" d="m217.8 228.2c0 0-8.7-36.3 25.6-37.6 0 0-25.5 11.1-25.6 37.6z"/>
				</g>
				<g id="&lt;Group&gt;">
					<g id="&lt;Group&gt;">
						<path id="&lt;Path&gt;" class="s6" d="m158.2 297.1c-1.4 0-45.2 41.1-45.2 41.1l15.3-53c0 0-41.2-32.4-75.3 5.9l61.1-0.5c0 0-22.3 8.5-19.9 14.4 2.4 5.8 21-11 22-10.1 0.9 1-14.4 60.8-14.4 60.8z"/>
						<path id="&lt;Path&gt;" class="s9" d="m158.2 297.1c-1.4 0-45.2 41.1-45.2 41.1l15.3-53c0 0-41.2-32.4-75.3 5.9l61.1-0.5c0 0-22.3 8.5-19.9 14.4 2.4 5.8 21-11 22-10.1 0.9 1-14.4 60.8-14.4 60.8z"/>
					</g>
					<g id="&lt;Group&gt;">
						<g id="&lt;Group&gt;">
							<path id="&lt;Path&gt;" class="s0" d="m56.9 289.4l-0.2-2.7 42.9-3.4 0.2 2.7z"/>
							<path id="&lt;Path&gt;" class="s0" d="m62.6 283.6l-0.3-2.6 31.3-3.1 0.2 2.6z"/>
						</g>
						<g id="&lt;Group&gt;" style="opacity: .8">
							<path id="&lt;Path&gt;" class="s1" d="m56.9 289.4l-0.2-2.7 42.9-3.4 0.2 2.7z"/>
							<path id="&lt;Path&gt;" class="s1" d="m62.6 283.6l-0.3-2.6 31.3-3.1 0.2 2.6z"/>
						</g>
					</g>
				</g>
				<g id="&lt;Group&gt;">
					<g id="&lt;Group&gt;">
						<path id="&lt;Path&gt;" class="s6" d="m460.7 272.4c0 0 63 23.3 64-11.3 0.9-34.7-37.5-37-37.5-37 0 0-24.6 16.6-24.2-4.8 0.5-21.3 29.7-44.1 29.7-44.1 0 0 46 36.3 11.1 45.6 0 0 28.3 6.1 28.3 38.8 0 32.7-43.5 30.3-71.4 12.8z"/>
						<path id="&lt;Path&gt;" class="s9" d="m460.7 272.4c0 0 63 23.3 64-11.3 0.9-34.7-37.5-37-37.5-37 0 0-24.6 16.6-24.2-4.8 0.5-21.3 29.7-44.1 29.7-44.1 0 0 46 36.3 11.1 45.6 0 0 28.3 6.1 28.3 38.8 0 32.7-43.5 30.3-71.4 12.8z"/>
					</g>
					<g id="&lt;Group&gt;">
						<g id="&lt;Group&gt;">
							<path id="&lt;Path&gt;" class="s0" d="m464.3 211.4c2.8-1.5 5.7-2.8 8.6-4.1 2.9-1.2 5.8-2.4 8.8-3.5 3-1 6-1.8 9-2.8 3.1-0.9 6-2 8.9-3.2l0.9-0.3-0.2 0.9c-0.9 3.9-2.3 7.8-4.9 11.2-0.7 0.8-1.4 1.6-2.2 2.3-0.8 0.7-1.8 1.2-2.7 1.8l-1.5 0.7c-0.5 0.2-1.1 0.3-1.6 0.4-1.1 0.4-2.2 0.3-3.3 0.4l0.1-2.9c3.8 0.3 7.6 0.8 11.4 1.4 3.8 0.5 7.5 1.1 11.3 1.9v0.3c-3.9 0.1-7.7 0-11.5-0.1-3.8-0.1-7.6-0.3-11.4-0.7l0.2-2.8c0.9-0.1 1.7 0 2.6-0.2 0.4-0.1 0.9-0.1 1.3-0.3l1.2-0.5c0.8-0.4 1.6-0.8 2.3-1.4 0.7-0.5 1.4-1.2 2-1.8 1.3-1.4 2.4-3 3.4-4.6 0.9-1.7 1.8-3.5 2.3-5.3l0.7 0.5c-3 1-6 2.1-8.8 3.5-2.9 1.2-5.8 2.7-8.7 3.8-2.9 1.2-5.9 2.2-8.9 3.2-3 0.9-6.1 1.8-9.2 2.5z"/>
							<path id="&lt;Path&gt;" class="s0" d="m481.7 207.1l-2.7-0.2 1-21.2 2.6 0.1z"/>
							<path id="&lt;Path&gt;" class="s0" d="m492.8 201.5l-2.7-0.2 1.2-26.1 2.7 0.1z"/>
							<path id="&lt;Path&gt;" class="s0" d="m500 198.8l-2.6-0.2 1-17.3 2.6 0.2z"/>
						</g>
						<g id="&lt;Group&gt;" style="opacity: .8">
							<path id="&lt;Path&gt;" class="s1" d="m464.3 211.4c2.8-1.5 5.7-2.8 8.6-4.1 2.9-1.2 5.8-2.4 8.8-3.5 3-1 6-1.8 9-2.8 3.1-0.9 6-2 8.9-3.2l0.9-0.3-0.2 0.9c-0.9 3.9-2.3 7.8-4.9 11.2-0.7 0.8-1.4 1.6-2.2 2.3-0.8 0.7-1.8 1.2-2.7 1.8l-1.5 0.7c-0.5 0.2-1.1 0.3-1.6 0.4-1.1 0.4-2.2 0.3-3.3 0.4l0.1-2.9c3.8 0.3 7.6 0.8 11.4 1.4 3.8 0.5 7.5 1.1 11.3 1.9v0.3c-3.9 0.1-7.7 0-11.5-0.1-3.8-0.1-7.6-0.3-11.4-0.7l0.2-2.8c0.9-0.1 1.7 0 2.6-0.2 0.4-0.1 0.9-0.1 1.3-0.3l1.2-0.5c0.8-0.4 1.6-0.8 2.3-1.4 0.7-0.5 1.4-1.2 2-1.8 1.3-1.4 2.4-3 3.4-4.6 0.9-1.7 1.8-3.5 2.3-5.3l0.7 0.5c-3 1-6 2.1-8.8 3.5-2.9 1.2-5.8 2.7-8.7 3.8-2.9 1.2-5.9 2.2-8.9 3.2-3 0.9-6.1 1.8-9.2 2.5z"/>
							<path id="&lt;Path&gt;" class="s1" d="m481.7 207.1l-2.7-0.2 1-21.2 2.6 0.1z"/>
							<path id="&lt;Path&gt;" class="s1" d="m492.8 201.5l-2.7-0.2 1.2-26.1 2.7 0.1z"/>
							<path id="&lt;Path&gt;" class="s1" d="m500 198.8l-2.6-0.2 1-17.3 2.6 0.2z"/>
						</g>
					</g>
				</g>
				<g id="&lt;Group&gt;">
					<path id="&lt;Path&gt;" class="s13" d="m356.5 177.3c0 0 2.4 2.1 6.2 6.1 3.8 4 9 10 14.4 17.8 2.7 3.9 5.6 8.2 8.2 13 2.7 4.8 5.3 9.9 7.6 15.5 2.4 5.5 4.4 11.4 6.1 17.5 1.5 6.1 2.9 12.4 3.5 18.8 0.8 6.5 0.7 13 0.4 19.3-0.6 6.4-1.6 12.6-3.2 18.4-1.5 5.9-3.6 11.3-5.9 16.4-1.2 2.4-2.3 4.9-3.6 7.1q-2 3.4-3.8 6.4c-2.8 4-5.2 7.6-7.8 10.5-2.5 2.9-4.6 5.6-6.6 7.4-4 3.9-6.2 6.1-6.2 6.1 0 0 1.8-2.6 5.1-7 1.8-2.1 3.4-5 5.5-8.1 1.1-1.5 2.1-3.3 3.2-5.1 1-1.9 2.2-3.8 3.3-5.8q1.5-3.1 3.1-6.5c1.1-2.2 1.9-4.7 2.9-7.1 1.9-4.9 3.5-10.2 4.7-15.8 0.8-2.7 1-5.6 1.6-8.5 0.4-2.9 0.5-5.9 0.8-8.8 0.2-6 0.3-12.1-0.5-18.1-0.5-6.1-1.7-12.1-3.1-17.9-1.6-5.8-3.1-11.6-5.3-16.9-2-5.4-4.2-10.6-6.5-15.4-2.3-4.7-4.6-9.2-6.9-13.2-4.6-8.1-8.9-14.6-12.1-19.1-3.1-4.5-5.1-7-5.1-7z"/>
					<path id="&lt;Path&gt;" class="s13" d="m384.3 183.7c0 0 2.1 2.5 5.5 7.3 3.3 4.7 7.8 11.7 12.4 20.6 2.3 4.4 4.7 9.3 6.8 14.6 2.2 5.3 4.2 11.1 5.9 17.1 1.6 6.1 3.2 12.5 4 19.1 0.9 6.6 1.2 13.4 1 20.2-0.2 3.4-0.3 6.8-0.9 10.1-0.4 3.4-1.2 6.7-2 10-0.6 3.3-1.9 6.4-2.9 9.5-1.3 3-2.5 6.1-4 8.9-1.6 2.8-2.9 5.7-4.7 8.2-1.8 2.4-3.3 5-5.2 7.2-2 2.2-3.7 4.5-5.6 6.4q-2.9 2.8-5.7 5.4c-1.9 1.7-3.8 3.2-5.6 4.6-1.8 1.4-3.5 2.8-5.2 3.8-3.5 2.2-6.3 4.3-8.9 5.5-5.2 2.7-8.1 4.2-8.1 4.2 0 0 2.6-1.9 7.3-5.3 2.4-1.6 4.9-4.1 8-6.5 1.6-1.2 3.1-2.7 4.7-4.3 1.6-1.6 3.3-3.1 5-4.9q2.4-2.7 5-5.7c1.6-2 3.2-4.2 4.8-6.4 3.2-4.5 6.1-9.5 8.6-14.9 1.2-2.7 2.3-5.6 3.4-8.4q0.6-2.2 1.3-4.4c0.5-1.5 0.9-3 1.2-4.6 0.7-3 1.3-6.1 1.7-9.2 0.5-3.2 0.6-6.4 0.8-9.5 0.2-6.4 0-12.8-0.8-19.1-0.7-6.3-1.8-12.4-3.2-18.3-1.5-5.9-3-11.6-4.8-16.9-1.8-5.2-3.7-10.2-5.5-14.7-3.8-9.1-7.4-16.5-10-21.6-2.7-5.1-4.3-8-4.3-8z"/>
					<path id="&lt;Path&gt;" class="s13" d="m402.6 195.4c0 0 1.8 1.6 4.7 4.7 2.9 3.2 6.8 7.9 10.8 14 2.1 3 4.2 6.4 6.1 10.2 2 3.7 4 7.7 5.7 12 1.7 4.3 3.3 8.8 4.5 13.5 1.1 4.8 2.2 9.7 2.7 14.6 0.5 5 0.6 10 0.5 14.9-0.3 4.9-1 9.7-2 14.2-0.9 4.6-2.3 8.9-3.8 12.9-0.9 1.9-1.6 3.9-2.5 5.7q-1.3 2.6-2.6 5.1c-1.9 3.2-3.6 6.1-5.4 8.5-1.8 2.4-3.3 4.5-4.7 6-2.9 3.2-4.5 5-4.5 5 0 0 1.2-2.2 3.3-5.8 1.2-1.7 2.2-4.1 3.6-6.6 0.7-1.3 1.3-2.7 2-4.2 0.6-1.5 1.4-3 2-4.7q1-2.4 2-5.1c0.6-1.8 1.1-3.7 1.8-5.6 1.1-3.9 2-8 2.7-12.3 0.4-2.2 0.5-4.4 0.8-6.6 0.2-2.2 0.2-4.5 0.4-6.8 0.1-4.6 0-9.2-0.6-13.8-0.4-4.7-1.4-9.2-2.3-13.7-1.2-4.5-2.3-8.9-3.8-13.1-2.7-8.3-6.2-15.9-9.4-22.3-6.4-12.7-12-20.7-12-20.7z"/>
				</g>
			</g>
		</g>
		<g id="&lt;Group&gt;">
			<path id="&lt;Path&gt;" class="s1" d="m534.7 879.7c0 8.4-101.4 15.2-226.4 15.2-125 0-226.3-6.8-226.3-15.2 0-8.4 101.3-15.2 226.3-15.2 125 0 226.4 6.8 226.4 15.2z"/>
			<g id="&lt;Group&gt;">
				<g id="&lt;Group&gt;">
					<path id="&lt;Path&gt;" class="s5" d="m197.1 827.7c-2 2.3-43.9 50.1-61.5 21.4-15.7-25.8 1.9-51.9 15.5-66.5 12.5 4.6-10.6 38.8-10.6 38.8q-0.7 0.3-0.7 0.3c0 0-8.9 21.8 7 29.2 15.5 7.1 48.5-21.7 50.3-23.2z"/>
					<g id="&lt;Group&gt;">
						<path id="&lt;Path&gt;" class="s5" d="m140.5 821.4c0 0 23.1-34.2 10.6-38.8 6.9-7.4 12.8-11.9 12.8-11.9 9.7 37.7-18.4 49-23.4 50.7z"/>
						<path id="&lt;Path&gt;" class="s14" d="m140.5 821.4c0 0 23.1-34.2 10.6-38.8 6.9-7.4 12.8-11.9 12.8-11.9 9.7 37.7-18.4 49-23.4 50.7z"/>
					</g>
				</g>
				<g id="&lt;Group&gt;">
					<g id="&lt;Group&gt;">
						<path id="&lt;Path&gt;" class="s5" d="m494.2 880.6c0 0-36.1 4.3-36.9-33.6 6.4 10.1 22.8 33.5 31.7 23.1 1.9 3.3 3.7 6.8 5.2 10.5z"/>
						<path id="&lt;Path&gt;" class="s14" d="m494.2 880.6c0 0-36.1 4.3-36.9-33.6 6.4 10.1 22.8 33.5 31.7 23.1 1.9 3.3 3.7 6.8 5.2 10.5z"/>
					</g>
					<path id="&lt;Path&gt;" class="s5" d="m489 870.1c-8.9 10.4-25.3-13-31.7-23.1-0.1-1.6-0.1-3.3 0-5 0 0-28.2-25.1-54.6-29.9 7 1.2 60.2 12 86.3 58z"/>
				</g>
				<path id="&lt;Path&gt;" class="s5" d="m156.7 616.6c-13.8 69 13.7 100.6 13.7 100.6-27.4-36.2-26.7-72.8-19.1-100.3 0 0-35.7-12.3-34.8-18.2 0.9-5.9 33.9 14.8 33.9 14.8 0 0-38.4-26.3-33.9-32.2 4.4-5.9 37.7 32.2 37.7 32.2 0 0-23.9-36.6-18.3-37.5 5.6-0.9 20.8 37.5 20.8 37.5 0 0 4.3-7.8 9.9-7 5.6 0.7-9.9 10.1-9.9 10.1z"/>
				<path id="&lt;Path&gt;" class="s5" d="m327.1 547.8c40.2 65.7 23.9 108.6 23.9 108.6 14.5-47.6-0.1-84.9-18.3-110.3 0 0 32.1-26.3 28.9-32-3.1-5.7-29.2 28.1-29.2 28.1 0 0 29.5-41.6 22.7-46-6.8-4.4-26.6 47.5-26.6 47.5 0 0 10.6-46.8 4.6-45.6-6.1 1.2-7.2 46.5-7.2 46.5 0 0-7.3-6.4-12.8-3.5-5.5 2.9 14 6.7 14 6.7z"/>
				<g id="&lt;Group&gt;">
					<g id="&lt;Group&gt;">
						<g id="&lt;Group&gt;">
							<g id="&lt;Group&gt;">
								<g id="&lt;Group&gt;">
									<path id="&lt;Path&gt;" class="s6" d="m244.7 576l-38.2 233-8.1 0.6-25.1 7.7 1.8-202.7z"/>
									<path id="&lt;Path&gt;" class="s12" d="m244.7 576l-38.2 233-8.1 0.6-25.1 7.7 1.8-202.7z"/>
								</g>
								<path id="&lt;Path&gt;" class="s6" d="m191.1 605.7l28.5-15.8-22.4 219.1h-8.8z"/>
								<path id="&lt;Path&gt;" class="s5" d="m197.2 602.3l13.1-7.2-15.7 213.9h-3.6"/>
							</g>
							<path id="&lt;Path&gt;" class="s5" d="m368.1 796.9l-161.6 12.1 38.2-233 52.1-28.9c0 0 99 164.4 71.3 249.8z"/>
							<path id="&lt;Path&gt;" class="s15" d="m350.8 796.1c0 0 1.4-138.9-57.9-244.9 0 0 88.1 122 57.9 244.9z"/>
						</g>
						<g id="&lt;Group&gt;">
							<path id="&lt;Path&gt;" class="s1" d="m271.7 627.7c0 0 0.2 1.4 0.7 3.8 0.5 2.5 1.3 6 2.4 10.2 1.2 4.1 2.7 8.9 5 13.6 1.1 2.3 2.5 4.7 4.2 6.3 0.9 0.8 1.8 1.4 2.8 1.6 0.4 0.1 1 0 1.2 0 0.3-0.2 0.8-0.3 1-0.4 0.1-0.1 0.3-0.2 0.5-0.3 1.7-1.3 2.7-4.1 3.3-6.7 0.6-2.7 0.9-5.5 1.1-8.2 0.3-5.4 0.1-10.6-0.2-14.9-0.6-8.8-1.6-14.6-1.6-14.6 0 0 1.4 5.7 2.7 14.5 0.6 4.3 1.2 9.5 1.3 15 0.1 2.8 0 5.7-0.5 8.7-0.5 2.9-1.1 6.2-3.8 8.9-0.4 0.3-0.9 0.6-1.4 0.9-0.4 0.3-0.7 0.3-1 0.5-1.2 0.4-2 0.5-3.1 0.4-2-0.2-3.7-1.1-5-2.2-2.6-2.1-4.3-4.7-5.8-7.2-2.9-5-4.8-9.9-6.3-14.1-1.6-4.2-2.6-7.8-3.4-10.3-0.7-2.6-1.1-4.1-1.1-4.1z"/>
							<path id="&lt;Path&gt;" class="s1" d="m266 639.9l-12.7-1.2 0.3-3.5 12.7 1.2z"/>
							<path id="&lt;Path&gt;" class="s1" d="m259.1 645.8l-0.6-3.5 7.4-1.2 0.5 3.5z"/>
						</g>
						<g id="&lt;Group&gt;">
							<path id="&lt;Path&gt;" class="s1" d="m300 617.8c0 0 0.3 1.4 0.7 3.9 0.5 2.4 1.3 6 2.5 10.1 1.1 4.1 2.6 9 4.9 13.7 1.2 2.3 2.5 4.6 4.3 6.3 0.8 0.8 1.8 1.4 2.7 1.5 0.4 0.1 1.1 0 1.3 0 0.3-0.1 0.7-0.2 0.9-0.4 0.2-0.1 0.3-0.1 0.5-0.3 1.7-1.3 2.7-4.1 3.3-6.7 0.7-2.7 0.9-5.5 1.1-8.2 0.3-5.4 0.1-10.5-0.2-14.9-0.6-8.7-1.6-14.6-1.6-14.6 0 0 1.4 5.8 2.7 14.5 0.6 4.4 1.2 9.5 1.3 15.1 0.1 2.8 0 5.7-0.4 8.6-0.6 3-1.2 6.2-3.9 8.9-0.4 0.4-0.9 0.7-1.3 1-0.5 0.2-0.7 0.3-1.1 0.4-1.2 0.4-2 0.5-3 0.4-2.1-0.1-3.7-1.1-5-2.1-2.7-2.2-4.3-4.8-5.9-7.2-2.9-5-4.8-10-6.3-14.2-1.5-4.2-2.6-7.8-3.3-10.3-0.7-2.6-1.1-4-1.1-4z"/>
							<path id="&lt;Path&gt;" class="s1" d="m324.5 621.5l-2.3-2.7 8-6.6 2.2 2.7z"/>
							<path id="&lt;Path&gt;" class="s1" d="m326.2 627.2l-0.9-3.5 8-2 0.8 3.4z"/>
						</g>
						<g id="&lt;Group&gt;">
							<path id="&lt;Path&gt;" class="s4" d="m284.8 679l-28.5 46.3c-7.1-3.5-12.3-14.2-11.1-25.9 1.8-17.6 20.3-35.9 20.3-35.9-5.2 18.9 7.8 18.7 19.3 15.5z"/>
							<path id="&lt;Path&gt;" class="s1" d="m299.8 673.4c-3.5 2.3-7.3 4.1-11.3 5.7-3.9 1.6-8.1 2.8-12.5 3.1-2.2 0.1-4.5 0-6.8-0.9-1.1-0.4-2.2-1.1-3.1-1.9-0.9-0.9-1.6-2-2-3.1-0.4-1.1-0.6-2.3-0.7-3.4 0-1.1 0-2.2 0.2-3.3 0-1.1 0.4-2.1 0.6-3.2l0.8-3.1 1 0.6c-5 4.9-9.1 10.6-12.4 16.7-0.7 1.6-1.6 3-2.3 4.6-0.7 1.6-1.3 3.2-1.9 4.7-0.6 1.6-1.2 3.2-1.5 4.8-0.5 1.6-0.6 3.4-0.8 4.8-0.1 1.8-0.2 3.6-0.1 5.1q0.1 1.2 0.3 2.4c0.1 0.9 0.2 1.7 0.4 2.5 0.3 1.6 0.8 3.2 1.3 4.7l1 2.3 1.2 2.1 1.4 2c0.6 0.6 1.1 1.2 1.7 1.8 1.2 1 2.4 2.1 3.9 2.6 1.5 0.7 3.1 0.8 4.8 0.8 0.8 0 1.6-0.3 2.4-0.5l2.4-1 0.2 0.3c-0.7 0.5-1.4 1.1-2.2 1.5-0.9 0.3-1.7 0.8-2.6 1-0.9 0.1-1.8 0.4-2.8 0.3l-1.4-0.1-1.4-0.3c-1.9-0.5-3.5-1.4-5.1-2.6-0.7-0.5-1.4-1.2-2.1-1.9l-1.8-2.1-1.5-2.4-1.3-2.4c-0.7-1.7-1.3-3.5-1.7-5.3-0.5-1.8-0.8-3.6-0.8-5.5-0.2-2-0.1-3.7 0.1-5.4 0.3-2 0.6-3.8 1.1-5.5 0.5-1.8 1.2-3.5 1.9-5.2 1.4-3.3 3.2-6.4 5.2-9.3 4.1-5.9 8.7-11.2 13.5-16.3l1.5-1.6-0.5 2.1c-0.4 2-0.8 4.1-0.8 6.1 0 1 0.1 2 0.2 2.9 0.2 1 0.5 1.9 0.9 2.7 0.4 0.8 1 1.4 1.6 2q1 0.7 2.3 1.1c0.8 0.3 1.7 0.5 2.7 0.6q1.4 0.1 2.9 0.1c3.9-0.2 7.9-1.2 11.9-2.2 4-1.1 7.9-2.5 11.9-3.9z"/>
							<path id="&lt;Path&gt;" class="s1" d="m246.5 693l14.6 13.8-13.1-17.9z"/>
							<path id="&lt;Path&gt;" class="s1" d="m268.4 664.9c0 0-0.2-0.2-0.3-0.4q-0.3-0.3-0.9-0.7c-0.5-0.4-1-0.6-1.6-0.9-0.6-0.1-1.3-0.5-2.1-0.4h-1.1c-0.3 0-0.7 0.2-1 0.2-0.7 0.2-1.4 0.4-1.9 0.8-1 0.6-1.7 1-1.7 1 0 0 0.5-0.6 1.4-1.5 0.4-0.5 1-0.9 1.7-1.3 0.4-0.2 0.8-0.4 1.2-0.6l1.3-0.4c0.9-0.3 1.8-0.1 2.7-0.2 0.8 0.2 1.7 0.3 2.3 0.6 0.7 0.2 1.3 0.4 1.7 0.7q0.5 0.3 0.5 0.3z"/>
						</g>
						<g id="&lt;Group&gt;">
							<path id="&lt;Path&gt;" class="s16" d="m261.6 569.7c0.1 0.1-1.5-0.1-3 1.2-1.5 1.1-2.8 4-2.4 7.3 0.1 0.8 0.2 1.6 0.6 2.3 0.1 0.3 0.5 0.8 0.5 0.9l0.5 0.6 0.3 0.3h0.2c0.3 0.4 1.2 0.6 2.1 0.6 0.8-0.1 1.9-0.2 2.7-0.9 0.9-0.5 1.6-1.3 2.2-2.4 0.6-1 1-2.2 1.3-3.4 0.3-1.1 0.4-2.4 0-3.3-0.1-0.2-0.3-0.4-0.4-0.4l-0.4-0.3q-0.1 0-0.2 0c-0.3 0-0.7 0.2-1 0.5-0.2 0.3-0.5 0.6-0.4 1 0 0.4 0 0.7 0 1l0.2 0.7c0.2 0.9 0.5 2.2 1 3.2 0.8 2.2 1.9 4.5 3.1 6 0.1 0.1 0.3 0.4 0.3 0.4 0.2 0.1 0.5 0.4 0.7 0.5 0.1 0 0.4 0.2 0.6 0.2 0.3 0 0.8-0.2 1.4-0.8 1-1.3 1.8-2.9 2-4.7 0.3-1.6 0.3-3.2 0.1-4.6-0.2-1.5-0.7-2.6-1.1-3.6-0.4-1-0.8-1.8-1.2-2.2q-0.5-0.8-0.5-0.8l0.2-0.2q0 0 0.8 0.5c0.5 0.4 1.1 1 1.9 1.9 0.8 0.9 1.5 2.2 2.1 3.8 0.7 1.5 0.9 3.6 0.8 5.7 0 2-0.6 4.5-2.4 6.6-0.8 1-2.3 2.3-4.4 2.1-1 0-1.8-0.4-2.6-1-0.3-0.2-0.5-0.3-0.7-0.6-0.5-0.4-0.6-0.6-0.9-0.9-1.6-2.4-2.5-4.7-3.2-7.3-0.4-1.3-0.6-2.5-0.7-4.1l0.1-1.2c0-0.4 0.1-0.7 0.2-1 0.1-0.9 0.8-1.6 1.4-2.1 0.7-0.5 1.6-0.8 2.6-0.6q0.4 0.2 0.7 0.4l0.4 0.3c0.4 0.4 0.5 0.7 0.7 1.1 0.5 1.5 0.1 2.8-0.1 4.1-0.4 1.3-0.8 2.5-1.3 3.6-0.2 0.6-0.5 1.2-0.8 1.8-0.4 0.5-0.7 1.2-1.3 1.6-1.9 1.9-5 3.1-7.9 1.3-0.4-0.2-0.7-0.5-0.8-0.6l-0.6-0.6c-0.5-0.5-0.4-0.6-0.7-1q-0.3-0.4-0.4-0.8c-0.5-1.2-0.7-2.4-0.7-3.5-0.1-4.4 2.3-7.8 4.7-8.7 1.2-0.5 2.2-0.5 2.8-0.4q0.9 0.2 0.9 0.2z"/>
							<path id="&lt;Path&gt;" class="s16" d="m284 556q0 0.1-0.1 0.9c-0.1 0.6-0.1 1.3 0.1 2.3 0.4 1.9 1.3 4.6 3.1 7.5 0.8 1.4 1.9 2.9 3.1 4.2 1.3 1.4 2.7 2.6 4.6 2.7 1.7 0.3 3-2.1 3.1-4.3 0.2-2.2-0.4-4.6-1.1-6.8-0.4-1-0.9-2.1-1.4-3-0.5-0.8-1.2-1.5-2-2-0.4-0.3-0.8-0.5-1.1-0.6-0.2-0.1-0.2 0.3 0.1-0.1-0.1-0.1-0.1 0.8 0.2 1.7 0.4 1.8 1.3 3.8 2.2 5.3 1 1.7 2 2.8 3.2 3.6 1.1 0.8 2.4 0.8 3.5 0.6 1.1-0.4 1.5-1.1 1.6-2 0.1-0.8-0.3-1.5-0.5-1.9q-0.5-0.7-0.5-0.7l0.2-0.3q0 0 0.7 0.5c0.5 0.4 1.2 1.1 1.5 2.3 0.2 0.7 0.1 1.4-0.2 2.2-0.2 0.4-0.4 0.8-0.8 1.1-0.3 0.4-0.8 0.7-1 0.8-1.6 0.9-3.9 1.1-5.9 0.2-2-0.8-3.8-2.6-4.9-4.4-1.3-2-2.2-4-2.7-6.6-0.1-0.6-0.2-1.3-0.2-2.1 0-0.4 0.1-0.8 0.3-1.3 0.1-0.3 0.3-0.6 0.5-0.9 0.1-0.2 0.2-0.3 0.3-0.4 0.5-0.5 0.6-0.4 0.9-0.6 0.3-0.1 0.6-0.3 0.9-0.3 0.6 0 1.2 0 1.6 0.2 0.9 0.3 1.4 0.8 2 1.2 1 0.9 1.9 2 2.4 3.4 0.5 1.2 0.8 2.4 1 3.7 0.3 2.4 0.4 4.9 0.2 7.3-0.1 1.2-0.3 2.4-0.8 3.6-0.5 1.2-1.7 2.3-3.2 2.5-2.6 0.5-5.3-0.8-6.8-2.3-1.7-1.6-2.8-3.4-3.7-5.1-1.6-3.4-2.1-6.6-1.9-8.9 0.2-1.1 0.5-2 0.7-2.5q0.5-0.8 0.5-0.8z"/>
							<path id="&lt;Path&gt;" class="s16" d="m252.7 595c0.1 0.1-0.6 0-1.4 0.3-0.8 0.3-1.9 1.2-2.7 2.7-0.8 1.5-1.5 3.5-1.9 5.9-0.4 2.3-0.8 5.3 0.3 7.5 0.2 0.5 0.6 0.8 0.9 1q0.2 0.1 0.3 0.2h0.1c-0.1 0 0.3 0.1-0.2 0h0.1 0.3c0.3 0 1 0.2 1.1 0 0.6-0.1 2-0.9 2.9-2.2q0.8-0.9 1.4-2l0.3-0.6c0 0 0.2-0.3 0.2-0.5l0.6-1.3c0.5-1.5 1.1-3.4 0.8-5 0.3 0.1-0.4-1.2-0.2-0.8 0.1 0 0.2 0 0.1 0-0.1 0-0.2 0-0.3 0.2-0.6 0.5-1.2 1.4-1.6 2.2-0.9 1.8-1.5 3.7-1.6 5.7-0.2 3.9 1 8.1 3.6 11 0.3 0.4 0.6 0.7 1 0.9q0.5 0.5 1.1 0.7l0.3 0.1c0 0 0.2 0.1 0 0l0.2 0.1 0.7 0.1c0.5 0 0.7 0 1.1-0.1 1.6-0.3 3.2-1.4 4.2-2.8 2.1-2.7 2.4-6.7 2-10.3q-0.3-2.7-1.4-4.7c-0.2-0.3-0.4-0.6-0.6-0.8-0.1-0.1-0.2-0.2-0.3-0.2l-0.1-0.1h-0.1v-0.1c0.1 0.1-0.3-0.1 0.2 0.1l-0.7-0.2c-0.3-0.1 0.2 0.1 0.2 0 0.2-0.1 0.3-0.2 0.3-0.2-0.1 0.1-0.2 0.7-0.1 1.2 0 0 0.3 0.8 0.4 0.9 0.1 0.3 0.2 0.5 0.5 0.8 0.7 1.1 1.9 1.9 3.1 2.4 2.4 1.1 4.6 0.4 5.7-1.5 0.9-1.8 0.8-4.2 0.5-5.8-0.3-1.6-1.1-2.8-1.8-3.4-0.7-0.5-1.2-0.6-1.2-0.7v-0.3c0 0 0.6 0 1.6 0.5 0.9 0.5 2 1.7 2.7 3.5 0.7 1.9 1.2 4.2 0.2 7.2-0.5 1.3-1.7 2.8-3.4 3.5-1.8 0.6-3.7 0.5-5.4-0.1-1.8-0.6-3.4-1.6-4.7-3.2-0.4-0.3-0.7-0.8-1-1.4-0.3-0.6-0.3-0.6-0.6-1.4-0.3-1.2-0.5-2.5 0.3-4 0.2-0.4 0.5-0.8 0.9-1.1 0.5-0.3 0.9-0.6 1.5-0.6 0.5-0.1 1.4 0 1.5 0.1l0.6 0.2h0.1c0.5 0.2 0.2 0.1 0.3 0.1l0.1 0.1 0.2 0.1 0.5 0.3c0.3 0.3 0.5 0.5 0.7 0.7 0.5 0.5 0.8 1 1.1 1.5 1.1 2 1.7 4.2 1.8 6.3 0.2 2.1 0.1 4.2-0.3 6.4-0.2 1.1-0.5 2.1-1 3.2-0.3 0.6-0.6 1.2-0.9 1.7-0.3 0.4-0.4 0.7-1 1.3-1.6 1.8-3.7 3.1-6.2 3.4-0.6 0.1-1.5 0-2.1-0.1l-0.7-0.2-0.2-0.1c-0.3-0.1-0.2-0.1-0.3-0.1l-0.4-0.3q-0.9-0.4-1.5-1.1c-0.5-0.3-0.8-0.8-1.2-1.3-1.3-1.8-2-3.9-2.6-6q-0.4-1.5-0.5-3.1l-0.1-1.6 0.1-1.6c0.1-2.2 0.8-4.3 1.6-6.1 0.4-1 0.8-1.9 1.6-2.8 0.2-0.2 0.5-0.5 0.9-0.7 0.4-0.1 1.1-0.2 1.4 0.2 0.6 0.5 0.6 0.7 0.7 0.9l0.2 0.3c0.2 0.4 0.1 0.3 0.2 0.5l0.3 1.7c0 0.6 0 1.1 0 1.6 0 1.1-0.4 2.1-0.6 3.1l-0.4 1.4c-0.1 0.2-0.1 0.3-0.2 0.7l-0.3 0.7q-0.6 1.4-1.5 2.6c-1.3 1.6-2.7 3.2-5.5 3.5-0.7 0.1-0.9-0.1-1.4-0.1h-0.3c-0.5-0.1-0.2-0.1-0.3-0.1h-0.1l-0.2-0.1-0.8-0.4c-1-0.6-1.8-1.5-2.2-2.5-1.4-3.7-0.4-6.8 0.2-9.3 0.8-2.5 1.8-4.6 3-6.2 1.2-1.5 2.7-2.3 3.8-2.5 1.1-0.1 1.5 0.1 1.5 0.1z"/>
							<path id="&lt;Path&gt;" class="s16" d="m280.4 589.4c-0.6 0.5-0.9 1-1.1 1.5q-0.4 0.9-0.5 1.8c-0.1 1.2 0.1 2.5 0.3 3.7 0.3 1.2 0.7 2.4 1.3 3.5q0.4 0.8 0.9 1.4 0.5 0.7 1.1 1.1c0.1 0.1 0.5 0.3 0.4 0.3l0.5 0.1c0.2 0.1 0.3 0.1 0.3 0-0.1 0 0.3 0 0.5-0.2 0.7-0.5 1.3-1.7 1.6-2.8 0.4-1.2 0.6-2.5 0.5-3.8 0-0.6-0.2-1.2-0.4-1.8-0.2-0.6-0.6-0.9-1.1-1.1l0.6-0.2c-0.5 0.6-0.6 1.7-0.6 2.6 0.1 1 0.2 2 0.6 3 0.5 2 1.3 3.9 2.4 5.4 0.5 0.8 1.1 1.5 1.7 2 0.6 0.4 1.2 0.6 1.7 0.5q0.5-0.1 1-0.4h0.1v-0.1c-0.4 0.3-0.1 0.1-0.2 0.2l0.1-0.1 0.3-0.2 0.6-0.5c0.3-0.4 0.3-0.6 0.5-0.8l0.5-1.1c0.2-0.8 0.4-1.7 0.5-2.6 0.1-1 0.2-1.9 0.2-2.9l-0.1-1.4-0.1-1.6c-0.1-1-0.2-1.9-0.4-2.8q-0.3-1.5-0.8-2.9c-0.2-1-0.7-1.8-1-2.7-0.5-0.9-1-1.8-1.6-2.5-0.6-0.9-1.4-1.5-2.1-2.3l0.1-0.3c1 0.5 2.1 0.9 2.9 1.6 0.9 0.7 1.6 1.5 2.3 2.4 0.7 0.9 1.4 1.8 1.9 2.8 0.5 1 0.9 2 1.3 3 0.3 1.1 0.6 2.3 0.8 3.3l0.3 1.6 0.1 1.7c0.1 1.1 0.1 2.2 0 3.4-0.2 1.1-0.4 2.3-0.8 3.5-0.3 0.6-0.5 1.1-0.9 1.7-0.4 0.6-1 1.3-1.5 1.7l-0.6 0.4-0.3 0.3h-0.1l-0.2 0.2h-0.1l-0.3 0.1c-0.6 0.3-1.3 0.5-2 0.6-1.6 0.1-3.1-0.6-4.1-1.5-1-0.9-1.5-2-2-3-0.9-2.1-1.4-4.3-1.7-6.4q-0.2-1.6-0.1-3.3c0-1.1 0.1-2.2 0.9-3.3l0.3-0.3 0.3 0.1c0.8 0.4 1.4 1 1.8 1.7 0.3 0.7 0.6 1.4 0.7 2.1q0.6 2.1 0.3 4.4c-0.1 1.5-0.4 3-1.7 4.5-0.7 0.7-1.6 1.4-3.1 1.2-0.3 0-0.5 0-0.7-0.1l-0.5-0.1c-0.7-0.2-0.9-0.4-1.4-0.7-0.7-0.6-1.2-1.2-1.7-1.8-0.4-0.7-0.8-1.4-1.1-2.1-0.6-1.4-0.9-2.9-1-4.4-0.1-1.4 0-2.9 0.6-4.4q0.4-1 1.1-1.9c0.2-0.3 0.6-0.6 0.8-0.8 0.3-0.2 0.6-0.4 1-0.5z"/>
							<path id="&lt;Path&gt;" class="s16" d="m303.9 589.1q0 0-0.8 0.3c-0.3 0.2-0.7 0.6-0.9 1.4-0.2 0.8-0.2 1.8 0 2.9 0.2 1.1 0.6 2.5 1.4 3.2 0.7 0.8 1.7 0.7 2.5 0 1.1-0.9 2.4-2.4 2.9-4.1 0.2-0.8 0.2-1.6-0.4-2-0.6-0.5-1.4-0.2-1.8 0.6-1.1 1.7-0.5 4.1 0.7 5.3 0.2 0.4 0.7 0.7 1 0.9l0.3 0.2c0 0 0.1 0.2 0 0.1l0.2 0.1 0.8 0.3q1.1 0.4 1.7 0c0.9-0.5 1.6-2.5 1.9-4.2 0-0.9 0.1-1.8 0.1-2.6v-0.5l-0.2-0.7q-0.1-0.7-0.2-1.4c-0.4-1.4-0.8-2.9-1.7-4.1-0.3-0.6-0.7-1.1-1.2-1.7q-0.7-0.8-1.3-1.5c-0.9-1-1.7-1.7-2.4-2.1-0.8-0.6-1.4-0.8-1.9-0.9q-0.7-0.2-0.7-0.2l-0.1-0.4q0.1 0 0.9-0.1c0.5-0.1 1.4 0 2.3 0.3 1.1 0.2 2.2 0.8 3.4 1.6 1.2 0.8 2.3 1.7 3.6 3.1 1.2 1.4 2.1 3.2 2.8 5.4q0.1 0.6 0.3 1.4l0.1 0.7c0 0.5 0 0.6 0.1 0.9q0 1.8-0.3 3.4c-0.3 1.2-0.7 2.3-1.2 3.4-0.6 1.1-1.5 2.3-3 3-1.5 0.7-3.3 0.2-4.4-0.5l-0.7-0.5-0.1-0.2c-0.3-0.1-0.2-0.1-0.3-0.2l-0.3-0.3c-0.4-0.5-0.9-1-1.1-1.6-0.6-1-1-2.5-0.9-3.5v-0.9-0.4l0.1-0.5c0.2-0.6 0.4-1.1 0.7-1.6 0.4-0.5 0.7-1 1.4-1.4q0.3-0.1 0.6-0.1h0.4 0.2c0.3 0.1 0.3 0.1 0.4 0.1l0.5 0.2c1.3 0.6 1.6 2.3 1.5 3.4-0.2 2.3-1 4.4-2.6 6.1-0.4 0.4-0.8 0.7-1.7 1.1-0.4 0.2-0.5 0.2-0.8 0.3-0.6 0.1-0.7 0-1.1 0-1.3-0.1-2.5-0.8-3.2-1.7-1.4-1.7-1.6-3.5-1.6-5 0-1.5 0.4-2.8 1-3.8 0.7-0.9 1.6-1.4 2.2-1.4q0.8 0.1 0.8 0.1z"/>
						</g>
						<g id="&lt;Group&gt;">
							<path id="&lt;Path&gt;" class="s16" d="m226.2 736.1c2.5 1.6 5.2 2.9 7.9 3.8 1.4 0.5 2.8 0.9 4.2 1.1q1 0.3 2.1 0.3c0.7 0.1 1.4 0.2 2.1 0.1 1.4 0.1 2.8-0.1 4.1-0.3 0.7-0.2 1.3-0.4 2-0.6 0.7-0.1 1.3-0.4 1.9-0.7 0.7-0.3 1.3-0.5 1.9-0.9l1.7-1.2c1.2-0.7 2.2-1.7 3.3-2.6l0.9-0.6 0.8 0.3c1.3 0.6 2.9 1 4.4 1.4q2.3 0.6 4.7 0.9c1.6 0.2 3.2 0.3 4.8 0.2 0.8 0 1.6-0.1 2.4-0.2q1.2-0.1 2.4-0.4c0.7-0.3 1.5-0.4 2.3-0.7l2.2-1 2.1-1.2c0.7-0.4 1.3-0.9 1.9-1.5 0.6-0.5 1.3-0.9 1.8-1.6l1.6-1.8c0.6-0.5 0.9-1.3 1.4-1.9l1.2-2.1 0.4-0.6 0.7 0.3c3.1 0.9 6.4 1.5 9.6 1.9 1.6 0.2 3.2 0.2 4.8 0.3l2.4-0.2c0.8 0 1.6-0.2 2.4-0.2 0.8-0.1 1.5-0.3 2.2-0.5 0.8-0.2 1.6-0.4 2.2-0.8 0.7-0.3 1.5-0.5 2-1l1.9-1.2 1.5-1.6c0.5-0.5 0.8-1.2 1.2-1.8l0.7-1 0.4-1 0.8-2.1 0.8-2 1.8 0.8c1.4 0.6 3 1.1 4.5 1.6q2.4 0.7 4.8 1.2c1.6 0.3 3.2 0.6 4.8 0.7 1.6 0.1 3.2 0.2 4.8 0 0.8 0 1.6-0.2 2.4-0.4q1.2-0.1 2.3-0.6c0.7-0.3 1.5-0.4 2.2-0.9 0.6-0.4 1.4-0.7 2-1.2l1.8-1.6c0.6-0.6 1-1.3 1.5-1.9 0.6-0.6 1-1.4 1.3-2.1l1.2-2.3 0.3 0.1-0.7 2.5c-0.3 0.9-0.6 1.7-1.1 2.4-0.4 0.7-0.8 1.6-1.3 2.3l-1.8 2c-0.7 0.6-1.5 1.1-2.2 1.6-0.7 0.6-1.5 0.9-2.3 1.3q-1.3 0.7-2.6 1c-0.8 0.2-1.7 0.5-2.6 0.6-1.8 0.3-3.6 0.4-5.3 0.4-1.8-0.1-3.6-0.2-5.3-0.5-1.8-0.2-3.5-0.6-5.2-1.1-1.7-0.5-3.3-0.9-5-1.6l2.5-1.2-1 2.5-0.5 1.3-0.8 1.2c-0.5 0.7-0.9 1.6-1.6 2.2l-2.1 2c-0.7 0.5-1.5 1-2.3 1.5-0.8 0.5-1.7 0.7-2.5 1.1-0.9 0.4-1.8 0.6-2.6 0.8-0.9 0.2-1.8 0.4-2.7 0.5-0.9 0-1.7 0.2-2.6 0.2l-2.6-0.1c-1.8-0.1-3.5-0.3-5.2-0.6-3.4-0.7-6.6-1.7-9.8-3l1-0.3c-1.1 1.3-2 2.7-3.1 4l-1.8 1.8c-0.5 0.6-1.3 1.1-1.9 1.6-1.3 1.2-2.8 1.9-4.2 2.8l-2.3 1.1c-0.8 0.4-1.6 0.5-2.4 0.8q-2.4 0.8-4.9 1.2c-1.7 0.2-3.4 0.3-5.1 0.3q-2.6-0.1-5.1-0.5c-1.7-0.2-3.4-0.6-5.1-1.2l1.7-0.3-1.8 1.5c-0.6 0.5-1.2 1.1-1.9 1.5l-2 1.2c-0.7 0.4-1.5 0.7-2.2 1-0.7 0.3-1.5 0.6-2.2 0.8-0.8 0.2-1.6 0.4-2.4 0.5-1.6 0.2-3.2 0.3-4.7 0.2-0.8-0.1-1.6-0.2-2.4-0.4q-1.1-0.2-2.2-0.5c-1.5-0.4-3-1-4.4-1.7-1.4-0.6-2.7-1.4-3.9-2.3-1.3-0.8-2.5-1.7-3.5-2.8z"/>
							<path id="&lt;Path&gt;" class="s16" d="m219.9 747.3c1.6 2 3.6 3.7 5.7 5 1 0.7 2.1 1.3 3.2 1.8 0.6 0.3 1.2 0.4 1.7 0.6q0.9 0.3 1.8 0.4c1.2 0.3 2.4 0.2 3.5 0.2l1.8-0.3c0.6 0 1.1-0.3 1.7-0.4 1.1-0.3 2.2-1 3.3-1.4 0.5-0.3 1-0.7 1.5-1l1.5-1 0.8-0.5 0.8 0.3c1.3 0.6 2.8 1.1 4.2 1.6q2.1 0.7 4.3 1.1 2.2 0.5 4.4 0.7c0.8 0 1.5 0.1 2.3 0.1l2.2-0.1 2.2-0.4c0.7-0.1 1.4-0.4 2.1-0.6 0.7-0.2 1.3-0.6 2-0.9 0.7-0.4 1.4-0.7 1.9-1.2 0.6-0.5 1.2-0.9 1.8-1.4l1.4-1.7c1.1-1.2 1.7-2.6 2.5-3.9l0.2-0.4 0.5 0.2c3.1 1.1 6.3 1.9 9.6 2.3 1.6 0.2 3.3 0.3 4.9 0.3l2.4-0.2 2.4-0.3c0.8-0.1 1.6-0.4 2.3-0.6 0.8-0.2 1.5-0.5 2.2-0.8 0.8-0.3 1.5-0.6 2.1-1.1 0.6-0.4 1.3-0.7 1.9-1.3l1.7-1.5c0.5-0.6 0.9-1.3 1.4-1.9q0.7-0.8 1.2-1.9l1-2.1 0.6-1.3 1.4 0.3c3 0.7 6.2 1.1 9.3 1.3 1.5 0.2 3.1 0.2 4.6 0.2 1.6-0.1 3.1-0.1 4.6-0.3q1.2-0.1 2.3-0.3c0.7-0.2 1.5-0.3 2.2-0.5l2.1-0.7 2-0.9c0.7-0.3 1.3-0.8 1.9-1.2 0.7-0.3 1.2-0.8 1.7-1.4 0.5-0.5 1.1-0.9 1.4-1.6l1.3-1.8 0.9-1.3 1.1 0.8c0.6 0.4 1.3 0.8 2 1.1q1.1 0.6 2.2 0.9c1.6 0.4 3.2 0.5 4.7 0.1q1.1-0.3 2.2-0.9c0.7-0.4 1.3-0.9 1.9-1.5 0.7-0.5 1.2-1.2 1.7-1.8l1.5-2.2 0.3 0.2c-0.4 0.8-0.7 1.6-1.1 2.4-0.5 0.7-0.9 1.5-1.5 2.2-0.6 0.7-1.2 1.4-2 1.9-0.7 0.6-1.6 1-2.5 1.4-1.8 0.6-3.8 0.7-5.6 0.4q-1.4-0.2-2.8-0.7c-0.9-0.3-1.7-0.7-2.6-1.2l2.1-0.5-1.4 2.2c-0.4 0.8-1.1 1.4-1.6 2.1-0.6 0.6-1.2 1.3-2 1.8-0.7 0.5-1.3 1.1-2.1 1.5l-2.3 1.2-2.5 0.9c-0.8 0.3-1.6 0.4-2.5 0.6q-1.2 0.4-2.5 0.5c-3.4 0.5-6.7 0.5-10 0.2-3.4-0.3-6.6-0.9-9.9-1.8l2.1-1-1.3 2.4q-0.6 1.2-1.5 2.3c-0.6 0.7-1.1 1.4-1.7 2.1l-2.2 1.7c-0.7 0.6-1.5 1-2.3 1.4-0.8 0.5-1.6 0.8-2.5 1.1-0.8 0.3-1.6 0.7-2.5 0.8-0.9 0.1-1.8 0.4-2.6 0.4l-2.7 0.2-2.5-0.1c-1.8-0.2-3.5-0.4-5.1-0.7q-2.6-0.5-5-1.2c-1.6-0.5-3.2-1-4.8-1.6l0.7-0.3c-0.9 1.3-1.5 2.8-2.6 4.1l-1.5 1.8c-0.5 0.6-1.2 1.1-1.7 1.7-0.6 0.5-1.3 1-2 1.4-0.7 0.4-1.4 0.9-2.1 1.2-0.8 0.3-1.5 0.7-2.3 0.9l-2.4 0.7-2.4 0.3c-0.8 0.2-1.6 0.1-2.5 0.2q-2.4 0-4.8-0.4c-1.6-0.2-3.2-0.6-4.8-1.1-1.5-0.5-3-1-4.5-1.8l1.6-0.1-1.8 1.1c-0.5 0.3-1.1 0.8-1.7 1-1.3 0.6-2.5 1.3-3.9 1.5-0.7 0.2-1.4 0.4-2.1 0.5l-2.1 0.1c-1.4 0-2.8-0.1-4.1-0.5q-1-0.3-2-0.7c-0.6-0.2-1.2-0.5-1.8-0.9q-1.8-0.9-3.4-2.2-1.5-1.3-2.8-2.8-1.3-1.5-2.2-3.3z"/>
						</g>
					</g>
					<g id="&lt;Group&gt;">
						<g id="&lt;Group&gt;">
							<path id="&lt;Path&gt;" class="s5" d="m195.7 814.9c0 0-33.5 18.3-38.6 7.7-5-10.6 30.7-19.2 30.7-19.2 0 0-8-4.7-4.4-8.2 3.5-3.6 24.7 3.8 24.7 3.8 0 0-13.8-15 0-18 13.9-2.9 44.5 12.1 44.5 12.1 0 0-6.5-16.8 5.6-18 12.1-1.1 30 10.9 30 10.9 0 0-7-19.4 2.1-19.4 9.1 0 16.8 14.4 16.8 14.4 0 0 10.9-45.3 43.6-42.1 32.7 3.2 29.5 45.7 29.5 45.7 0 0 8.5-21.2 24.1-15.4 15.6 5.9 9.1 50.4-28.3 43.1 0 0-1.7 24.7-20 27.9-18.3 3.3-32.4-13.2-32.4-13.2 0 0-4.1 14.1-10 13.7-5.9-0.5-10.9-17-10.9-17 0 0-46.6 35.4-69.3-3.8 0 0-34.1 23.9-37.7-5z"/>
							<path id="&lt;Path&gt;" class="s17" d="m195.7 814.9c0 0-33.5 18.3-38.6 7.7-5-10.6 30.7-19.2 30.7-19.2 0 0-8-4.7-4.4-8.2 3.5-3.6 24.7 3.8 24.7 3.8 0 0-13.8-15 0-18 13.9-2.9 44.5 12.1 44.5 12.1 0 0-6.5-16.8 5.6-18 12.1-1.1 30 10.9 30 10.9 0 0-7-19.4 2.1-19.4 9.1 0 16.8 14.4 16.8 14.4 0 0 10.9-45.3 43.6-42.1 32.7 3.2 29.5 45.7 29.5 45.7 0 0 8.5-21.2 24.1-15.4 15.6 5.9 9.1 50.4-28.3 43.1 0 0-1.7 24.7-20 27.9-18.3 3.3-32.4-13.2-32.4-13.2 0 0-4.1 14.1-10 13.7-5.9-0.5-10.9-17-10.9-17 0 0-46.6 35.4-69.3-3.8 0 0-34.1 23.9-37.7-5z"/>
						</g>
						<path id="&lt;Path&gt;" class="s4" d="m200.7 807.4q-0.7 3.3-0.9 6.6c-0.1 1.1-0.1 2.2 0 3.3 0 1.1 0.1 2.3 0.4 3.3 0.3 1.1 0.8 2 1.4 2.8 0.7 0.7 1.6 1.3 2.7 1.3 1 0.2 2.1-0.2 3.2-0.4 1.1-0.1 2.2-0.5 3.2-0.8 2.1-0.7 4.1-1.5 6.1-2.4 2.1-0.9 4.1-1.9 6.1-2.9 3.9-2 7.9-4.1 11.7-6.3l0.8-0.5 0.5 0.8c1.9 3 4.1 5.9 6.4 8.6q1.8 2 3.8 3.8c1.3 1.2 2.7 2.3 4.1 3.3 1.5 1.1 3 2 4.5 2.8l2.4 1 2.5 0.8c1.7 0.4 3.4 0.8 5.1 0.7h1.2c0.3 0 0.9-0.1 1.3-0.1 0.9-0.2 1.8-0.2 2.6-0.4 1.6-0.5 3.2-0.9 4.9-1.7 1.6-0.6 3.1-1.5 4.7-2.3 3-1.8 5.9-3.9 8.7-6.2 5.5-4.6 10.6-9.8 15.1-15.3l2.9-3.7v4.8c0 2.8 0.1 5.7 0.6 8.4q0.2 1 0.5 1.9c0.2 0.5 0.5 1.1 0.7 1.2 0.1 0.1 0.1 0 0 0q0.1 0 0.1 0c0.3-0.1-0.3 0.2-0.2 0.1l0.2-0.1c0.4-0.2 0.7-0.4 0.7-0.5 0.1-0.1 0.2-0.2 0.4-0.5 0.7-0.9 1.3-2.2 1.8-3.5 0.6-1.3 1-2.7 1.4-4 0.8-2.8 1.4-5.7 1.9-8.5l0.7-4.1 2.5 3.4c4.1 5.7 8.4 11.3 13 16.7 2.3 2.6 4.7 5.2 7.2 7.6 2.5 2.4 5.1 4.8 8 6.4 1.4 0.8 2.9 1.4 4.2 1.4q0.4 0 0.8-0.2h0.1 0.1c0-0.1-0.4 0.2-0.2 0.1l0.2-0.2 0.6-0.4c0.9-0.5 1.2-1 1.6-1.5 0.9-1.1 1.7-2.7 2.4-4.2q0.8-2.3 1.4-4.9c0.8-3.3 1.3-6.8 1.6-10.3 0.3-3.5 0.5-7 0.5-10.5v-2l1.9 0.7c7.1 2.8 14.4 5.4 21.8 7.2 1.8 0.4 3.7 0.7 5.5 0.8 0.9 0.1 1.8 0.1 2.6-0.1 0.8-0.2 1.2-0.5 1.5-1.2 0.2-0.3 0.1-0.9-0.5-1.5-0.5-0.6-1.3-1.1-2.1-1.6-1.5-0.8-3.3-1.6-5.1-2.1l-1.7-0.6 1.5-1c5.9-3.8 11.7-7.9 16.7-12.9 1.2-1.3 2.4-2.6 3.4-4.1 0.9-1.4 1.8-3 1.7-4.7 0.1-0.9-0.3-1.7-0.7-2.4q-0.9-0.9-2.1-1.6-1.1-0.6-2.4-0.9c-0.9-0.3-1.8-0.4-2.6-0.6 0.9 0.1 1.7 0.2 2.6 0.4q1.3 0.3 2.5 0.9 1.3 0.6 2.3 1.6c0.5 0.7 1 1.6 1 2.6 0.1 1.9-0.8 3.6-1.7 5.1-1 1.6-2.1 3-3.3 4.3-2.5 2.6-5.1 5-7.9 7.3q-4.1 3.4-8.6 6.5l-0.2-1.6c1.9 0.6 3.7 1.3 5.5 2.2 0.9 0.5 1.8 1.1 2.6 1.9 0.8 0.7 1.6 2.2 0.9 3.7-0.4 0.8-0.4 0.8-1.1 1.5-0.6 0.4-1.2 0.6-1.7 0.8-1.1 0.2-2.2 0.3-3.2 0.2-2 0-4-0.4-5.9-0.7-7.7-1.7-15-4.1-22.3-6.8l1.9-1.3c0.1 7.2-0.3 14.4-1.9 21.5q-0.6 2.7-1.6 5.4c-0.7 1.7-1.5 3.4-2.8 5.1-0.7 0.8-1.5 1.7-2.2 2l-0.6 0.4-0.3 0.2-0.2 0.1-0.1 0.1h-0.1l-0.2 0.1q-0.9 0.3-1.8 0.3c-2.4 0.1-4.2-0.8-5.9-1.7-3.3-1.9-6.1-4.3-8.7-6.8-2.6-2.5-5.1-5.1-7.4-7.8-4.8-5.4-9.2-11-13.4-16.9l3.2-0.7c-0.6 3-1.2 5.9-2.1 8.8-0.4 1.5-0.9 2.9-1.5 4.4-0.6 1.4-1.2 2.9-2.3 4.3-0.4 0.6-1.7 1.8-2.2 1.9l-0.2 0.1-0.3 0.1v0.1h-0.1-0.1-0.3q-0.5 0.1-1 0.1c-0.8-0.1-1.5-0.4-1.9-0.9-1-0.9-1.3-1.7-1.6-2.5q-0.4-1.3-0.7-2.4c-0.5-3.2-0.6-6.2-0.6-9.2l2.9 1c-4.7 5.8-9.9 11-15.6 15.7-2.9 2.4-6 4.5-9.2 6.4-1.7 0.9-3.3 1.8-5.1 2.5-0.9 0.3-1.7 0.7-2.7 1l-2.8 0.7c-1 0.3-1.9 0.3-2.8 0.4-0.5 0.1-0.8 0.1-1.5 0.2l-1.4-0.1c-2 0-3.9-0.5-5.7-0.9l-2.7-0.9-2.6-1.3c-1.7-0.9-3.3-1.8-4.8-3-1.5-1.1-2.9-2.3-4.3-3.6q-2-2-3.8-4.1c-2.4-2.8-4.6-5.8-6.5-9l1.4 0.3q-5.9 3.3-12 6.2c-2.1 0.8-4.1 1.9-6.3 2.6-2 0.9-4.1 1.6-6.4 2.2-1.1 0.4-2.2 0.7-3.3 0.8-1.1 0.1-2.2 0.5-3.4 0.3-1.2-0.1-2.3-0.8-3.2-1.7-0.7-0.9-1.2-2-1.4-3.2-0.2-1.1-0.3-2.2-0.3-3.3 0-1.2 0-2.3 0.1-3.4q0.4-3.4 1.3-6.6z"/>
						<path id="&lt;Path&gt;" class="s4" d="m186.3 805.9c0 0-3.9 1.9-9.8 4.6-2.9 1.4-6.4 3-9.8 4.9-1.7 1-3.5 2.1-4.9 3.2-0.7 0.6-1.2 1.5-1.1 1.3 0-0.1 0.2 0.1-0.1-0.3l0.3 0.3c0 0.1 0-0.1 0-0.1-0.2 0 0.4 0.2 0.7 0.2 1.7 0.2 3.9-0.2 5.8-0.6 2.1-0.4 4.1-0.9 6-1.4 3.9-1 7.5-2.1 10.6-3 6.2-1.8 10.4-3 10.4-3 0 0-3.7 2.2-9.7 4.9-3 1.3-6.5 2.8-10.4 4.1-2 0.6-4 1.3-6.1 1.8-2.2 0.4-4.4 0.9-7 0.7-0.7-0.2-1.3-0.2-2.3-0.8-0.3-0.2-0.6-0.4-0.7-0.5l-0.3-0.3c-0.4-0.6-0.3-0.6-0.5-1q-0.1-0.4-0.1-0.8c-0.1-1.3 0.5-2 0.9-2.6 0.4-0.6 0.9-1 1.4-1.4 1.8-1.6 3.8-2.5 5.7-3.4 3.7-1.8 7.3-3.1 10.5-4.1 6.2-1.9 10.5-2.7 10.5-2.7z"/>
						<path id="&lt;Path&gt;" class="s4" d="m213.9 800.4c-2.1-2-4-4-5.6-6.3-0.8-1.1-1.5-2.3-2-3.7-0.4-1.3-0.6-3.1 0.5-4.4 0.4-0.7 1.2-1 2-1.1 0.8-0.1 1.5-0.1 2.2-0.1 1.4 0.1 2.8 0.3 4.2 0.5 2.8 0.6 5.5 1.3 8.2 2 10.7 3.1 21.1 7 31.5 11l-1.9 1.4c-0.2-2.4-0.3-4.8-0.2-7.3 0-1.2 0.1-2.4 0.4-3.7 0.1-0.7 0.2-1.3 0.6-2.1 0.2-0.3 0.6-0.9 1.1-1.2q0.3-0.2 0.6-0.3l0.3-0.1h0.1 0.1 0.3 0.5c0.3 0.1 0.9 0.3 1.3 0.5l0.9 0.6q0.8 0.5 1.5 1.1 1.5 1.2 2.7 2.5c1.7 1.7 3.3 3.5 4.9 5.3l-2.7 1.6c-1.3-4-2.4-7.9-2.6-12.3 0-1.2 0-2.3 0.6-3.7 0.4-0.8 1.1-1.5 2.1-1.9h0.2v-0.1c-0.2 0.1 0.5 0 0.4 0h0.2 0.4c0.2 0 0.5 0 0.9 0.1 1.5 0.3 2.4 0.7 3.4 1.1 1 0.4 2 0.8 2.9 1.3 7.3 3.8 14 8.3 20.6 13l-2.6 1.9c-1.2-4-2.2-7.9-3.1-11.9-0.4-2-0.8-4-1-6.2-0.1-1-0.2-2.1 0-3.3 0.1-0.7 0.2-1.3 0.6-2.1 0.4-0.5 0.5-0.8 1.6-1.2 0.1-0.1 0.2-0.1 0.4-0.1q0.5-0.1 0.9 0c1.6 0.4 2.5 1.1 3.4 1.7 0.8 0.7 1.6 1.4 2.4 2.1 1.5 1.4 3 2.9 4.3 4.4 2.8 3 5.4 6.2 7.8 9.4l-2.4 0.4c2.3-5.2 4.8-10.2 7.5-15.1 2.8-4.9 5.8-9.6 9.2-14 3.5-4.4 7.4-8.6 12.1-11.7 2.4-1.6 4.9-2.9 7.7-3.5q2-0.5 4.2-0.5c0.7 0.1 1.4 0.1 2 0.2l2.1 0.5-2.1-0.3c-0.7-0.1-1.4-0.1-2-0.1q-2.1 0.1-4.1 0.7c-2.6 0.8-5 2.1-7.2 3.8-4.5 3.2-8 7.5-11.3 11.9-3.2 4.5-6 9.2-8.6 14.1-2.5 4.9-4.9 9.9-6.9 15l-0.8 2.2-1.6-1.8c-2.5-3.1-5.1-6.2-7.8-9.1-1.4-1.5-2.8-2.9-4.2-4.2q-1.1-1-2.2-1.9c-0.7-0.5-1.6-1-2-1.1q0.1 0 0.2 0c0 0-0.2 0-0.3 0.1 0.6-0.2 0.3-0.2 0.4-0.3 0 0.1-0.1 0.5-0.2 0.8-0.1 0.8 0 1.8 0.1 2.7 0.2 1.9 0.6 3.9 1 5.8 0.9 3.9 2 7.8 3.2 11.5l1.5 4.8-4.1-2.8c-3.3-2.3-6.7-4.5-10.1-6.6-3.3-2.2-6.7-4.3-10.2-6.1-0.9-0.5-1.8-0.9-2.6-1.3-0.9-0.4-1.9-0.7-2.3-0.9-0.1 0-0.3-0.1-0.6 0h-0.4-0.1-0.1c-0.1 0 0.6-0.1 0.3-0.1 0.1 0 0 0-0.1 0.2-0.2 0.4-0.3 1.3-0.3 2.2 0.1 3.6 1.2 7.6 2.3 11.3l2.4 7.6-5.1-6.1c-1.5-1.8-3.1-3.5-4.7-5.2q-1.2-1.2-2.5-2.3-0.6-0.5-1.2-1l-0.6-0.4c-0.2 0-0.1-0.1-0.3-0.1l-0.5-0.1c-0.2 0 0.4 0 0.3 0h0.1 0.1q0.1 0 0.2-0.1c0 0 0-0.1-0.1 0.1-0.1 0.3-0.3 0.8-0.4 1.3-0.2 1-0.3 2.1-0.3 3.3-0.2 2.2-0.2 4.6-0.1 6.9l0.1 2.2-2-0.8c-10.1-4.4-20.4-8.5-30.9-11.9-2.7-0.9-5.3-1.7-8-2.3-1.3-0.3-2.6-0.6-4-0.7-1.3-0.1-2.7-0.3-3.4 0.6-0.8 0.9-0.8 2.3-0.5 3.6 0.4 1.2 1 2.5 1.8 3.6 1.4 2.4 3.2 4.5 5.1 6.6z"/>
					</g>
					<g id="&lt;Group&gt;">
						<path id="&lt;Path&gt;" class="s2" d="m271 805.2c4.8 5.2 5.4 12.4 1.3 16.2-4 3.7-11.2 2.6-16-2.6-4.8-5.2-5.4-12.5-1.4-16.2 4.1-3.8 11.3-2.6 16.1 2.6z"/>
						<path id="&lt;Path&gt;" class="s2" d="m395.1 779.7c1.6 6.8-4.2 14.1-13.1 16.2-8.9 2.2-17.5-1.6-19.1-8.4-1.7-6.8 4.2-14 13.1-16.2 8.9-2.1 17.5 1.6 19.1 8.4z"/>
						<path id="&lt;Path&gt;" class="s2" d="m240.9 789.7c0 9-5.5 16.2-12.1 16.2-6.7 0-12.1-7.2-12.1-16.2 0-9 5.4-16.2 12.1-16.2 6.6 0 12.1 7.2 12.1 16.2z"/>
						<path id="&lt;Path&gt;" class="s2" d="m340.9 828.3c-5.7 7-14.5 9.2-19.7 5-5.1-4.3-4.7-13.3 0.9-20.3 5.7-6.9 14.5-9.1 19.7-4.9 5.1 4.2 4.7 13.3-0.9 20.2z"/>
						<path id="&lt;Path&gt;" class="s2" d="m352.2 767.3c0 7.2-6.4 13-14.4 13-8 0-14.5-5.8-14.5-13 0-7.1 6.5-13 14.5-13 8 0 14.4 5.9 14.4 13z"/>
						<path id="&lt;Path&gt;" class="s15" d="m227.3 775.3c0 0-18 12.4 1.5 27.8 0 0-9.3-15.4-1.5-27.8z"/>
						<path id="&lt;Path&gt;" class="s15" d="m253.8 806.7c0 0 10.1-4.7 17.3 10.6 0 0-6.7-26.9-17.3-10.6z"/>
						<path id="&lt;Path&gt;" class="s15" d="m322.3 832.3c0 0-9.4-12.2 8.6-24.1 0 0-10.2 9.6-8.6 24.1z"/>
						<path id="&lt;Path&gt;" class="s15" d="m341.6 777.9c0 0 7.5-17.8-5.5-21 0 0 9.5-2.6 13.8 6.5 4.3 9.1-8.3 14.5-8.3 14.5z"/>
						<path id="&lt;Path&gt;" class="s15" d="m375.5 773.5c0 0 16.4 2.9 9 20 0 0 9-4.7 9.5-11.3 0.4-6.5-11.6-11.2-18.5-8.7z"/>
					</g>
				</g>
			</g>
		</g>
		<g id="&lt;Group&gt;">
			<path id="&lt;Path&gt;" class="s6" d="m856.3 403.7c0 8.4-61.8 15.2-138 15.2-76.2 0-138-6.8-138-15.2 0-8.4 61.8-15.2 138-15.2 76.2 0 138 6.8 138 15.2z"/>
			<g id="&lt;Group&gt;">
				<g id="&lt;Group&gt;">
					<path id="&lt;Path&gt;" class="s8" d="m699.1 361.9l5.7 34c0 0-57.6-20.2-69.3 7.8l74.8-3.4z"/>
					<path id="&lt;Path&gt;" class="s18" d="m699.1 361.9l5.7 34c0 0-57.6-20.2-69.3 7.8l74.8-3.4z"/>
				</g>
				<g id="&lt;Group&gt;">
					<path id="&lt;Path&gt;" class="s8" d="m731.2 362.8l-7.2 33.6c0 0 58.4-17.4 68.8 11.1l-74.5-6.9z"/>
					<path id="&lt;Path&gt;" class="s18" d="m731.2 362.8l-7.2 33.6c0 0 58.4-17.4 68.8 11.1l-74.5-6.9z"/>
				</g>
				<g id="&lt;Group&gt;">
					<g id="&lt;Group&gt;">
						<path id="&lt;Path&gt;" class="s8" d="m869.8 266.7c0 0 47.6 11.1 48.9 21.9 1.4 10.8-53.4 2.6-53.4 2.6 0 0-0.3 16.2 18.1 7.4l11 15.1c0 0-52.2 22.8-35-28.9l50.7 4.8z"/>
						<path id="&lt;Path&gt;" class="s18" d="m869.8 266.7c0 0 47.6 11.1 48.9 21.9 1.4 10.8-53.4 2.6-53.4 2.6 0 0-0.3 16.2 18.1 7.4l11 15.1c0 0-52.2 22.8-35-28.9l50.7 4.8z"/>
					</g>
					<g id="&lt;Group&gt;" style="opacity: .5">
						<path id="&lt;Path&gt;" class="s1" d="m874.6 305.7q-1.6-0.2-3.3-0.9l0.6-1.4c6.8 2.8 12.4-2.7 12.7-2.9l1.1 1.1c-0.2 0.2-4.9 4.8-11.1 4.1z"/>
						<path id="&lt;Path&gt;" class="s1" d="m876.8 309.6c-2.1-0.2-4.5-0.9-7.1-2.2l0.8-1.4c10.7 5.5 16.9-1.4 17-1.4l1.2 1c-0.1 0.1-4.4 4.8-11.9 4z"/>
						<path id="&lt;Path&gt;" class="s1" d="m876.1 313.9c-2.4-0.2-4.9-1-7.5-2.4l0.8-1.4c10.8 6.1 21.1-1.5 21.2-1.6l0.9 1.2c0 0.1-6.8 5.1-15.4 4.2z"/>
						<path id="&lt;Path&gt;" class="s1" d="m866.4 316.5l-1.4-0.7 6.6-14 1.4 0.7z"/>
					</g>
				</g>
				<g id="&lt;Group&gt;">
					<g id="&lt;Group&gt;">
						<g id="&lt;Group&gt;">
							<path id="&lt;Path&gt;" class="s8" d="m830.5 153.2l3.2 19.1-34.4 17.3-71.8-45.7 2.9-26.6 14.3-7.2c0 0 4.4 25 29.9 23.2 0 0-1.1 17.7 11.2 16.9 0 0 7.4 36.8 44.7 3z"/>
							<path id="&lt;Path&gt;" class="s15" d="m830.5 153.2l3.2 19.1-34.4 17.3-71.8-45.7 2.9-26.6 14.3-7.2c0 0 4.4 25 29.9 23.2 0 0-1.1 17.7 11.2 16.9 0 0 7.4 36.8 44.7 3z"/>
						</g>
						<g id="&lt;Group&gt;">
							<path id="&lt;Path&gt;" class="s8" d="m869.8 249.5c-7.4 69.2-83.7 117.8-170.3 108.5-86.6-9.3-150.7-73-143.3-142.2 7.5-69.2 83.7-117.8 170.3-108.5q9.3 1 18.2 2.8c-2.8 12.6-1.2 28.6 27.1 25.7 0 0-9.3 27.4 10.4 16.3 0 0 20.6 48.3 48.3 1.1 27.8 26.1 43.2 60.5 39.3 96.3z"/>
							<path id="&lt;Path&gt;" class="s19" d="m869.8 249.5c-7.4 69.2-83.7 117.8-170.3 108.5-86.6-9.3-150.7-73-143.3-142.2 7.5-69.2 83.7-117.8 170.3-108.5q9.3 1 18.2 2.8c-2.8 12.6-1.2 28.6 27.1 25.7 0 0-9.3 27.4 10.4 16.3 0 0 20.6 48.3 48.3 1.1 27.8 26.1 43.2 60.5 39.3 96.3z"/>
						</g>
						<path id="&lt;Path&gt;" class="s7" d="m731.3 352.1c0 0 128.7-55.9 98.9-185.9 0 0 116 143.6-98.9 185.9z"/>
					</g>
					<g id="&lt;Group&gt;">
						<g id="&lt;Group&gt;">
							<path id="&lt;Path&gt;" class="s8" d="m677.1 266.2c-0.1 0.1 0.6-0.5 1.7-1.1 1.2-0.6 2.8-1.4 4.9-1.9 1.1-0.2 2.3-0.5 3.5-0.5 1.2-0.1 2.5 0 3.9 0.1 1.3 0.2 2.7 0.5 4 1 1.3 0.5 2.6 0.9 3.8 1.7l1.8 1 1.6 1.3q0.8 0.6 1.6 1.2 0.8 0.7 1.5 1.3c0.9 0.9 1.8 1.7 2.5 2.7q1.2 1.3 2.2 2.5c0.7 0.8 1.1 1.6 1.6 2.2q0.7 1.1 1.2 1.8c0.7 1 1.1 1.5 1.1 1.5 0 0-0.4-0.5-1.2-1.4q-0.5-0.7-1.3-1.7c-0.6-0.6-1.1-1.4-1.8-2.1q-1.1-1.1-2.3-2.3c-0.7-0.9-1.7-1.6-2.7-2.4q-0.7-0.6-1.5-1.2-0.8-0.6-1.6-1.1l-1.6-1.1-1.8-0.8c-1.2-0.6-2.5-1-3.7-1.3-1.2-0.4-2.5-0.5-3.6-0.7-1.2 0-2.4 0-3.5 0.2-1 0.1-2 0.4-2.9 0.7-1.8 0.5-3.2 1.3-4.1 1.9-0.9 0.6-1.3 1-1.3 1z"/>
							<path id="&lt;Path&gt;" class="s8" d="m686.5 264c0 0 1.1 1 2.2 2.7 1.1 1.7 2.5 4.1 3.5 6.6 1.1 2.5 1.9 5.1 2.3 7.2 0.5 2 0.5 3.4 0.5 3.4 0 0-1-1-2.2-2.7-1.1-1.8-2.4-4.2-3.5-6.7-1-2.4-1.8-5.1-2.3-7.1-0.4-2-0.5-3.4-0.5-3.4z"/>
						</g>
						<g id="&lt;Group&gt;" style="opacity: .6">
							<path id="&lt;Path&gt;" class="s1" d="m677.1 266.2c-0.1 0.1 0.6-0.5 1.7-1.1 1.2-0.6 2.8-1.4 4.9-1.9 1.1-0.2 2.3-0.5 3.5-0.5 1.2-0.1 2.5 0 3.9 0.1 1.3 0.2 2.7 0.5 4 1 1.3 0.5 2.6 0.9 3.8 1.7l1.8 1 1.6 1.3q0.8 0.6 1.6 1.2 0.8 0.7 1.5 1.3c0.9 0.9 1.8 1.7 2.5 2.7q1.2 1.3 2.2 2.5c0.7 0.8 1.1 1.6 1.6 2.2q0.7 1.1 1.2 1.8c0.7 1 1.1 1.5 1.1 1.5 0 0-0.4-0.5-1.2-1.4q-0.5-0.7-1.3-1.7c-0.6-0.6-1.1-1.4-1.8-2.1q-1.1-1.1-2.3-2.3c-0.7-0.9-1.7-1.6-2.7-2.4q-0.7-0.6-1.5-1.2-0.8-0.6-1.6-1.1l-1.6-1.1-1.8-0.8c-1.2-0.6-2.5-1-3.7-1.3-1.2-0.4-2.5-0.5-3.6-0.7-1.2 0-2.4 0-3.5 0.2-1 0.1-2 0.4-2.9 0.7-1.8 0.5-3.2 1.3-4.1 1.9-0.9 0.6-1.3 1-1.3 1z"/>
							<path id="&lt;Path&gt;" class="s1" d="m686.5 264c0 0 1.1 1 2.2 2.7 1.1 1.7 2.5 4.1 3.5 6.6 1.1 2.5 1.9 5.1 2.3 7.2 0.5 2 0.5 3.4 0.5 3.4 0 0-1-1-2.2-2.7-1.1-1.8-2.4-4.2-3.5-6.7-1-2.4-1.8-5.1-2.3-7.1-0.4-2-0.5-3.4-0.5-3.4z"/>
						</g>
					</g>
					<g id="&lt;Group&gt;">
						<path id="&lt;Path&gt;" class="s4" d="m753.9 219.9c-1.2 27.8-14.3 49.9-29.3 49.2-14.9-0.6-26.1-23.7-24.9-51.6 1.2-27.8 14.3-49.9 29.3-49.3 15 0.7 26.2 23.8 24.9 51.7z"/>
						<path id="&lt;Path&gt;" class="s1" d="m751.1 209.6c0.5 4.4-1.1 8.2-3.6 8.6-2.5 0.3-5-3-5.5-7.5-0.6-4.4 1-8.2 3.5-8.5 2.5-0.3 5 3 5.6 7.4z"/>
					</g>
					<g id="&lt;Group&gt;">
						<path id="&lt;Path&gt;" class="s4" d="m645.2 218.6c0 0 25 9.6 44-1.6 0 0-3 28.3-19.3 31.7-16.2 3.4-24.7-30.1-24.7-30.1z"/>
						<path id="&lt;Path&gt;" class="s20" d="m640.7 217c0 0 35 15.2 53.2-5.1 0 0-26.5 10.5-53.2 5.1z"/>
						<path id="&lt;Path&gt;" class="s1" d="m686.6 224.9c-0.3 2.4-1.6 4.2-3 4.1-1.4-0.2-2.3-2.2-2-4.7 0.2-2.4 1.6-4.2 3-4.1 1.3 0.2 2.3 2.3 2 4.7z"/>
					</g>
					<g id="&lt;Group&gt;">
						<path id="&lt;Path&gt;" class="s8" d="m665.7 167.8c2.2 8-7.7 17.7-22 21.5-14.4 3.8-27.8 0.4-29.9-7.7-2.2-8.1 7.7-17.7 22.1-21.6 14.3-3.8 27.7-0.3 29.8 7.8z"/>
						<path id="&lt;Path&gt;" class="s8" d="m710.7 135c6.5 7.7 7.5 17.6 2.1 22.1-5.3 4.6-14.9 2.1-21.5-5.6-6.5-7.7-7.5-17.6-2.2-22.1 5.4-4.6 15-2.1 21.6 5.6z"/>
						<path id="&lt;Path&gt;" class="s8" d="m830.7 260c-4.2 7.6-17.7 8-30.1 1.1-12.5-6.9-19.2-18.7-14.9-26.2 4.2-7.6 17.7-8.1 30.1-1.1 12.5 6.9 19.1 18.7 14.9 26.2z"/>
						<path id="&lt;Path&gt;" class="s8" d="m630.5 275c2 6.4-3.2 13.7-11.6 16.3-8.4 2.6-16.8-0.5-18.7-7-2-6.4 3.2-13.7 11.5-16.3 8.4-2.6 16.8 0.5 18.8 7z"/>
						<path id="&lt;Path&gt;" class="s8" d="m848.9 283c2 6.6-3.3 14.1-11.9 16.7-8.7 2.7-17.3-0.5-19.4-7.1-2-6.7 3.3-14.2 12-16.8 8.6-2.7 17.2 0.5 19.3 7.2z"/>
						<path id="&lt;Path&gt;" class="s8" d="m821.2 331c-0.4 4.3-6.9 7.1-14.4 6.3-7.5-0.8-13.2-4.9-12.7-9.3 0.4-4.3 6.9-7.1 14.4-6.3 7.5 0.8 13.2 4.9 12.7 9.3z"/>
						<path id="&lt;Path&gt;" class="s8" d="m731.9 339c1.2 4.5-3.1 9.4-9.6 11.1-6.4 1.6-12.6-0.7-13.7-5.2-1.1-4.5 3.2-9.4 9.6-11.1 6.4-1.6 12.6 0.7 13.7 5.2z"/>
						<path id="&lt;Path&gt;" class="s8" d="m651.1 315.1c0.8 3.3-2.4 6.9-7.1 8.1-4.8 1.2-9.3-0.5-10.1-3.8-0.9-3.3 2.3-6.9 7-8.1 4.8-1.2 9.3 0.5 10.2 3.8z"/>
						<path id="&lt;Path&gt;" class="s8" d="m656.5 129.3c1.2 4.7-3.3 9.8-10 11.5-6.8 1.7-13.2-0.7-14.3-5.3-1.2-4.7 3.2-9.9 10-11.6 6.7-1.7 13.1 0.7 14.3 5.4z"/>
						<path id="&lt;Path&gt;" class="s8" d="m758.1 321.1c0.8 3.3-2.3 6.9-7.1 8.1-4.7 1.2-9.2-0.5-10.1-3.8-0.8-3.3 2.4-6.9 7.1-8.1 4.8-1.2 9.3 0.5 10.1 3.8z"/>
						<path id="&lt;Path&gt;" class="s8" d="m795.9 339.6c0.8 3.3-2.4 7-7.1 8.2-4.7 1.2-9.3-0.5-10.1-3.8-0.8-3.3 2.3-7 7.1-8.2 4.7-1.2 9.2 0.5 10.1 3.8z"/>
						<path id="&lt;Path&gt;" class="s8" d="m788.4 188.7c1.1 4.4-3.1 9.2-9.4 10.8-6.3 1.6-12.3-0.6-13.4-5-1.1-4.4 3.1-9.2 9.4-10.8 6.3-1.6 12.2 0.6 13.4 5z"/>
						<path id="&lt;Path&gt;" class="s8" d="m598 201.6c-0.9 7.9-11.3 13.3-23.3 12-12-1.3-21-8.8-20.1-16.7 0.8-7.9 11.2-13.3 23.2-12.1 12 1.3 21 8.8 20.2 16.8z"/>
						<path id="&lt;Path&gt;" class="s8" d="m869.4 205.8c4.8 8 5 16.7 0.4 19.5-4.6 2.7-12.2-1.5-17-9.5-4.8-8-5-16.7-0.5-19.5 4.6-2.8 12.3 1.5 17.1 9.5z"/>
						<path id="&lt;Path&gt;" class="s8" d="m618.5 314.1c7.6 5.4 11.3 13.3 8.2 17.6-3.1 4.4-11.8 3.6-19.4-1.8-7.7-5.4-11.3-13.3-8.2-17.7 3-4.4 11.7-3.5 19.4 1.9z"/>
						<path id="&lt;Path&gt;" class="s8" d="m836 199.6c-4.6 5.6-11.5 7.4-15.4 4.2-4-3.2-3.5-10.4 1.1-15.9 4.5-5.6 11.4-7.4 15.3-4.2 4 3.2 3.5 10.4-1 15.9z"/>
						<path id="&lt;Path&gt;" class="s8" d="m572.5 266.8c-8.4 3.8-17.4 2.1-20.1-3.9-2.7-6 1.9-14 10.3-17.8 8.4-3.8 17.4-2.1 20.2 3.9 2.7 6-1.9 14-10.4 17.8z"/>
						<path id="&lt;Path&gt;" class="s18" d="m665.7 167.8c2.2 8-7.7 17.7-22 21.5-14.4 3.8-27.8 0.4-29.9-7.7-2.2-8.1 7.7-17.7 22.1-21.6 14.3-3.8 27.7-0.3 29.8 7.8z"/>
						<path id="&lt;Path&gt;" class="s18" d="m710.7 135c6.5 7.7 7.5 17.6 2.1 22.1-5.3 4.6-14.9 2.1-21.5-5.6-6.5-7.7-7.5-17.6-2.2-22.1 5.4-4.6 15-2.1 21.6 5.6z"/>
						<path id="&lt;Path&gt;" class="s18" d="m830.7 260c-4.2 7.6-17.7 8-30.1 1.1-12.5-6.9-19.2-18.7-14.9-26.2 4.2-7.6 17.7-8.1 30.1-1.1 12.5 6.9 19.1 18.7 14.9 26.2z"/>
						<path id="&lt;Path&gt;" class="s18" d="m630.5 275c2 6.4-3.2 13.7-11.6 16.3-8.4 2.6-16.8-0.5-18.7-7-2-6.4 3.2-13.7 11.5-16.3 8.4-2.6 16.8 0.5 18.8 7z"/>
						<path id="&lt;Path&gt;" class="s18" d="m848.9 283c2 6.6-3.3 14.1-11.9 16.7-8.7 2.7-17.3-0.5-19.4-7.1-2-6.7 3.3-14.2 12-16.8 8.6-2.7 17.2 0.5 19.3 7.2z"/>
						<path id="&lt;Path&gt;" class="s18" d="m821.2 331c-0.4 4.3-6.9 7.1-14.4 6.3-7.5-0.8-13.2-4.9-12.7-9.3 0.4-4.3 6.9-7.1 14.4-6.3 7.5 0.8 13.2 4.9 12.7 9.3z"/>
						<path id="&lt;Path&gt;" class="s18" d="m731.9 339c1.2 4.5-3.1 9.4-9.6 11.1-6.4 1.6-12.6-0.7-13.7-5.2-1.1-4.5 3.2-9.4 9.6-11.1 6.4-1.6 12.6 0.7 13.7 5.2z"/>
						<path id="&lt;Path&gt;" class="s18" d="m651.1 315.1c0.8 3.3-2.4 6.9-7.1 8.1-4.8 1.2-9.3-0.5-10.1-3.8-0.9-3.3 2.3-6.9 7-8.1 4.8-1.2 9.3 0.5 10.2 3.8z"/>
						<path id="&lt;Path&gt;" class="s18" d="m656.5 129.3c1.2 4.7-3.3 9.8-10 11.5-6.8 1.7-13.2-0.7-14.3-5.3-1.2-4.7 3.2-9.9 10-11.6 6.7-1.7 13.1 0.7 14.3 5.4z"/>
						<path id="&lt;Path&gt;" class="s18" d="m758.1 321.1c0.8 3.3-2.3 6.9-7.1 8.1-4.7 1.2-9.2-0.5-10.1-3.8-0.8-3.3 2.4-6.9 7.1-8.1 4.8-1.2 9.3 0.5 10.1 3.8z"/>
						<path id="&lt;Path&gt;" class="s18" d="m795.9 339.6c0.8 3.3-2.4 7-7.1 8.2-4.7 1.2-9.3-0.5-10.1-3.8-0.8-3.3 2.3-7 7.1-8.2 4.7-1.2 9.2 0.5 10.1 3.8z"/>
						<path id="&lt;Path&gt;" class="s18" d="m788.4 188.7c1.1 4.4-3.1 9.2-9.4 10.8-6.3 1.6-12.3-0.6-13.4-5-1.1-4.4 3.1-9.2 9.4-10.8 6.3-1.6 12.2 0.6 13.4 5z"/>
						<path id="&lt;Path&gt;" class="s18" d="m598 201.6c-0.9 7.9-11.3 13.3-23.3 12-12-1.3-21-8.8-20.1-16.7 0.8-7.9 11.2-13.3 23.2-12.1 12 1.3 21 8.8 20.2 16.8z"/>
						<path id="&lt;Path&gt;" class="s18" d="m869.4 205.8c4.8 8 5 16.7 0.4 19.5-4.6 2.7-12.2-1.5-17-9.5-4.8-8-5-16.7-0.5-19.5 4.6-2.8 12.3 1.5 17.1 9.5z"/>
						<path id="&lt;Path&gt;" class="s18" d="m618.5 314.1c7.6 5.4 11.3 13.3 8.2 17.6-3.1 4.4-11.8 3.6-19.4-1.8-7.7-5.4-11.3-13.3-8.2-17.7 3-4.4 11.7-3.5 19.4 1.9z"/>
						<path id="&lt;Path&gt;" class="s18" d="m836 199.6c-4.6 5.6-11.5 7.4-15.4 4.2-4-3.2-3.5-10.4 1.1-15.9 4.5-5.6 11.4-7.4 15.3-4.2 4 3.2 3.5 10.4-1 15.9z"/>
						<path id="&lt;Path&gt;" class="s18" d="m572.5 266.8c-8.4 3.8-17.4 2.1-20.1-3.9-2.7-6 1.9-14 10.3-17.8 8.4-3.8 17.4-2.1 20.2 3.9 2.7 6-1.9 14-10.4 17.8z"/>
					</g>
				</g>
				<g id="&lt;Group&gt;">
					<g id="&lt;Group&gt;">
						<path id="&lt;Path&gt;" class="s8" d="m664.2 354.2c0 0-1.1 21.2 5.6 21.5 6.7 0.4 9.8-51.1 9.8-51.1l8.6 0.9c0 0 2.2-30.6-18.9-19 0 0 20.2-26.1 13.8-28.7-6.5-2.6-22.3 25.2-27.6 46.7l16.5-0.7-3.1 45.7z"/>
						<path id="&lt;Path&gt;" class="s18" d="m664.2 354.2c0 0-1.1 21.2 5.6 21.5 6.7 0.4 9.8-51.1 9.8-51.1l8.6 0.9c0 0 2.2-30.6-18.9-19 0 0 20.2-26.1 13.8-28.7-6.5-2.6-22.3 25.2-27.6 46.7l16.5-0.7-3.1 45.7z"/>
					</g>
					<g id="&lt;Group&gt;" style="opacity: .5">
						<path id="&lt;Path&gt;" class="s1" d="m667.8 316.4l-1.4-0.8c0.2-0.3 4.1-7.9 10.4-10 2.6-0.8 5.2-0.6 7.8 0.8l-0.7 1.4q-3.3-1.7-6.6-0.7c-5.7 1.9-9.4 9.2-9.5 9.3z"/>
						<path id="&lt;Path&gt;" class="s1" d="m670.5 318l-1.3-0.8c0-0.1 6.1-9.9 18.4-4.3l-0.7 1.4c-10.9-5-16.2 3.4-16.4 3.7z"/>
						<path id="&lt;Path&gt;" class="s1" d="m671.8 321l-1.1-1.2c0.1-0.1 8.3-7.3 18.1 0.9l-1 1.2c-8.8-7.3-15.7-1.2-16-0.9z"/>
						<path id="&lt;Path&gt;" class="s1" d="m678.9 324.9c-1.1-3.2-1.2-4.8-0.2-5.5 1.2-0.8 3.1 0.9 3.9 1.6l-1.1 1.1c-0.7-0.6-1.6-1.3-2-1.3q0 0 0 0c0 0.1-0.1 0.8 0.9 3.5z"/>
					</g>
				</g>
			</g>
		</g>
	</g>
</svg>